<?xml version="1.0" encoding="utf-8"?>
<!-- Generator: Adobe Illustrator 19.0.0, SVG Export Plug-In . SVG Version: 6.00 Build 0)  -->
<svg version="1.1" id="_ÎÓÈ_2" xmlns="http://www.w3.org/2000/svg" xmlns:xlink="http://www.w3.org/1999/xlink" x="0px" y="0px"
	 viewBox="95 -156.5 801.3 1105.5" style="enable-background:new 95 -156.5 801.3 1105.5;" xml:space="preserve">
<style type="text/css">
	.st0{opacity:0.31;fill:#CEB9A7;enable-background:new    ;}
	.st1{fill:#F2AC7C;}
	.st2{fill:#1AACC7;}
	.st3{fill:#F2A117;}
	.st4{fill:#7A581F;}
	.st5{fill:#979596;}
	.st6{fill:#C69693;}
	.st7{fill:#BCBABF;}
	.st8{fill:#727271;}
	.st9{fill:#A2BF23;}
	.st10{fill:#EDEEE9;}
	.st11{fill:#59660E;}
	.st12{fill:#ECA22C;}
	.st13{fill:#55A534;}
	.st14{fill:#4D2A13;}
	.st15{fill:#B56248;}
	.st16{fill:#AB765B;}
	.st17{fill:#CA7653;}
</style>
<title>03_child</title>
<path class="st0" d="M745.9,800.4c-2.6-18.9-18.5-24.2-31.3-25.5c-144.8-14.8-291.2-26.2-434.1,11.7c-13.6,3.6-30,11.9-32,32.5
	c-1.3,12.9,4.4,25.6,11.9,32.5c7.4,6.8,16.2,9,24.9,11c103.7,23.7,210.5,30.3,316.3,19.5c42.9-4.4,86.9-12.1,125.1-42
	C737,831.9,748.2,817.7,745.9,800.4z"/>
<path class="st1" d="M564.7,431l113.8-82.5c0,0-4.1-32.8,0.9-33.9s3.9,16.4,6.1,17.7s6.5-26.4,12.6-26.4s-6.3,30.7,0,28.1
	s15.7-27.2,23.8-21.9c4.8,3.2-16.9,28.7-11.8,30s20.3-15.6,24.8-7.9c2.2,3.8-25.2,20.7-23,24.2s24.3,11.6,17.6,17.2
	c-4.9,4.1-21-5.4-26.3-4.9S592.3,482.5,592.3,482.5L564.7,431"/>
<polyline class="st2" points="588.8,412.5 629.5,454.2 565.2,521.8 530.3,493.9 530.6,456.7 588.8,412.5 "/>
<path class="st3" d="M425.5,800.5c0,0-71.8,16.2-54.9,33.5s93.7,3.8,93.7,3.8l-2.1-34.2L425.5,800.5"/>
<path class="st3" d="M553.2,802.2c0,0,71.3,18,54,34.9s-93.7,1.3-93.7,1.3l3-34.2L553.2,802.2"/>
<polyline class="st4" points="409.4,650.8 407.5,812.9 467.1,813.7 487.5,701.2 500.2,701.4 511.4,818.1 573.4,818.9 586.9,655.7 
	409.4,650.8 "/>
<path class="st5" d="M395.8,453.1c0,0-67,51.9-50.1,147.5c4.9,27.6,73.4,52.3,80.5,45.4s47.5-145,47.5-145l-24.5-67.5L395.8,453.1"
	/>
<path class="st6" d="M343.7,555.8l-10.9,10.6c-6,5.8-1.7,44.2,25.9,44.5s26.3-9.6,27.9-19.8s2.4-32.1,2.4-32.1
	S354.1,553.3,343.7,555.8"/>
<path class="st6" d="M393.4,476.3l-38.1,73c0,0-12.7,2.4-15.9-8.7c-3.2-11,27.1-74.8,43.2-78.8S393.4,476.3,393.4,476.3"/>
<polyline class="st7" points="373.9,482.8 355.3,549.2 372.1,549.4 386.4,492.2 373.9,482.8 "/>
<path class="st8" d="M420.8,478.7c0,0-49.2,115.9-31,142.7s47,19,47,19l32-151L420.8,478.7"/>
<polyline class="st2" points="429.8,483.9 390.8,660.7 606.1,663.5 570.6,470.5 426.5,482 "/>
<path class="st5" d="M462,461.1c0,0,4.3,60.8-14.6,86.8s-54.9,1-54.9,1l19.1-45.3c0,0,32.2-12.2,25.9-43.6S462,461.1,462,461.1"/>
<polyline class="st9" points="414.6,502.8 424.2,495.1 534.8,505.2 538.2,510.9 489.8,530.5 414.6,502.8 "/>
<polyline class="st10" points="423.8,498.1 534.5,507.1 536.7,512.1 480.1,532.5 418.7,525.4 409,506.9 423.8,498.1 "/>
<polyline class="st11" points="415.8,502.2 409.6,638.1 526.9,651.7 538.2,510.9 415.8,502.2 "/>
<polyline class="st12" points="430.9,523 432.7,507 527.2,515.6 530.3,520.7 487.5,538 430.9,523 "/>
<polyline class="st10" points="433.2,509.6 527,517.3 529,521.7 478.9,539.8 424.6,533.5 428,513.5 433.2,509.6 "/>
<polyline class="st13" points="422,512.9 416.5,633.2 520.3,645.2 530.3,520.7 422,512.9 "/>
<path class="st1" d="M391.6,482.1c0,0-34.1,87,11.2,112.9s109.5,5.9,109.5,5.9s34.3,10.3,26.1-25.4c-6.9-30-36.5-3.5-36.5-3.5
	s-59.7,18-74.5-11.1s-1.6-73.3-1.6-73.3L391.6,482.1"/>
<polyline class="st2" points="373.6,463.7 358.5,524 427.2,534.1 435.5,486.1 373.6,463.7 "/>
<path class="st5" d="M528.6,464.5c0,0,59.5,63.4,58.8,121.6c0,0,14.1-43.3,7.7-72.5s-21.8-62-21.8-62L528.6,464.5"/>
<path class="st1" d="M300.2,336.7c0,0,0.1,0.5,0.2,1.5c3,18.1,34.3,185.2,207.4,143.5c180.9-43.6,140.2-178,118.5-232.5
	s-57.3-143-209.6-99C295.1,185.4,297.3,310.3,300.2,336.7"/>
<path class="st14" d="M387.3,359.7c3.6,11.4,13.4,18.4,21.9,15.7s12.5-14.1,9-25.4s-13.4-18.4-21.9-15.7S383.8,348.3,387.3,359.7"/>
<path class="st14" d="M539.7,325.9c3.3,11.4,13,18.6,21.6,16.1s12.8-13.8,9.5-25.3c-3.4-11.4-13-18.6-21.6-16.1
	S536.4,314.4,539.7,325.9"/>
<path class="st15" d="M474.9,386.6c0,0-2.6-7.9,7-11.3s15,6.2,15,6.2s-1.2-13.2-15.3-10.8S474.9,386.6,474.9,386.6"/>
<path class="st15" d="M449.8,409.1c0,0,10.4,39.2,51,31.2S529,397,529,397"/>
<path class="st1" d="M340.7,393.8c-0.2,14-11.7,25.2-25.7,25c-14-0.2-25.2-11.7-25-25.7c0.2-14,11.7-25.2,25.7-25
	C329.7,368.3,340.9,379.7,340.7,393.8C340.7,393.7,340.7,393.7,340.7,393.8"/>
<path class="st1" d="M663.8,285.2c-0.2,14-11.7,25.2-25.7,25c-14-0.2-25.2-11.7-25-25.7c0.2-14,11.7-25.2,25.7-25c0,0,0,0,0,0
	C652.8,259.7,664,271.2,663.8,285.2C663.8,285.2,663.8,285.2,663.8,285.2"/>
<path class="st16" d="M609.2,182.7c3.3,3.4,10,6.9,13.3,12c3.8-35.4-43.2-51.2-66.7-63.4c8.4,0.1,18.6-3.1,23.8-11.5
	c-52.3-5.7-102.7-23.3-152,1.4c3.4-5,6.9-13.4,12.1-18.4c-15.2-0.2-15.4,15-23.9,18.3c-8.5,1.6-20.2-5.3-26.9-7.1
	c3.8,5,8.4,9.3,13.6,12.8c-14.4-2.6-25.4-1.7-39.2,8.8c-9.1,6.6-16.1,17.8-25.8,24.4c-15.4,2.6-36.7,11.6-44.4,40.6
	c-7.6,28.6-10.6,45.9-11.8,55c-4.9,6.5-9.3,13.5-11.2,22.4c3.4-4.5,6.9-9,10.3-13.9l0,0c0,0-5.6,31.5,2,48.4
	c-1,14.9-3.3,28.6-9.9,36.4c10.1-1.6,13.6-10,15.4-18.4c4.6,9.5,6.2,19,2.1,28.5c1.1-1.8,3.1-4.1,4.3-6.4
	c8.3,8.5,13.3,18.8,23.3,27.3c0.3-27,2.3-50.6,9.4-75.9c8.8-25.2,27.6-45.2,31.3-70.5c4.9,13.6-3.8,30.4-10.7,43.8
	c18.6-3.1,24.1-31.8,34.4-43.5c3.3,8.5,1.4,18.6-2,27c13.6-8.3,24-31.8,26-48.6c10.1,5.2,18.4,15.4,28.4,22.3
	c-3.3-8.5-6.6-15.3-6.5-22c13.5,0.2,26.9,8.8,36.9,17.4c-1.6-8.5-4.8-16.9-8.1-25.4c15.2-1.5,35.3,14,48.7,20.9
	c0.1-10.1-4.8-22-9.7-30.5c15.2-1.5,30.2,13.9,41.9,22.5c1.8-11.8-8.2-22.1-8-32.2c18.5,5.3,31.8,19,38.4,36c0-3.4,1.8-8.4,0.2-13.5
	c18.4,15.4,33.1,51.1,41.3,73.2c3.5-10.1-1.4-22-3-32.1l5.1,0.1c3.2,11.9,9.8,22.1,14.8,32.3C650.4,260.9,622.5,201.4,609.2,182.7"
	/>
<path class="st17" d="M410,142.3c0,0,59.7,38.2,70.8,61.1s2.5,0,2.5,0S463.1,149.1,410,142.3"/>
<path class="st17" d="M392.2,147.8c0,0-26.5,41.5-23.7,68.7s3.1,2.6,3.1,2.6L392.2,147.8"/>
<path class="st17" d="M405.3,161.2c0,0-0.3,35.2,13.9,52.7L405.3,161.2"/>
<path class="st17" d="M393.6,183.9c0,0,3.3,38.6-7,48.7C386.6,232.5,411.4,222.1,393.6,183.9"/>
<path class="st17" d="M370.6,151.3c0,0-61.7,18.8-68,66.2C302.6,217.5,331.1,164.7,370.6,151.3"/>
<path class="st17" d="M338.5,228.8c0,0-36.2,37.9-31.5,91.4C307,320.2,324.2,242.8,338.5,228.8"/>
<path class="st17" d="M350.5,184c0,0-54.4,41.1-58,78.4L350.5,184"/>
<path class="st17" d="M295.3,290.3c0,0-4.9,36,11.9,62.2L295.3,290.3"/>
<path class="st17" d="M592.4,186.5c0,0,24.2,26.5,31.3,74.5C623.8,261,632.6,212.4,592.4,186.5"/>
<path class="st17" d="M562.8,172.2c0,0,18.4,13.1,31.1,44.7C593.9,216.9,591.9,178.9,562.8,172.2"/>
<path class="st17" d="M467.5,148.1c0,0,37.2,10.6,54.5,48.2L467.5,148.1"/>
<path class="st17" d="M511.8,152.5c0,0,38.5,7.5,52,39.9L511.8,152.5"/>
</svg>
