<svg id="Layer_1" data-name="Layer 1" xmlns="http://www.w3.org/2000/svg" viewBox="0 0 270 203"><defs><style>.cls-1{opacity:0.19;}.cls-2{fill:#62beb3;}.cls-3{fill:#53aea0;}.cls-4{fill:#d3e8be;}.cls-5{fill:#f5e9a5;}.cls-6{fill:#f8e05a;}.cls-7{fill:#fac277;}.cls-8{fill:#fad449;}.cls-9{fill:#faa257;}.cls-10{fill:#f99b18;}.cls-11{fill:#f46c3a;}.cls-12{fill:#f25232;}.cls-13{fill:#f25161;}.cls-14{fill:#ce3945;}.cls-15{fill:#f33737;}.cls-16{fill:#54365c;}.cls-17{fill:#519ba4;}.cls-18{fill:#8d83bf;}.cls-19{fill:#9f99d5;}.cls-20{fill:#734979;}.cls-21{fill:#a44565;}.cls-22{fill:#f78d65;}.cls-23{fill:#d42c3e;}.cls-24{fill:#dd2330;}.cls-25{fill:#fac521;}.cls-26{fill:#efcc3c;}</style></defs><title>front</title><path d="M10.29,34.57C11.95,20.6,33,18.08,43,25.71c4.9,4-.29,10.23-4.61,7.06C33,29.38,21,27.8,19.44,35.29c-1.94,11.81,29.38,5,28.87,24.19-0.5,18.29-27,18.72-36.94,10.51a5.33,5.33,0,0,1-1-7.06c1.87-1.87,4-2.52,6.41-.5,5.9,4,21.1,7.06,22.18-3.17C38,48.61,8.06,55,10.29,34.57Z"/><path d="M47.86,65.82C47.86,51.92,56.57,40,73.13,40c6.26,0,11.23,1.87,16.49,6.41a4.67,4.67,0,1,1-6.41,6.77c-3-3.1-6-4-10.08-4C62,49.19,56.71,57,56.71,65.82S62,83,73.13,83a16.77,16.77,0,0,0,11.23-4.61,4.85,4.85,0,0,1,6.62.86c1.15,1.58,1.73,4.25-.79,6.77-5,4.68-11.09,5.62-17.07,5.62C55.7,91.6,47.86,79.72,47.86,65.82Z"/><path d="M90.23,56.13V15.23c0-2.59,1.87-4.46,5.11-4.46a4.29,4.29,0,0,1,4.39,4.46v15.7H123.2V15.23a4.68,4.68,0,0,1,4.9-4.46,4.35,4.35,0,0,1,4.46,4.46v40.9a4.4,4.4,0,0,1-4.46,4.46,4.73,4.73,0,0,1-4.9-4.46V40.36H99.73V56.13a4.34,4.34,0,0,1-4.39,4.46C92.1,60.6,90.23,58.65,90.23,56.13Z"/><path class="cls-1" d="M132.09,60.51h0l0,0v0Z"/><path class="cls-1" d="M134.19,52.86l-0.06.16,0.44,0.09Z"/><path class="cls-1" d="M133,72.48l0,0.09,0.13-.05Z"/><path class="cls-2" d="M144.25,41.84l-0.33,13.08,10.26-16.55A28.88,28.88,0,0,0,144.25,41.84Z"/><path class="cls-3" d="M151.68,48.59l2.56-10.24h-0.06L143.93,54.91v0A16.16,16.16,0,0,1,151.68,48.59Z"/><path class="cls-4" d="M164.85,48.47v0.12L165,48.66Z"/><path class="cls-4" d="M164.85,48.47l-9.92-10.2-0.69.08-2.56,10.24a17.67,17.67,0,0,1,6.52-1.27,18.4,18.4,0,0,1,6.64,1.27V48.47Z"/><path class="cls-5" d="M165.53,39A30.16,30.16,0,0,0,159,38a30,30,0,0,0-4.06.31l9.92,10.2Z"/><path class="cls-6" d="M168.27,50.38l-2.66-11.32-0.08,0-0.68,9.43L165,48.66A17.33,17.33,0,0,1,168.27,50.38Z"/><path class="cls-1" d="M183.8,56.81l-0.12,0,0.15,0Z"/><path class="cls-7" d="M173.41,42.59l-1.2,11.57,0.06,0.09,11.41,2.62,0.12,0A24.32,24.32,0,0,0,173.41,42.59Z"/><path class="cls-8" d="M183.67,56.86l-11.41-2.62a16,16,0,0,1,2.67,6.13Z"/><path class="cls-1" d="M184.76,64.06l-0.06,0,0.07,0S184.76,64.08,184.76,64.06Z"/><path class="cls-9" d="M183.82,56.9l-0.15,0-8.74,3.51c0,0.07,0,.15,0,0.22l9.74,3.5,0.06,0A28.86,28.86,0,0,0,183.82,56.9Z"/><path class="cls-1" d="M174.1,71.12h0v0Z"/><path class="cls-10" d="M175,60.59a19.33,19.33,0,0,1,.38,3.8,18.13,18.13,0,0,1-1.23,6.7v0l10.59-7Z"/><path class="cls-1" d="M176.34,84l0,0h0v0Z"/><path class="cls-11" d="M184.77,64.39c0-.09,0-0.18,0-0.27l-0.07,0-10.59,7L176.33,84h0C181.37,79.61,184.77,73.07,184.77,64.39Z"/><path class="cls-1" d="M163.94,80.52l0.09,0V80.49Z"/><path class="cls-12" d="M174.12,71.11h0A16.19,16.19,0,0,1,164,80.49v0.06L176.33,84Z"/><path class="cls-1" d="M160.48,81.3l0.07,0.13,0.1-.16Z"/><path class="cls-13" d="M163.94,80.52a18.31,18.31,0,0,1-3.3.75l-0.1.16,4.09,8.27,0.12,0L164,80.54Z"/><path class="cls-14" d="M151.93,80.28l-0.1,0-9.06,5.7a27,27,0,0,0,12.47,4.29Z"/><path class="cls-1" d="M145.35,75.73l0,0.09,0.14,0Z"/><path class="cls-15" d="M145.48,75.85l-0.14,0-2.57,10.12h0l9.06-5.7A16.56,16.56,0,0,1,145.48,75.85Z"/><path class="cls-16" d="M132.11,60.5h0a31.6,31.6,0,0,0-.24,3.89,29.17,29.17,0,0,0,1.1,8.09l0.16,0,8.79-3.58,0-.12Z"/><path class="cls-1" d="M143.88,55l0-.08v0l-0.07.12h0Z"/><path class="cls-2" d="M143.88,55h0l-0.19.3,0.19-.3-9.28-1.92,7.81,5.09A16.13,16.13,0,0,1,143.88,55Z"/><path class="cls-17" d="M143.93,54.91l0.33-13.08a24.19,24.19,0,0,0-10.06,11l0.38,0.25L143.85,55Z"/><path class="cls-18" d="M134.13,53a26.36,26.36,0,0,0-2,7.47l0,0,10.22-2.17,0.05-.13-7.81-5.09Z"/><path class="cls-19" d="M132.11,60.5l9.76,8.33a19.18,19.18,0,0,1-.51-4.44,18.58,18.58,0,0,1,1-6.07Z"/><path class="cls-20" d="M133.11,72.53l12.22,3.29,0-.09a15.94,15.94,0,0,1-3.46-6.78Z"/><path class="cls-21" d="M133,72.58a23.72,23.72,0,0,0,9.78,13.36l2.57-10.12-12.22-3.29Z"/><path class="cls-22" d="M160.48,81.3a17.84,17.84,0,0,1-2.27.16,17.64,17.64,0,0,1-6.28-1.18l3.32,9.95h0l5.3-8.8Z"/><path class="cls-23" d="M160.54,81.43l-5.3,8.8a28.38,28.38,0,0,0,3.75.09,27.21,27.21,0,0,0,5.63-.62Z"/><path class="cls-24" d="M176.33,84L164,80.54l0.72,9.13A26.08,26.08,0,0,0,176.34,84v0Z"/><path class="cls-25" d="M172.2,54.16l1.2-11.57h0l-5.08,7.83A15.85,15.85,0,0,1,172.2,54.16Z"/><path class="cls-26" d="M165.61,39.06l2.66,11.32,0,0,5.08-7.83A28.45,28.45,0,0,0,165.61,39.06Z"/><path class="cls-2" d="M225.14,21H212.06l16.81,9.82A28.88,28.88,0,0,0,225.14,21Z"/><path class="cls-3" d="M218.58,28.65l10.3,2.29V30.88l-16.81-9.82h0A16.16,16.16,0,0,1,218.58,28.65Z"/><path class="cls-4" d="M219,41.81h-0.12c0,0.06,0,.13-0.06.19Z"/><path class="cls-4" d="M219,41.81L229,31.63c0-.23-0.06-0.46-0.1-0.69l-10.3-2.29A17.67,17.67,0,0,1,220,35.14a18.4,18.4,0,0,1-1.09,6.67H219Z"/><path class="cls-5" d="M228.49,42.24a30.16,30.16,0,0,0,.9-6.56,30,30,0,0,0-.41-4.06L219,41.81Z"/><path class="cls-6" d="M217.23,45.28l11.24-3,0-.08L219,41.81l-0.18.19A17.33,17.33,0,0,1,217.23,45.28Z"/><path class="cls-1" d="M211.2,61l-0.05-.12,0,0.15Z"/><path class="cls-7" d="M225.15,50.21l-11.6-.9-0.08.06-2.32,11.47L211.2,61A24.32,24.32,0,0,0,225.15,50.21Z"/><path class="cls-8" d="M211.14,60.84l2.32-11.47a16,16,0,0,1-6.06,2.82Z"/><path class="cls-1" d="M204,62.12l0-.06,0,0.07H204Z"/><path class="cls-9" d="M211.11,61l0-.15-3.73-8.65-0.22,0-3.25,9.83,0,0.06A28.86,28.86,0,0,0,211.11,61Z"/><path class="cls-1" d="M196.64,51.64v0h0Z"/><path class="cls-10" d="M207.19,52.23a19.33,19.33,0,0,1-3.79.48,18.13,18.13,0,0,1-6.73-1.06h0l7.29,10.4Z"/><path class="cls-1" d="M183.84,54.21l0,0v0h0Z"/><path class="cls-11" d="M203.65,62.14l0.27,0,0-.07-7.29-10.4-12.78,2.55v0C188.34,59.13,195,62.37,203.65,62.14Z"/><path class="cls-1" d="M187,41.74l0,0.09H187Z"/><path class="cls-12" d="M196.65,51.66v0A16.19,16.19,0,0,1,187,41.82H187l-3.09,12.39Z"/><path class="cls-1" d="M186.12,38.29l-0.13.07,0.16,0.09C186.14,38.4,186.13,38.35,186.12,38.29Z"/><path class="cls-13" d="M187,41.74a18.31,18.31,0,0,1-.84-3.28L186,38.36l-8.16,4.3,0,0.12,9.11-1Z"/><path class="cls-14" d="M186.91,29.72l0-.1L181,20.71a27,27,0,0,0-4,12.58Z"/><path class="cls-1" d="M191.29,23l-0.09,0,0,0.15Z"/><path class="cls-15" d="M191.17,23.15l0-.15L181,20.7h0L187,29.62A16.56,16.56,0,0,1,191.17,23.15Z"/><path class="cls-16" d="M206.17,9.39v0a31.6,31.6,0,0,0-3.89-.13,29.17,29.17,0,0,0-8.06,1.31l0,0.16L198,19.39l0.12,0Z"/><path class="cls-1" d="M211.94,21l0.08,0h0L211.94,21v0Z"/><path class="cls-2" d="M211.94,21v0l-0.31-.18L211.94,21l1.68-9.33-4.88,7.93A16.13,16.13,0,0,1,211.94,21Z"/><path class="cls-17" d="M212.06,21.06h13.08a24.19,24.19,0,0,0-11.28-9.77l-0.24.39L211.94,21Z"/><path class="cls-18" d="M213.71,11.22a26.36,26.36,0,0,0-7.52-1.85l0,0,2.44,10.16,0.13,0,4.88-7.93Z"/><path class="cls-19" d="M206.17,9.39l-8.07,10a19.18,19.18,0,0,1,4.42-.63,18.58,18.58,0,0,1,6.09.81Z"/><path class="cls-20" d="M194.18,10.7l-3,12.31,0.09,0A15.94,15.94,0,0,1,198,19.39Z"/><path class="cls-21" d="M194.12,10.58A23.72,23.72,0,0,0,181,20.7L191.21,23l3-12.31Z"/><path class="cls-22" d="M186.12,38.29A17.84,17.84,0,0,1,185.9,36a17.64,17.64,0,0,1,1-6.31l-9.86,3.57h0L186,38.36Z"/><path class="cls-23" d="M186,38.36l-8.93-5.07a28.38,28.38,0,0,0,0,3.75,27.21,27.21,0,0,0,.76,5.62Z"/><path class="cls-24" d="M183.88,54.21L187,41.82l-9.11,1a26.08,26.08,0,0,0,6,11.44h0Z"/><path class="cls-25" d="M213.55,49.31l11.6,0.9h0l-8-4.88A15.85,15.85,0,0,1,213.55,49.31Z"/><path class="cls-26" d="M228.47,42.32l-11.24,3,0,0,8,4.88A28.45,28.45,0,0,0,228.47,42.32Z"/><path d="M229.64,40.09a4.49,4.49,0,0,1,4.54-4.39,4.38,4.38,0,0,1,4.25,4.39V76.17H258c7.06,0,7.2,9.43,0,9.43H234.18a4.35,4.35,0,0,1-4.54-4.39V40.09Z"/><path d="M10.15,159.09a5.08,5.08,0,0,1-2.3-6.91l20.67-40.4c1.94-3.82,7.13-4,8.93,0l20.31,40.4c3,5.62-5.76,10.08-8.35,4.46l-3.17-6.34H19.65l-3.1,6.34C15.41,159.09,12.74,159.6,10.15,159.09Zm31-18.29L33,123,24.12,140.8h17Z"/><path d="M57.23,142.3c0-2.59.58-5.11,4.32-5.11,2.59,0,3.17.65,5.11,2.52l23.83,29.81V141.58c0-2.38,2.09-5,4.54-5a5.48,5.48,0,0,1,5.11,5v40.54a4.81,4.81,0,0,1-3.82,5c-2.52,0-3.74-.58-5.83-2.52L66.66,154.33v27.79c0,3.17-1.94,5-4.54,5a4.74,4.74,0,0,1-4.9-5V142.3Z"/><path d="M140.64,153.55a27.27,27.27,0,0,1-17.71,6c-15.12,0-25.85-8.64-25.85-25.78,0-14.54,11.3-25.85,26.5-25.85A23.59,23.59,0,0,1,140,114.3c4.39,4.32-1.94,10.73-6.26,6.91a15.21,15.21,0,0,0-10.15-4.54,17.17,17.17,0,0,0-17.14,17.14c0,10.66,7.06,17.14,16.49,17.14a18.32,18.32,0,0,0,10.8-3.24v-8.86h-10.8c-6.41,0-5.76-8.78,0-8.78h14.4c2.66,0,5.11,2,5.11,4.25v15.34A5.81,5.81,0,0,1,140.64,153.55Z"/><path d="M145.54,185.09a4.4,4.4,0,0,1-4.46-4.46v-40.9a4.35,4.35,0,0,1,4.46-4.46h25.85a4.69,4.69,0,1,1,0,9.36H150.66v10.8H168.8c6.41,0,6.41,9.43,0,9.43H150.66v10.8h22c6.55,0,7.06,9.43,0,9.43H145.54Z"/><path d="M175.65,113.58a4.49,4.49,0,0,1,4.54-4.39,4.38,4.38,0,0,1,4.25,4.39v36.08H204c7.06,0,7.2,9.43,0,9.43H180.19a4.35,4.35,0,0,1-4.54-4.39V113.58Z"/><path d="M206.78,146.06c1.66-14,22.75-16.49,32.69-8.86,4.9,4-.29,10.22-4.61,7.06-5.33-3.38-17.43-5-18.94,2.52-1.94,11.81,29.38,5,28.87,24.19-0.5,18.29-27,18.72-36.94,10.51a5.33,5.33,0,0,1-1-7.06c1.87-1.87,4-2.52,6.41-.5,5.9,4,21.1,7.06,22.18-3.17C234.51,160.11,204.55,166.52,206.78,146.06Z"/></svg>