<svg id="Layer_1" data-name="Layer 1" xmlns="http://www.w3.org/2000/svg" viewBox="0 0 394 268.67"><defs><style>.cls-1{fill:#a09cd6;}.cls-2{fill:#ef3c73;}.cls-3{fill:#d88fbe;}.cls-4{fill:#c63d4f;}.cls-5{fill:#fcba64;}.cls-6{fill:#f58c65;}.cls-7{fill:#f25161;}.cls-8{fill:#fcba27;}.cls-9{fill:#b7d3a0;}.cls-10{fill:#eef5c1;}.cls-11{fill:#7ad6b1;}.cls-12{fill:#21b688;}.cls-13{fill:#c4e1b3;}.cls-14{fill:#75cbac;}.cls-15{fill:#feaa2e;}.cls-16{fill:#dd2330;}.cls-17{fill:#ae93d8;}.cls-18{fill:#e095fc;}.cls-19{fill:#00aae1;}.cls-20{fill:#f476a0;}.cls-21{fill:#f8d84c;}.cls-22{fill:#f8725f;}.cls-23{fill:#f46b3a;}.cls-24{fill:#fde399;}.cls-25{fill:#f1f2f2;}</style></defs><title>map</title><path class="cls-1" d="M370.37,135.72c-1.49,0-3.09.26-3.49,0.89-0.53.82-.37,1.85-1,1.59s-2.14-1-1.67.29,0.85,3,.24,3.46a5.09,5.09,0,0,0-1.8,1.59c-0.45.85-.13,1.69-1,1.87s-3.25-.05-3.49.5-0.66,1.67-1.08,1.5-1.16-.24-1.14.34-0.26,6-1.11,7.37-1.64,3.52-.74,3.17,3.06-1.38,2.3.74c-0.38,1-1,2-1.35,3a1.73,1.73,0,0,0,0,1.16c0.07,0.18.31,0.34,0.35,0.5a1.16,1.16,0,0,1-.41.7l-0.26.3a4.67,4.67,0,0,0-.46.8,2.9,2.9,0,0,1-.66.7,1.82,1.82,0,0,1-.63.51c-0.29.11-.43,0-0.48-0.31a2.58,2.58,0,0,1,0-.41,5,5,0,0,0-.12-0.54,0.74,0.74,0,0,0-.07-0.35,0.94,0.94,0,0,0-.6-0.22c-0.19-.06-0.22-0.29-0.37-0.32-0.31-.06-0.16.29-0.14,0.42,0.11,0.68-.83.56-1.23,0.58-0.24,0-.5,0-0.74.09s-0.3.16-.46,0.18a0.68,0.68,0,0,1-.47-0.35,0.81,0.81,0,0,0-1.27,0,3.43,3.43,0,0,0-.35.6,1.13,1.13,0,0,1-.6.41,3.57,3.57,0,0,0-1.16.07,1.66,1.66,0,0,1-1,.35c-0.4,0-.76-0.17-1.16-0.14a4.61,4.61,0,0,0-.87.13c-1.09.31-1.85,1.46-2.48,2.32a4.37,4.37,0,0,1-1,1.13,2.71,2.71,0,0,0-1.08,1,0.63,0.63,0,0,0,0,.42,1.1,1.1,0,0,1-.16.72,5.76,5.76,0,0,1-.53.69c-0.22.27-.41,0.55-0.6,0.84-0.07.09-.35,0.51-0.52,0.37a1.79,1.79,0,0,1,.18-0.74,0.54,0.54,0,0,0-.11-0.6,1.52,1.52,0,0,0-.46-0.25,3.21,3.21,0,0,0-1-.44,0.86,0.86,0,0,0-.75.37,5.89,5.89,0,0,1-1.07,1,13.09,13.09,0,0,1-1.39.9,3.24,3.24,0,0,1-.83.37,2.39,2.39,0,0,0-.81.34l-0.12.09a2.93,2.93,0,0,1,1.37-3.47c0.71-.49.21-1.41,0.25-2s-0.85-1.09-1.3-1.3a3.19,3.19,0,0,1-1.13-1.94c-0.14-.74-2.39-1.41-3-1.55s0.18-1.3.92-2,0.35-1.48.21-2.26,1.44-.74,2-0.53,0.81-.67,1.13-1.06a2.94,2.94,0,0,1,1.62-.49c0.63-.14.18-1.76,0.21-2.5s-1.76-1.16-2.5-1.48-0.85-1.23-1.06-2.11-0.63-.88-1.34-1.16-1.34.32-1.9,0.85-0.71-.11-1.3-0.88a2.51,2.51,0,0,0-2-.67c-0.49-.07-0.85-1-1-1.8s-1.48-.92-1.94-1.16-0.78-1.52-1-2.47a1,1,0,0,0-1.16-.88,0.16,0.16,0,0,1-.13-0.07,2.9,2.9,0,0,1,.51-2.11c0.49-.74-0.17-1-0.63-1.3s-0.14-.78.18-1.45,0-1,0-1.62,1.62-.78,2-1a1.49,1.49,0,0,1,1.59.56c0.46,0.49,1.73-1.16,2.36-1.34s0-1.16-.21-1.69a5.34,5.34,0,0,1,.78-3.28c0.53-.67-1.3-2.11-2.11-2.43s-0.74-3.17-.74-4.23a6.84,6.84,0,0,1,.92-3.17c0.6-1.2-1.06-1.73-2.18-2.22-1-.42-1,0.28-1.94.86a6.38,6.38,0,0,1,.26-2,2.18,2.18,0,0,0-.13-2c-0.38-.58-0.6-2,0.32-1.86s1.47,0.4,1.87-.34,0.87-1.43,1.36-1.26,3.22,2,3,1.24-0.37-3.08.83-2.79,1.45,0.74,1.61.42a6.76,6.76,0,0,0,1.39-1.82c0.26-.87.44-3.74,1.07-3.74s1.18,0,1.15-.46a1,1,0,0,1,.71-1.33c0.81-.17,1,0.29,1.57-0.49s3.25-3.07,2.89-3.59-1-1.57-.54-2.06,0.36-1.24,1-.85,2.51,2.1,2.89,1.64a10.39,10.39,0,0,0,.94-2c0.21,0,.51-0.14.67-0.15s0.46,0.23.69,1.11a1.83,1.83,0,0,0,1,1.24c0.33,0.26,1.09-.67,1.89-1s0.49,1.39.36,2.09a3.35,3.35,0,0,0,.76,2c0.35,0.63-.46,1.11-1,1.59s0.63,1.48,1.16,2,1.16,0.37,1.92.2,2.52,2.09,2.63,2.74a6.81,6.81,0,0,0,1.37,2.68c0.62,0.67-1.28,2-1.65,2.45s0.12,2,.53,2.41,0.83,1.78,1.29,2.54,1.39,0.6,3,1,1.48,2.91,1.62,4.14,0.88,0.86,1.78,1.18,1.6,1.74,2.18,2.52a6.84,6.84,0,0,0,2.93,1.69c1,0.33,1.81,1.9,2.48,2.36s1.39,0.19,2.48.11S370.37,135.72,370.37,135.72Z"/><path class="cls-2" d="M386,91.13c-0.5.29-.48,0.55-1,0.5s-0.08-.32-0.93.16-1.93.79-2.14,2.11,1,0.85-.9,2.06-2.4,1.22-3,.92-0.85.27-1,.58-0.55,1.14,0,1.43,1.45,0.53,1.64,1,0.79,1.77,1.48,1.77,4.57,0.4,4.36,1.08-0.16,1.72-.74,1.64-3.33-1.16-3.73-.4-1.16,1.09-1.19,1.69,0,5.81.55,6.18,3.38,0,3.41,1.32-0.16,1.9.61,2.78a4.12,4.12,0,0,1,1,2.06c0.16,0.56.27,3.25-.45,3.81s0.05,1.24.32,1.8,1.27,5.18.61,5.28-2.09.32-1.8,1.14,0.32,2.33,1,3.28,1.08,1.32.74,1.85-0.69,1.4-1.48.85-1.93-1.24-2.75-1-2.9,1.35-3.35,1-0.5-1.35-1.66-1a11.22,11.22,0,0,1-3.94.58c-0.38,0-.8,0-1.23,0,0,0-2.24-3.94-3.33-3.85s-1.82.35-2.48-.11-1.53-2-2.48-2.36a6.84,6.84,0,0,1-2.93-1.69c-0.58-.78-1.29-2.2-2.18-2.52s-1.64.05-1.78-1.18,0-3.77-1.62-4.14-2.59-.21-3-1-0.88-2.08-1.29-2.54-0.9-2-.53-2.41,2.27-1.78,1.65-2.45a6.81,6.81,0,0,1-1.37-2.68c-0.11-.65-1.87-2.92-2.63-2.74s-1.39.35-1.92-.2-1.69-1.55-1.16-2,1.34-1,1-1.59a3.35,3.35,0,0,1-.76-2c0.12-.7.44-2.38-0.36-2.09s-1.56,1.22-1.89,1a1.83,1.83,0,0,1-1-1.24c-0.23-.88-0.42-1.13-0.69-1.11s-0.45.14-.67,0.15a0.23,0.23,0,0,1-.27-0.23c0-.46-0.79-0.93-0.18-1.24s2-1.18,1.71-1.69,0.12-2.06-.67-1.76-1.16.65-1.09,0a3.33,3.33,0,0,0-.05-2.08c-0.37-.65-1.11-1.52-0.42-1.62s2.85-.47,2.29-1.74-1.66-3-1.3-3.59,1.16-.6.63-1.41S338.45,80,339,79.41s1.53-.76,1-1.43a1.6,1.6,0,0,1-.07-2.06c0.51-.67,1-0.5,1-1.42,0.65-.26,1.73-0.83,1.57-1.84s-1.35-4-.32-3.81,1.9-.55,2.22.34,0.11,2.38.74,2,1.16-1.09,1.4-.77a1.3,1.3,0,0,0,1.53.56c0.92-.21,3.46-1,3.73-0.71s0.92,0.18.63,1.14-1,1.53.07,1.85,1.8,0.9,2.15.34,0.16-1.16,1.08-.82,1.29-.29,1.61.42,0.5,1.35,1.35,1.43,3,0.58,2.91-.13,0.18-2.09.69-2,1.14,0,1.22,1-0.26,1.42.58,2.17,1.16,1.43,2.7,1.32,2.62-1.48,3.65-.58,1.08,3.15,1.93,2.91,1.8-.9,2.19-0.19,0.82,1.69,1.82,1.56,1.56,0.47,2.19-.53a11,11,0,0,1,2.22-2.54,21.39,21.39,0,0,1,2.48.26,12.05,12.05,0,0,1,.63,1.32c0,0.16-2.11,2.38-2.14,2.59a5.81,5.81,0,0,0,.71,2c0.34,0.48,1.77,2.11,1.72,2.88s-0.45,3.78.32,3.78S386.49,90.84,386,91.13Z"/><path class="cls-3" d="M340,75.92A1.6,1.6,0,0,0,340,78c0.49,0.67-.49.85-1,1.43s0,1.3.53,2.11-0.28.85-.63,1.41,0.74,2.33,1.3,3.59-1.6,1.64-2.29,1.74,0.05,1,.42,1.62a3.33,3.33,0,0,1,.05,2.08c-0.07.68,0.3,0.34,1.09,0s0.42,1.25.67,1.76-1.09,1.39-1.71,1.69,0.14,0.78.18,1.24a0.23,0.23,0,0,0,.27.23,10.39,10.39,0,0,1-.94,2c-0.38.46-2.26-1.24-2.89-1.64s-0.57.36-1,.85,0.19,1.53.54,2.06-2.33,2.81-2.89,3.59-0.77.32-1.57,0.49a1,1,0,0,0-.71,1.33c0,0.49-.52.46-1.15,0.46s-0.81,2.87-1.07,3.74a6.76,6.76,0,0,1-1.39,1.82c-0.16.32-.41-0.13-1.61-0.42s-1.07,2-.83,2.79-2.5-1.07-3-1.24-1,.52-1.36,1.26-1,.44-1.87.34-0.71,1.28-.32,1.86a2.18,2.18,0,0,1,.13,2,6.38,6.38,0,0,0-.26,2,3.2,3.2,0,0,1-.56.3c-1.44.6-3.73-1.09-4.51-1.55s-0.85,1.59-1.44,3.1-2.19.81-2.92,0.39-0.15-1.72,0-2.85-2-2.22-2.46-2.54a1.08,1.08,0,0,1-.28-1.44c0.25-.7-2.4-2.11-2.92-2.43s-0.39-1.34-.39-2.08-0.35-1.09-1.23-1.52-2.57.92-3.66,1.55-1.9.25-3.1-.42-2.61.39-4.16,0-4.12-2.85-5.36-3.91c-0.91-.78-3.56-0.77-5-0.56a7,7,0,0,0-1.08-2.35c-0.58-.53-0.49-2.22.4-2.25s2.31,0.55,3,0A3,3,0,0,1,283,100.5c0.83,0.09,1.16.4,1.43-.3s1.44-1.67.76-2.33-1.55-1.43-1.41-2.26,0.58-2.31,1.46-1.9,2,1.22,2.1.49a8.12,8.12,0,0,1,.11-1.83c0.19-.49.83-1,0.18-1.41s-1.69-.53-1.8-1.16a1.19,1.19,0,0,0-.62-1.14c-0.42-.16-3.72-1.08-3.84-2.24s0.12-3-1.11-3.15-2.7-.26-3.15-0.79,0-1-.92-1.08a3.26,3.26,0,0,1-2-.63c-0.63-.49-1.46-0.37-1-1.07S275.61,78,274.94,77c-0.52-.78-1.41-1.63-1.4-2.31a0.69,0.69,0,0,1,.28-0.55c0.85-.71,2-2,3.19-2.45s2.36-.11,3.07-1.13,2.63-4.16,3.31-4,1.09-.49,1.25.23-0.19,1.62.63,1.43,4.7-.24,3.88-2.86a0.5,0.5,0,0,0,.44-0.31c0.34-.79.34-1.53,1.56-1.56s4.26,0.11,4.86-.27,1.43-1.06,2.22-.42,2.72,3.86,3.73,3.73,4-.56,4.31-0.18-0.16.9,1,.79,3.36-.08,4-0.53a1.5,1.5,0,0,0,.63-1.56,0.75,0.75,0,0,1,.79-1c0.74,0,1.82.58,2-.13s0.13-1.66,1-1.32,2.43,0.71,3,.11,4.6-4.52,5.23-4.39,1.14-.29,1.37.63-0.58,2.35.29,2.75,2,0.58,2.06,1.35a5,5,0,0,0,1.21,2.88c0.79,0.9,2.51,1,2.83,1.85s-0.16,1.19.9,1.69,2.54,0.45,3.88,1.69,3.89,3.62,4.52,3.38l0.09,0C341,75.42,340.48,75.25,340,75.92Z"/><path class="cls-4" d="M285.27,68.17c-0.83.19-.48-0.7-0.63-1.43s-0.56-.11-1.25-0.23-2.61,3-3.31,4-1.83.72-3.07,1.13-2.34,1.74-3.19,2.45a0.69,0.69,0,0,0-.28.55c-0.09,0-1.93-1-2.86-1.36s-2.34,1.32-2.87,2-1.13-.07-1.62-0.49,0.25-1.06.83-1.67,0.21-.41.11-1.32-3-2.13-3.77-2.27-0.49-1.41-.25-2.2-2-.7-2.71-1-0.63-1.59-.69-2.73-1-.63-1.94-0.3-0.57,1.32-1.07,2a2.88,2.88,0,0,1-2.22.71c-0.69,0-1-1.46-1.59-2.27s-0.83.25-1.48,0.79,0.37,1.2.62,1.78-7.52-.14-9.34-0.19a5.18,5.18,0,0,1-3.51-1.67c-0.9-.72-1.53.85-2.08,1.27s-1.73-.29-1.73-0.29,0.67-7.69.63-9.12a4.24,4.24,0,0,1,1.32-3c0.6-.75-0.75-1.37-1.4-1.84s-1.2-.85-0.89-1.65-0.3-.38-1.92-0.76-1.49-1.29-2.09-2.36,0.81-1.67,1.47-2.09,0.45-4,.45-4.87,0.28-.46.92-0.85,0.37-1.11.07-2.3,0.3-2.77,1.15-4.32-0.66-1.39-1.23-1.52-0.28-2-.15-3-1.53-1.55-1.53-3.54,2.85-3.42,4.2-4.23,0.83-1,.65-1.8,1.19-1.37,1.85-1.62,0.44-.7.59-1.26,0.38-.49-0.44-1.23-1.69.08-2,.25-0.41-.71-0.18-1.18a4.09,4.09,0,0,0,.11-1.9c0-.94.29-0.57,1-1.16s-0.4-.89-0.72-1.5a1.13,1.13,0,0,1,.17-1.3,3.17,3.17,0,0,0,.22-0.79,0.85,0.85,0,0,0,.23-0.07c0.9-.4,2.06-0.61,1.8.08s-0.34,2,.66,1.48,4-3,4.78-2.67,1.9,0.59,2,1.11a2,2,0,0,0,1.32,1.22,1.86,1.86,0,0,1,1.19,1.16c0.47,0.82,2.38,1.59,2.56,2.7s0.66,2.54.42,3.07a2,2,0,0,0,.42,2c0.53,0.5,2.72,2.09,2.83,2.67s-0.24,1.3.68,1.67a8.67,8.67,0,0,1,2.7,1.9c0.13,0.32,1.24,2.46.66,2.77s-1.29,1.48-1.69,1.14-1.11-1-1.35-.66-0.71,1.4-1.4,1.4-2.48.05-1.9,0.69,2,1.08,2.38,1.8,1.88,2.17,1.69,3-0.61,1.24-.32,1.64,0.85,0.71.56,1.06-1.11.63-.53,1.06,1.51,0.66,1.4,1.16,0.21,1.53-.16,1.77a1.55,1.55,0,0,0-.87,1.21A1.11,1.11,0,0,0,259,42c0.9-.24,1-1,2.06-0.93a4.55,4.55,0,0,0,2.33-.11c0.92-.34.53-0.66,1.51-0.66s1.8-.21,1.72.42-0.87,1.66.42,1.69,1.35,0.92,2.41,0,1.11-1.93,2.35-1.93,1.19,0.16,1.93-.37,0.9-1,1.35-.34,1,0.71,1,1.56-0.29,1.45.32,2.17,1.51,1.72,2.22,1.59a3.91,3.91,0,0,1,1.88-.26c0.87,0.16,1.8,1.08,1.14,1.66s-1.61,1.24-1,2,1.67,1.22,1.88,2.43,0.42,2.85,1,3,0.82-.08.82,0.82,0,1.61-.45,1.77-1.85.66-1.24,1.85,0.45,3.3,1.06,3.54,2.09,0.18,2.11.92A1.77,1.77,0,0,0,287,64.47a5.13,5.13,0,0,0,2.12.84C290,67.93,286.09,68,285.27,68.17Z"/><path class="cls-5" d="M239.48,15.37c-0.16.55,0.07,1-.59,1.26s-2,.83-1.85,1.62,0.7,1-.65,1.8-4.2,2.23-4.2,4.23,1.66,2.56,1.53,3.54-0.42,2.85.15,3,2.07,0,1.23,1.52-1.45,3.13-1.15,4.32,0.58,1.92-.07,2.3-0.92,0-.92.85,0.21,4.45-.45,4.87-2.06,1-1.47,2.09,0.48,2,2.09,2.36,2.23-.05,1.92.76,0.24,1.19.89,1.65,2,1.08,1.4,1.84a4.24,4.24,0,0,0-1.32,3c0,1.43-.63,9.12-0.63,9.12s-4.53,5-5.51,5.06a11.15,11.15,0,0,0-3.33.4c-1,.37-2.22,1.37-2.46.87A1.46,1.46,0,0,0,223,70.68c-0.74-.18-1.48-0.87-2-0.26s-0.24,1.27-2,1.69c-1.25.31-1.33,0.66-1.58,0.58a1.57,1.57,0,0,1-.43-0.29c-0.79-.63-4-2-4-2.75s-0.4-2.3.29-2.46,1.37-.13,1.11-0.66,0.08-1.32-.82-1.27-1.4.05-1.45-.42-2.35-2.14-2.62-1.51-0.16,1.51-1.35,1.59a3.61,3.61,0,0,0-2.43,1c-0.34.42-1.21,1.77-2.46,1.93s-4.55.32-5.26-.27a1.79,1.79,0,0,1-.87-1.93,2.15,2.15,0,0,0,.32-1.77c-0.26-.66-1.72-4-2.8-3.83s-1.59.93-3.22,0.79-5.31,0-5-.58,1-.16.82-1.22a2.53,2.53,0,0,0-.84-1.66A1.46,1.46,0,0,1,186,56c0-1,.53-2.3-0.32-2.46s-3.43-.13-2.93-1.82a5.73,5.73,0,0,0,.08-3.67,5.62,5.62,0,0,1-.42-3.16,1.07,1.07,0,0,0,.48-0.12c1.19-.61.92-0.93,1.48-1.45s1.08-.58.42-0.79-1.16.4-.79-0.5,0.87-.48.58-1.29-0.08-1.56-.66-2-0.85-.05-0.79-0.79,0.26-1.06-.26-1.32-0.74.08-.69-0.53,0.26-.4,0-0.82a1.15,1.15,0,0,1-.4-1.22c0.26-.37,1.27-0.87,1.08-1.27s-0.66-1-.13-1.16,0.74,0,.74-0.53a2.69,2.69,0,0,1,.29-1.77c0.42-.61.69-0.58,0.47-1s-0.4-.85.08-1.11,0.88-.32.81-0.66-0.28-1.48.14-1.43,0.71,0.45.85,0-0.08-.87.37-0.87a3.22,3.22,0,0,0,2.88-1.27c1.11-1.4,2.25-4.73,3.59-5a4.29,4.29,0,0,1,3.09.58c0.87,0.48,1.77,1.61,2.41,1.37s1.14-.55.71-1.16-1-2.22-.61-2.56,1.85-.08,2.35.34a3.05,3.05,0,0,0,2.14.9,4.84,4.84,0,0,1,2.27-.32c0.66,0.18,5-.34,5.28.11A1.09,1.09,0,0,0,212,18c1.06-.26,1.93.24,2.67-0.42s1.93-.84,2.46-1.58,1.19-1.88.87-2.35a0.91,0.91,0,0,1,.08-1.19c0.26-.29.89-0.71,0.55-1.22s-1.56-1.45-.55-2,3.89-1.59,4.7-.74,1.43,2.46,2.8,2.22,1.64-1.59,2.56-1.43,1.75,0.42,2.3,0,2.85-1.69,3.2-2.4,0.63-1.66,1.43-1.45,1.74,1.27,2.59,1.15a3.17,3.17,0,0,1-.22.79,1.13,1.13,0,0,0-.17,1.3c0.32,0.62,1.47.91,0.72,1.5s-1.08.23-1,1.16a4.09,4.09,0,0,1-.11,1.9c-0.22.46-.15,1.35,0.18,1.18s1.2-1,2-.25S239.64,14.81,239.48,15.37Z"/><path class="cls-6" d="M174.28,136.17a0.68,0.68,0,0,0-.32.51c-0.14.74-.49,1.67-1.09,1.39s-0.85-1.67-1.15-1-1.09,2.85-1.66,3.13a1,1,0,0,0-.71,1.16c0.1,0.62.33,2.92,0.34,3a0.47,0.47,0,0,0-.32.25c-0.28.53-1.55,1.92-2.5,1.71a1.83,1.83,0,0,0-1.66.51c-0.32.18-.9,1.29-1.44,0.78s-0.92-1.27-1.34-1-4,2.63-4.31,1.87-1.85-3.4-1.85-3.4-3,1.15-2.84,2.43,0.56,2.06-.12,2.34-1.59.77-1.65,0.8-0.05-.23-0.08-0.34a3.26,3.26,0,0,1-.37-1.09c0-.3,0-0.61,0-0.91,0-.54-0.17-1.25-0.86-1.19a3.23,3.23,0,0,1-1.12.18,2.55,2.55,0,0,1-1-.49,3.48,3.48,0,0,0-.92-0.67,4.21,4.21,0,0,0-1.67-.15,2.5,2.5,0,0,0-1.46.22,0.8,0.8,0,0,0-.52.68c0,0.44.21,1.16-.16,1.53s-1.23-.3-1.37-0.75a1.65,1.65,0,0,1,.13-1.08c0.1-.27.32-0.7,0-0.82a1.05,1.05,0,0,0-1.06.55,1.83,1.83,0,0,1-1.08.84,1.05,1.05,0,0,1-.55-1,4.35,4.35,0,0,1,1-1.17,1.08,1.08,0,0,0,.31-1,1.77,1.77,0,0,0-.64-0.25,1.54,1.54,0,0,0-.9,0c-0.37.11-.68,0.35-1.06,0.45a3.39,3.39,0,0,0-.43.1c-0.13.06-.24,0.23-0.35,0.27-0.35.14-.52-0.36-0.65-0.66a1.12,1.12,0,0,0-.84-0.77c-0.37-.05-0.62.33-0.93,0.26s-0.34-.71-0.34-1a1.06,1.06,0,0,0-.4-1c-0.7-.62-1.55-0.36-2.33-0.74s-0.86-1.23-1.18-1.88a2.6,2.6,0,0,0-1.51-1.15,6.28,6.28,0,0,0-2.9-.49,2,2,0,0,1-1.35-.37,2.68,2.68,0,0,1-.93-1.35,1.11,1.11,0,0,0-.87.53,3.88,3.88,0,0,0-.47.67,2.12,2.12,0,0,1-1.3-1.44c-0.05-.93-1.66-4.44-2.33-3.81s-0.92,1.11-1.24.74a1.77,1.77,0,0,0-.41-0.33c1.6-1,2-4.85,2.36-5.86s-0.63-2.54-1.19-3.22-0.13-4.1.13-5.2,0.85-.66,1.45-0.77,0.26-1.14.26-2.09,1.19-.27,1.8-0.11,0.9-.69,1.4-1.06,1.43,0.24,2.06.77,1.27-.34,1.59-0.93,1-.32,1.85-0.32-0.45-1.5-1-2.14,0-1.06.21-1.53-0.4-1.16-1-2,0.08-1.29.24-1.72-1.48-2.3-2.06-2.78a0.89,0.89,0,0,1,.58-1.51c0.74-.08.79-0.77,1.35-1.77a1.66,1.66,0,0,0-.11-2.09c-0.42-.79-0.48-0.77.11-1.82a0.9,0.9,0,0,0,.21-0.83s4.52-.72,5.94-0.84,0.76-.05,1.69-1,3.51,0,4.3.41,1.44-.74,1.69-1.13,2.33,0.16,2.94.51,1.43-.3,1.74-0.54a4.5,4.5,0,0,1,2.4-.26c0.62,0.16,1.64-2,2.54-2s1,1.23.74,2.06,0.81,1.09,1.39,2.08-0.7.07-1.43,2,5.11,3.4,6.27,3.56,1.18-1,1.44-1.74c0.17-.48,1.54-0.15,2.73.26a14.24,14.24,0,0,1,1.57.64c0.9,0.46,1.59,3.91,1.87,5.07s-1.77,1.67-2.26,2.1-0.11.58-.42,1.41,0.76,0.81,1.76.9,2.87,4.28,2.87,4.28c-0.23.21,0.26,0.84,0.3,1.46,0.05,0.77-1.36,1.41-2,2.25s-0.11,1.22.58,1.83,0.44,0.72.28,1.76,0.79,1.36,1.8,1.69,0.71,1.5.77,2.41,1.19,1.67,1.86,2.55,0.35,1,.35,2,1.07,1.62,1.76,2,0.49,1.44.16,2.25S174.24,136.07,174.28,136.17Z"/><path class="cls-7" d="M212.24,80.25c-0.3.81,0.21,1,1.29,1.48s0.07,1.18-.39,1.5a1.89,1.89,0,0,1-1.48.23c-0.81,0-.65,1.52-0.6,2.29s-2.18,1.59-2.94,2.24-1.62-.16-1.9-0.78-0.81-.58-1.74-0.25-3,1-3.43,1.22a1,1,0,0,0-.67,1c0,0.49-.65.58-1.39,1.07s-0.21,1.9-.19,3.07-1.23,3.19-1.71,3.89,0.48,0.74,1,1.22,0.13,0.77-.28,1.34a7.1,7.1,0,0,0-.85,2.7c-0.05.7-2.17,0.62-3.22,0.88s-0.63,1.85-.54,2.59-1.2.65-1.78,1-1.09-.42-1.41-0.93-4.58.65-6.06,1.13-0.92,1-1.18,2.31-4.83-1.13-6.18-1.39-1.32,1.37-1.39,2.08-0.85,0-1.74-.32-1.78,1.9-2.55,2.78-2.1.18-2.94,0.14a0.48,0.48,0,0,0-.33.07s-1.87-4.19-2.87-4.28-2.08-.07-1.76-0.9-0.07-1,.42-1.41,2.55-.93,2.26-2.1-1-4.62-1.87-5.07a14.24,14.24,0,0,0-1.57-.64s1-1.88.43-2.44a2.11,2.11,0,0,1-.92-1.71,2.2,2.2,0,0,1,.63-1.66c0.6-.53,1-1,1.53-0.9s1.29-.05,1.24-0.56-0.07-.53.42-0.53a2.47,2.47,0,0,0,1.69-.51c0.39-.42,1.18-0.86.7-1.94a11.33,11.33,0,0,1-.74-3.22,1.79,1.79,0,0,0-.37-1.53c-0.53-.55-1.36-0.72-1-1.41s2.06-2.06,1.48-3.26-0.79-2.13-1.39-2.52A2.34,2.34,0,0,1,164.78,75c-0.14-.48.4-1.57-0.19-1.83s-1-1-1.3-.67-0.76,1.27-1,.56S161.54,72,162,71.18a5.82,5.82,0,0,0,.79-2.47c0.21-1.22-.07-3.26.28-3.61s1.41-2.36.76-2.76a2.73,2.73,0,0,1-1.55-1.46c-0.35-.92-0.48-0.81-0.25-1.55s1.11-1.73.11-2.59-1.62-.88-1.29-1.94,1.44-2.1.65-2.94-1.15-2-2.06-2.54-1.73-.21-1.89-1.41-0.53-1.57.19-2,1.81-.16,1.76-1a2.34,2.34,0,0,1,.55-2l1.15-1.33c0.56,0.41,1.46,1,1.38.15s-0.13-2.14.58-2a2.41,2.41,0,0,0,2.19-.72c0.45-.61,1.37-1.24,2-0.34s0.82,1.82,1.35,1.77,1.35,0.29,1.69-.32,0.66-2.14,1.48-1.88,1.48,1.08,2.25.53,2-1.48,2.41-.74,1.88,1.85,1.77,2.72a2.74,2.74,0,0,0,1.21,2.43c0.55,0.18,1.76,1.67,2.86,1.65a5.62,5.62,0,0,0,.42,3.16,5.73,5.73,0,0,1-.08,3.67c-0.5,1.69,2.09,1.66,2.93,1.82S186,55,186,56a1.46,1.46,0,0,0,.56,1.43,2.53,2.53,0,0,1,.84,1.66c0.21,1.06-.5.66-0.82,1.22s3.35,0.45,5,.58,2.14-.58,3.22-0.79,2.54,3.17,2.8,3.83a2.15,2.15,0,0,1-.32,1.77,1.79,1.79,0,0,0,.87,1.93c0.71,0.58,4,.42,5.26.27s2.11-1.51,2.46-1.93a3.61,3.61,0,0,1,2.43-1c1.19-.08,1.08-1,1.35-1.59s2.56,1,2.62,1.51,0.55,0.48,1.45.42,0.56,0.74.82,1.27-0.42.5-1.11,0.66-0.29,1.72-.29,2.46,3.17,2.11,4,2.75a1.57,1.57,0,0,0,.43.29s-2.23,2.72-1.22,3.62C216.28,76.31,212.54,79.44,212.24,80.25Z"/><path class="cls-8" d="M167.21,90a2.47,2.47,0,0,1-1.69.51c-0.49,0-.48,0-0.42.53s-0.72.65-1.24,0.56-0.93.37-1.53,0.9a2.2,2.2,0,0,0-.63,1.66,2.11,2.11,0,0,0,.92,1.71c0.56,0.56-.43,2.44-0.43,2.44-1.19-.41-2.56-0.73-2.73-0.26-0.26.74-.28,1.9-1.44,1.74s-7-1.62-6.27-3.56,2-1,1.43-2-1.62-1.25-1.39-2.08,0.16-2-.74-2.06-1.92,2.11-2.54,2a4.5,4.5,0,0,0-2.4.26c-0.32.25-1.13,0.9-1.74,0.54s-2.7-.9-2.94-0.51-0.9,1.57-1.69,1.13-3.37-1.36-4.3-.41-0.26.88-1.69,1-5.94.84-5.94,0.84c-0.17-.29-0.86-0.43-2.32-0.83-2.38-.66-1.56-2.59-1.67-3.44s-0.47-.66-1-0.82a0.67,0.67,0,0,1-.14-1.14c0.32-.37.53-0.74-0.37-1.88s0.85-1,1.43-1.24,0-.42,0-1.19a4.35,4.35,0,0,0-.92-2.27c-0.55-1-.22-1.48.39-2.43s-1.37-.69-2.72-1-0.74-.79-1.16-1.56a7.73,7.73,0,0,0-1.45-1.51,1.8,1.8,0,0,1,0-2.35c0.53-.61-0.48-1.19-0.71-1.9s-1.16-.61-1.9-0.77-0.53-.53-0.42-1.3a0.75,0.75,0,0,0-.48-0.71s3.58-3,2.91-4.1-1.9-3.21-1.18-4.42,1.48-1.92,1-3.17-0.92-3-.42-3.24A1.65,1.65,0,0,0,118,51.91c0.11-1.55.07-2.4,0.63-2.75s1.41-.19,1.15-1-0.62-2.1.05-2.63,1.9-.23,1.8-1.44,0-2.27.53-2.57,0.91,0,1-.9-0.28-2.68,1.93-2.23a0.68,0.68,0,0,0,.1.7c0.48,0.55.9,1.67,1.85,1s1.85-.9,1.77-1.77-0.74-1.43-.42-2.06,1.77-1.11,1.64-.53-0.05,1.43.4,1.19a1.86,1.86,0,0,1,1.64-.4c0.66,0.26,1.37.92,1.43,0s-0.16-.93.37-1.48,2.83-2.22,3.44-1.85-0.5,1.93,0,2,1.32,0.11,1.24.74,0.18,1.43.47,1.43,1,0.74,1.14.08,0.11-1.16.74-1.48a0.89,0.89,0,0,1,1.32.13,1.67,1.67,0,0,0,1.4.74c0.66,0,2-.42,1.77.5s-0.49,3,0,3.09a4,4,0,0,1,1.83,1c0,0.19.61,1.14,0.53,0.16s-0.66-1.77-.13-1.51,1,0.77,1,.05a2.58,2.58,0,0,1,.45-1.9,4.89,4.89,0,0,1,2.17-1.43c0.29,0.08,1.16.69,1.3-.08a2.89,2.89,0,0,1,1.4-1.93c0.45-.05,1.93-0.42,2.11.18s0.13,2.27.77,1.88a0.68,0.68,0,0,1,1,.87,2.53,2.53,0,0,0-.29,1.82c0.24,0.63,1,2.85,1.77,2.75s1.27-1.11,1.75-.74l0.26,0.2L160.08,43a2.34,2.34,0,0,0-.55,2c0.05,0.83-1,.55-1.76,1s-0.35.81-.19,2,1,0.88,1.89,1.41,1.27,1.69,2.06,2.54-0.32,1.89-.65,2.94,0.28,1.07,1.29,1.94,0.12,1.85-.11,2.59-0.11.63,0.25,1.55a2.73,2.73,0,0,0,1.55,1.46c0.65,0.4-.41,2.41-0.76,2.76s-0.07,2.4-.28,3.61a5.82,5.82,0,0,1-.79,2.47c-0.48.78,0.05,1.16,0.28,1.87s0.63-.19,1-0.56,0.71,0.4,1.3.67,0.05,1.36.19,1.83a2.34,2.34,0,0,0,1.16,1.15c0.6,0.39.81,1.32,1.39,2.52s-1.07,2.57-1.48,3.26,0.42,0.86,1,1.41a1.79,1.79,0,0,1,.37,1.53,11.33,11.33,0,0,0,.74,3.22C168.39,89.15,167.6,89.59,167.21,90Z"/><path class="cls-9" d="M122.82,136.68a1.73,1.73,0,0,1-.27.34,2.24,2.24,0,0,1-1.27.33,0.83,0.83,0,0,1-.68,0,2,2,0,0,0-.61-0.69,0.94,0.94,0,0,0-1,.48,3.67,3.67,0,0,1-1.67,1.53,3.83,3.83,0,0,1-2.13.22c-0.35-.1-0.39-0.28-0.72-0.06s-0.35.24-.59,0a8.29,8.29,0,0,1-.47-0.69,1.49,1.49,0,0,0-.53-0.68c-0.49,0-.21.52-0.19,0.74a0.9,0.9,0,0,1-.32,1,3.09,3.09,0,0,1-1.39.37,0.53,0.53,0,0,1-.51-0.38,1.83,1.83,0,0,1-.28-0.37,1.68,1.68,0,0,0-.11-0.47,1.48,1.48,0,0,0-.82-0.37,2.05,2.05,0,0,0-.82,0,6.73,6.73,0,0,1-.69.23c-0.39,0-.77,0-1.15.1a1.05,1.05,0,0,0-.69.32,0.56,0.56,0,0,0,.19.93c0.44,0.23.95,0.34,1.37,0.6,0.17,0.1.33,0.24,0.49,0.35a0.51,0.51,0,0,1,.29.31c0.12,0.6-.91.62-1.24,0.46a3.51,3.51,0,0,0-1.3-.59,1.3,1.3,0,0,0-.92.34,1.75,1.75,0,0,0-.23.9,2.85,2.85,0,0,1-.91.86,7.84,7.84,0,0,1-1.53.85,4.92,4.92,0,0,1-1.27.46c-0.39.06-.77,0.07-1.16,0.15a6.86,6.86,0,0,0-2.24.32,2.91,2.91,0,0,0-1,2.09c-0.14.53-.45,1-0.62,1.56-0.08.26-.11,0.52-0.18,0.79s-0.25.52-.35,0.79a8.46,8.46,0,0,1-.34.94,0.71,0.71,0,0,1-.71.51,10.32,10.32,0,0,0-2.39.21,3.53,3.53,0,0,0-.77.56,1.46,1.46,0,0,1-1,.34,7.22,7.22,0,0,1-1.3-.19,2.65,2.65,0,0,0-1.13.11,9.53,9.53,0,0,1-2.61.93,9.24,9.24,0,0,1-1.67-.27c-0.74-.09-1.25.63-2,0.64s-1.53,0-2.3,0a1.35,1.35,0,0,0-1,.22,1.49,1.49,0,0,1-.93.34,4.6,4.6,0,0,0-.84-0.12,1.21,1.21,0,0,0-.88.47,1,1,0,0,1-.32.69,5.65,5.65,0,0,1-1.45.22,5,5,0,0,0-1.8,1.53,2.17,2.17,0,0,1-1,.71c-0.38.08-.76,0.13-1.13,0.25a1.7,1.7,0,0,0-.74.61,1.65,1.65,0,0,1-1,.5,4.19,4.19,0,0,1-1.21.13,1.24,1.24,0,0,1-.55-0.16,1.32,1.32,0,0,1-.16-0.71,2.62,2.62,0,0,0-.32-0.7c-0.07-.11-0.14-0.22-0.22-0.33s0.93-1,.74-1.49a2.47,2.47,0,0,1-.36-1.34c0.06-.6.27-1.34-0.45-1.66s-0.81-.39-0.69-0.86a24.72,24.72,0,0,0,.74-3.22c0.05-.83.05-1.44,0.37-1.32s1.13,0.78,1,0-0.19-.92.44-1.13,1.57-.11,2.06-0.72,2.1-2.71,2.64-3.63,1.48-2.73,2.2-2.91,5.5-.88,6-1.46,1.32-2.57.85-3.08-1.9-1.73-1.22-2.62A10,10,0,0,1,82,129.86a1,1,0,0,0,.9.18,1.09,1.09,0,0,1,.91.55c0.49,0.42.81-.16,1.41-0.5s1.34,1.36,2,1.81,1.82-.65,2.81-1.06,1.4,1.94,1.93,2.52,0.46-.78.59-1.73,1,1.61,1.28,2.11,0.79,0.3,1.61.35a1.2,1.2,0,0,1,.47.11,2.69,2.69,0,0,1,.59.91c0.42,0.61,1.47-.37,2.92-0.87s2.27,1.74,3,2.63,0.15-.73,0-1.21,0.44,0,1.49.34-0.57-1.29-1-1.84,1.42-.22,2.43.07,1-.29,1.32-1.56,0.85,0.82,1.22,1.34,1.24-.23,1.69-0.52a3.47,3.47,0,0,1,2.06.16,4.13,4.13,0,0,0,2-.51c0.85-.29,2,0.5,2.64.66s0.45-1.32.32-2c-0.1-.46.47-0.28,0.91,0a1.77,1.77,0,0,1,.41.33c0.32,0.37.58-.11,1.24-0.74s2.27,2.88,2.33,3.81A2.12,2.12,0,0,0,122.82,136.68Z"/><path class="cls-10" d="M82,129.67a0.38,0.38,0,0,0,0,.19,10,10,0,0,0-2.14,1.82c-0.69.9,0.74,2.11,1.22,2.62s-0.3,2.5-.85,3.08-5.32,1.29-6,1.46-1.66,2-2.2,2.91-2.15,3-2.64,3.63-1.43.51-2.06,0.72-0.58.33-.44,1.13-0.67.14-1,0-0.32.49-.37,1.32a24.72,24.72,0,0,1-.74,3.22c-0.12.48,0,.55,0.69,0.86s0.51,1.06.45,1.66a2.47,2.47,0,0,0,.36,1.34c0.19,0.51-.74,1.49-0.74,1.49a3.63,3.63,0,0,0-.89-0.85,3.54,3.54,0,0,0-1.31-.66c-0.3,0-.6,0-0.9-0.07-0.83-.21-1.15-1.22-1.47-1.91a5,5,0,0,1-.46-1,1.88,1.88,0,0,0-.36-0.79,1.77,1.77,0,0,0-.58-0.66,2.58,2.58,0,0,0-.67-0.06,5.59,5.59,0,0,0-.72-0.08,8.44,8.44,0,0,1,.35-2.51c0.37-1-1.15-2.1-1.57-2.8s0.23-1.57.46-2.25-1-2.68-2.15-3.9-0.28-1.23-.91-2.15-1.32-.11-1.71.18-1,.05-1.74-0.18-0.42-.14-0.35-0.92-0.42-.79-0.93-1.71-0.09-1.34.07-2.08-0.74-.67-1.3-0.58-1.39,1.71-1.76,2.24-0.78-.05-1.55-0.35-0.44-.42.07-1.09-0.63-1.48-1.37-2a3.23,3.23,0,0,1-1.34-1.83c-0.42-1-1-.76-1.92-1.25a6.68,6.68,0,0,1-2-1.2,1.74,1.74,0,0,0-1-.59h0c0-.1.84-3.6,0.62-4.86s-0.07-3.33.81-3.63,1.64-.21,1.76-1.15-0.05-3,1.23-2.78,3.33,0.84,3.77,0-0.11-1.4,1.09-1.31,4.7,0.83,5.67-.14,1.69-1.46,2.22-1.37a1.81,1.81,0,0,0,1.69-.35c0.46-.49,1-0.86.53-1.29S56.4,108,56,107.45s-1.34-.92-0.63-1.18,1.43,0.14,1.55-1,0.46-5.11,1-5,1.16,0.79,1.83.7,1.11-.53,1.46-0.11,1.05,1.05,1.75.14a9.1,9.1,0,0,0,.78,3.58,5,5,0,0,0,1,1.88c0.37,0.28.24,0.77,0.59,1.26a2.47,2.47,0,0,1,.57,1.63,2.14,2.14,0,0,0,.42,1.29c0.22,0.46-.18,1.44-0.28,2.26s1,1.55,1.24,1.88-0.61.87-.92,1.15a0.71,0.71,0,0,0,0,1.08,3.29,3.29,0,0,0,1.61.87c0.56,0.19.56,1.69,0.67,2.18s0.81-.47,1.31-0.59,0.73,0.59.79,0.85a1.75,1.75,0,0,0,1,.37c0.4,0.15.18,1.51,0.53,2s0.33-.36.46-0.9,0.6-.3,1,0.09a1.55,1.55,0,0,1,0,1.54c-0.13.54,0.38,0,.73-0.2s0.53,0.41.85,1.07-0.42.44-.94,0.46-0.53.28-.34,0.78,0.34-.17.69-0.49,0.23,0,.69.5,0.74-1.07.75-1.52,0.34-.08.94,0.32,0.62-.32.74-0.71,0.87,1,1,1.25a10.28,10.28,0,0,1,1.22.83,1.75,1.75,0,0,0,1.08.73c0.56,0.16.16,0.46,0.13,0.75a2.32,2.32,0,0,0,.71,1.37C82.46,128.91,82.15,129.22,82,129.67Z"/><path class="cls-11" d="M58.51,148.56a8.44,8.44,0,0,0-.35,2.51,10.24,10.24,0,0,0-1.6.06,10.21,10.21,0,0,1-1.46.18,5.26,5.26,0,0,0-1.62.37,8,8,0,0,0-1.63.53c-0.61.32-1.78,0.72-2.32,0.07a3.68,3.68,0,0,0-.26-0.47,2.26,2.26,0,0,0-.54-0.18,1.69,1.69,0,0,1-.5-0.4c-0.15-.15-0.36-0.24-0.51-0.4a1.34,1.34,0,0,0-1.4-.65c-0.25.07-.44,0.21-0.71,0.26s-0.5.29-.77,0.36-0.35-.33-0.63-0.46a1.29,1.29,0,0,0-.76.07c-0.7.1-.58-0.92-0.77-1.31a0.79,0.79,0,0,0-.76-0.38,6.63,6.63,0,0,0-.83.26,1.72,1.72,0,0,1-1-.08,1.47,1.47,0,0,0-.77-0.28c-0.65,0-1.19.59-1.82,0.69a3.47,3.47,0,0,1-1.87-.32,12,12,0,0,1-2-1,4.9,4.9,0,0,0-1-.54,1.76,1.76,0,0,1-1-.6,3.6,3.6,0,0,1-.36-1.33,1.05,1.05,0,0,0-.93-0.83,3,3,0,0,0-1.13.18,2.09,2.09,0,0,0-.9-0.21,2.45,2.45,0,0,0-.58,1,2.43,2.43,0,0,1-.63.79,6.86,6.86,0,0,0-.61.82,1.15,1.15,0,0,1-1,.58c-0.13,0-.23-0.18-0.37-0.23s-0.48-.13-0.72-0.22a0.94,0.94,0,0,0-1-.13,3.71,3.71,0,0,0-.5.84A6.32,6.32,0,0,1,21.15,147l-0.55-3s-3.41.85-3.83,0-1.3-3.57-2.09-4.12-3.09-1.66-3.2-2.38,0.16-1.4-.45-1.9-0.77-.55-0.74-0.9-0.05-1.56-.68-1.35-2.33.56-2.19,0,0.48-5,1.19-5.71,2-2.14,2.3-2a1.26,1.26,0,0,0,1.22,0,1.41,1.41,0,0,0,.45-1,1.32,1.32,0,0,1,.34-1.06,2,2,0,0,0,.79-1.4c0-.79-0.37-2.67-0.11-3.22s1.66-1.43,1.72-1.75a2.81,2.81,0,0,1,.66-1.9c0.61-.42,1.45-0.74,1.64-1.29s0.4-1.56,1-1.29A48.65,48.65,0,0,0,23,115.16h0a6.56,6.56,0,0,1,.68,2.52c-0.14.76-.41,1.22,0.55,1.87s1.45,2,1.87,1.55,0.58-1.18,1.59-.69,2.73,0.42,2.36,1.25-0.4,2.27.88,2.34,3.58,0,4.05.6a3.74,3.74,0,0,0,1.87,1.48,4.66,4.66,0,0,1,.67,0h0a1.74,1.74,0,0,1,1,.59,6.68,6.68,0,0,0,2,1.2c0.88,0.49,1.5.28,1.92,1.25A3.23,3.23,0,0,0,43.75,131c0.74,0.48,1.88,1.29,1.37,2s-0.85.79-.07,1.09,1.18,0.88,1.55.35,1.2-2.15,1.76-2.24,1.46-.16,1.3.58-0.58,1.16-.07,2.08,1,0.93.93,1.71-0.42.69,0.35,0.92,1.36,0.46,1.74.18,1.07-1.09,1.71-.18-0.19.93,0.91,2.15,2.38,3.22,2.15,3.9-0.88,1.54-.46,2.25S58.88,147.59,58.51,148.56Z"/><path class="cls-12" d="M76.63,89.68a1.07,1.07,0,0,0-1,1.24c0.13,0.46-.91.54-1.37,0.55a3,3,0,0,1-1.39-.58c-0.74-.37-0.75.05-1.31,0.28s0.15,0.7.25,1.28a3.33,3.33,0,0,1-.63,1.78c-0.23.42-.79,0.08-1.77,0s-0.71,1.7-.61,2.37-0.74.52-1.49,0.56-0.67.59-1.31,1.4-1.31.34-2,.33-0.58.63-1,1.67A1.65,1.65,0,0,0,63,101c-0.7.91-1.4,0.28-1.75-.14s-0.79,0-1.46.11-1.25-.6-1.83-0.7-0.92,3.84-1,5-0.85.76-1.55,1,0.21,0.65.63,1.18,0.42,1.36.88,1.78-0.07.79-.53,1.29a1.81,1.81,0,0,1-1.69.35c-0.53-.09-1.25.41-2.22,1.37s-4.48.23-5.67,0.14-0.65.46-1.09,1.31-2.48.19-3.77,0-1.11,1.85-1.23,2.78-0.88.85-1.76,1.15-1,2.34-.81,3.63-0.59,4.76-.62,4.86a4.66,4.66,0,0,0-.67,0,3.74,3.74,0,0,1-1.87-1.48c-0.48-.62-2.77-0.53-4.05-0.6s-1.25-1.52-.88-2.34-1.36-.76-2.36-1.25-1.16.28-1.59,0.69-0.92-.9-1.87-1.55-0.69-1.11-.55-1.87a6.56,6.56,0,0,0-.68-2.52,0.75,0.75,0,0,0,.57.07c0.56-.37,1.35-1.37.9-1.75s-3.07-2.22-2.88-2.72,0.61-.74.11-0.9-0.63.11-.53-0.4a2.56,2.56,0,0,0,0-1.43,24.73,24.73,0,0,1,.13-5.74c0.29-.56.66-1.61,0.4-1.93S20.25,99.27,20.41,99s1-.34,1-1.11-0.19-1.35.4-1.85a38.48,38.48,0,0,0,4.07-4C27,90.58,32.35,84,33.33,83s8-7.79,9.07-9.27,1.61-2.33,2.17-2.35,3.59,0.13,4.47-.9,2.88-4.57,2-6.08L50.77,64a5.46,5.46,0,0,1,2.88.42c1,0.63,1.93,1.56,2.4,1.48a4.55,4.55,0,0,1,1.77,0c0.58,0.15,1.22.26,1.22,0.6s-0.18.85,0.37,1,1.8,1.06,1.29,1.06-1,.26-0.66.71,0.87,0.92.34,1.37-0.9.21-.24,0.82a2.1,2.1,0,0,0,1.74.61c0.63,0,2.14.11,2.14,0.61A1.45,1.45,0,0,0,66,74c1.35-.4,1.74-1.32,2.64-0.5s2.62,2.32,4.06,2.34h0a6.65,6.65,0,0,0-.14.87,1.39,1.39,0,0,0,.81,1.63c0.75,0.58.48,3.74,0.58,4.45s1.29,0.54,1.78.69,0.37,0.57.57,1.18a3.67,3.67,0,0,0,.34.65,31.31,31.31,0,0,0,2.3,3.13C79.79,89.47,77.32,89.69,76.63,89.68Z"/><path class="cls-13" d="M90.24,51.65a2.94,2.94,0,0,0,.83,2.67c0.56,0.59.25,2.56,0.28,3.62S89.51,59.2,89,59.61s-0.25,3.73-.48,4.72-1.43.66-2.41,0.48-0.72-1.06-1.35-1.66-3.86,1.35-4.39,1.57a2,2,0,0,1-2-.44c-0.66-.53-1.6.65-2,1.14s-0.19,1.61-.25,2.37-1.48-.36-2.09-0.63-0.61.11-.93,0.55-0.08.71,0.22,1.48-0.08.42-.45,1,1.24,2.31,1.78,3-0.78.87-1.3,1.45a4.27,4.27,0,0,0-.66,1.3c-1.44,0-3.16-1.52-4.06-2.34S67.31,73.64,66,74A1.45,1.45,0,0,1,64,72.74c0-.5-1.51-0.61-2.14-0.61a2.1,2.1,0,0,1-1.74-.61c-0.66-.61-0.29-0.37.24-0.82s-0.05-.92-0.34-1.37,0.16-.71.66-0.71-0.74-.87-1.29-1.06-0.37-.69-0.37-1-0.63-.45-1.22-0.6a4.55,4.55,0,0,0-1.77,0c-0.47.08-1.4-.85-2.4-1.48A5.46,5.46,0,0,0,50.77,64c-0.94-1.44-2.47-3.15-2.06-3.54s0-.77,1-0.77,2.46,0.29,2.93-.16,0.24-.66-0.34-1.22-2.62-1.35-2.75-1.8a2,2,0,0,0-.34-1.22c-0.42-.45-1.16-0.9-1.16-1.59s0.21-.9-0.11-1.32-1-.34-1-1.35a3.64,3.64,0,0,0-.69-2.43c-0.53-.58-1.64-1-1.66-1.51a2.17,2.17,0,0,0-.34-1.64C43.79,45.12,42.87,44.81,43,44a3,3,0,0,1,.32-1.66c0.4-.58,1-1.56.66-2.11s-1-.5-0.69-1,1-.74.32-1-0.66.13-.69-0.29,0.05-1-.32-1-0.56-.21-0.19-0.61S45,32.7,45.83,32.65s2.61-.32,2.54,0-0.37,1-.05,1.19,0.9,0.82,1.37.32,1.48-2.09,2.54-2.25,4.65-.58,5.23-0.77,1.24-1.16.9-1.69A3.3,3.3,0,0,1,57.61,28c0-.45.34-2.85,0.34-2.85s1.59-.9,1.67-0.9A13.75,13.75,0,0,0,63,25.49c1.06,0,2.59.53,3-.06s1.64-1.69,2-1.48,2.38,1.24,3.65,1a5.57,5.57,0,0,0,2.61-1c0.71-.58.93-1.16,1.59-1.14s1.75-.34,2.19.27,1.9,1.8,2.48,1.4a1.86,1.86,0,0,1,2-.34,4.66,4.66,0,0,0,2.35.71c0.23,0,.56-0.15.92-0.25,0,1.07,0,3.38,0,3.76s-0.58.66-1.24,0.92a24.51,24.51,0,0,0-2.82,2.31c-0.49.36-.29,0.65-0.24,1.16a3,3,0,0,0,1.41,1.52c0.67,0.46,0,7.57-.05,8s1.65,0.29,2.48.5A1.87,1.87,0,0,0,87,42.07a2.47,2.47,0,0,1,1.6-.12c0.53,0,.41,1.82.37,2.48s1.48,1.76,2.19,2.17,0.57,1.31.73,1.93a0.8,0.8,0,0,1-.54,1A5.15,5.15,0,0,0,90.24,51.65Z"/><path class="cls-14" d="M125.87,37.36a2.5,2.5,0,0,0-.76,1c-2.21-.45-1.81,1.31-1.93,2.23s-0.53.6-1,.9-0.63,1.36-.53,2.57-1.13.92-1.8,1.44-0.31,1.78-.05,2.63-0.58.69-1.15,1-0.53,1.2-.63,2.75a1.65,1.65,0,0,1-1.37,1.78c-0.49.25-.09,2,0.42,3.24s-0.24,2-1,3.17,0.51,3.33,1.18,4.42-2.91,4.1-2.91,4.1a10.72,10.72,0,0,0-1.47-.56c-0.5-.21-0.9.87-1.08,1.18s-2.22.08-3,0-0.76,1-1.24,1.72a2.09,2.09,0,0,1-2,.69c-0.63,0-.74.66-0.93,1.56s-2.62,1.69-3.09,2a3.24,3.24,0,0,0-1.14,2c0.05,0.56-.32,1-1.48,1.14s-1.61,1.14-2.06,1.8a3.61,3.61,0,0,1-1.51,1.12,8,8,0,0,0-.14-2.44c-0.28-.92-1.6-0.28-2.1-0.12s-2-1.92-2.81-2.4-1.08,1.23-1.37,2.11-1.92,1.48-3,2.2-1.85.11-2.63-.42-0.44.58-1.66,0.9-1.2-.28-1.65-0.62-0.39,0-1,.6-0.12.85,0.41,1.43-2.63,2.69-2.71,2.78a3.67,3.67,0,0,1-.34-0.65c-0.2-.61-0.08-1-0.57-1.18s-1.68,0-1.78-.69,0.17-3.87-.58-4.45a1.39,1.39,0,0,1-.81-1.63,6.65,6.65,0,0,1,.14-0.87h0a4.27,4.27,0,0,1,.66-1.3c0.52-.58,1.84-0.79,1.3-1.45s-2.15-2.42-1.78-3,0.75-.21.45-1-0.54-1-.22-1.48,0.32-.83.93-0.55,2,1.39,2.09.63-0.2-1.88.25-2.37,1.39-1.67,2-1.14a2,2,0,0,0,2,.44c0.53-.23,3.76-2.18,4.39-1.57s0.37,1.48,1.35,1.66,2.18,0.52,2.41-.48S88.4,60,89,59.61s2.42-.61,2.39-1.66,0.28-3-.28-3.62a2.94,2.94,0,0,1-.83-2.67,5.15,5.15,0,0,1,1.07-2.1,0.8,0.8,0,0,0,.54-1c-0.16-.62,0-1.52-0.73-1.93s-2.23-1.51-2.19-2.17S89.09,42,88.56,42a2.47,2.47,0,0,0-1.6.12,1.87,1.87,0,0,1-1.73.71c-0.83-.21-2.55-0.05-2.48-0.5s0.73-7.56.05-8a3,3,0,0,1-1.41-1.52c-0.05-.52-0.25-0.81.24-1.16a24.51,24.51,0,0,1,2.82-2.31c0.66-.26,1.15-0.42,1.24-0.92s0.06-2.69,0-3.76a3.79,3.79,0,0,1,1.51-.18c0.79,0.13,1.69.71,2.62,0.32S91,24,92,24s1.88-.08,1.8.4,0.29,3.14,1.24,3.28a3.93,3.93,0,0,0,2.62-.29c0.71-.45,2.19-1.32,2.3-0.4a2.09,2.09,0,0,0,1.53,1.56c0.53,0.19,4.84.05,5.31,0.85a6.69,6.69,0,0,0,4.25,2c1.22-.11,1.88.71,2.59-0.18s1.19-1,1.8-.63a2.08,2.08,0,0,1,1,1.66,1.41,1.41,0,0,0,.55,1.43c0.56,0.29,1.37,1.22.85,1.53s-1.24,1.43-.5,1.35,2.75,0.13,3-.87,0.08-1.61.71-1.69,1.51-.32,1.56.42,0.29,1.27.87,1.19a3.21,3.21,0,0,1,2,.29C125.64,36.17,126.22,37.09,125.87,37.36Z"/><path class="cls-15" d="M242,172.29a2,2,0,0,1-1.67.76c-0.63,0-.09.71-0.09,1.39s-1,1.32-1.35,1.57,1.18,1.87,1.83,2.17,0.51,0.49.14,1a6.55,6.55,0,0,0-.72,2.15c-0.28,1.09-.72.42-1.41,1s0.93,0.11.35,0.56,0,0.9.11,1.37-2.18.67-3,1.11-1-.44-1.29-0.9-2-.05-2.55,0-0.23-.33-0.44-0.88-1.59.58-1.59,1.13-1.94.23-2.84,0.21-0.79.51-.6,1.18-1.22.5-2,.65-1.28.26-1.11,1.2-0.51.37-1.44,0.14-0.28.62-.26,1.5-2.08,1.54-2.08,1.54a6.48,6.48,0,0,1-.74-2.54c0-1.35,1.05-2.38,1.38-3.66,0.11-.42.19-0.52-0.14-0.82a8,8,0,0,0-.68-0.56c-0.67-.49-0.32-0.89-0.15-1.54,0.11-.44-0.41-1.48-1-1.2s-0.12.59,0.1,0.77a1.11,1.11,0,0,1,.43.87c0,0.52-.71.65-0.75,1.09a0.85,0.85,0,0,0,.68.58,1.22,1.22,0,0,1,.71.45,1.35,1.35,0,0,1-.26,1,15.06,15.06,0,0,1-1.29,2.21,5.76,5.76,0,0,0-.66.81c-0.2.43,0,.57,0.27,0.85a2.81,2.81,0,0,1,1,1.69,2,2,0,0,1-.7,1.9,3.89,3.89,0,0,1-2.29.46,2.3,2.3,0,0,1-.88-0.1,2.45,2.45,0,0,0-1.19-.32,10.57,10.57,0,0,0-2.51.45,2.37,2.37,0,0,1-1.8.29c-0.63-.33-0.07-1.1.17-1.48a5.44,5.44,0,0,0,.86-2.26,2.73,2.73,0,0,1,.73-1.44,1.77,1.77,0,0,0,.8-1.44,1,1,0,0,0-1.12.51c-0.25.38-.55,0.75-0.8,1.14s-0.17,1.65-.89,1.4a0.9,0.9,0,0,1-.35-0.88,0.65,0.65,0,0,0-.6-0.52c-0.24-.07-0.7-0.19-0.74.2s0.63,0.58.86,0.78a2.28,2.28,0,0,1,.7,1.76,1.24,1.24,0,0,1-.68.73,6.69,6.69,0,0,0-.41.68c-0.23.3-.53,0.36-0.49-0.11a9.59,9.59,0,0,1,.38-1.13c0.11-.53-0.24-1.49-0.91-1s-0.1,1.66-.07,2.22,0.23,1.36-.56,1.51-1-.37-1.69-0.31c-0.49,0-1.18.23-1.39-.37a3.63,3.63,0,0,1-.07-1.08,7,7,0,0,0-.3-1.27,6.25,6.25,0,0,1-.08-1.2,3.08,3.08,0,0,0-.35-1.88,3.51,3.51,0,0,1-.56-0.87c-0.08-.3,0-0.61-0.09-0.92s-0.44-.5-0.56-0.81a5.08,5.08,0,0,0-.23-1c-0.29-.48-1.32-0.22-1.41-0.84a1.73,1.73,0,0,0,.09-0.87,3.28,3.28,0,0,0-.78-0.61,1.06,1.06,0,0,1,1.11-.56c1,0,2.1.05,2.27-.63s1.39-2.27.77-3.12-0.67-2.13-1.25-2-1.34.4-1.64,0-1.27-1-.69-1.4,1.44-1,1-1.3-0.85-.9-1.07-0.58-1,1.3-1.48,1-1.5-.3-1.59-1.13-0.37-2.2-1.25-1.55-1,1.18-1.81,1.32a3,3,0,0,1-2.24-.07c-0.56-.42-0.78-0.39-0.6-1.22s0.13-1.69.76-1.57,2.18,0.39,2-.41a3.5,3.5,0,0,1,.28-2.22c0.28-.65,1.81-1.67.86-2s-2-.56-2.1-1.09,0.11-2.31-.65-2.31-0.9,0-1.09.51-0.07,1.25-.56,1.18a1.45,1.45,0,0,1-1.11-.33c-0.37-.37-0.6-1.71-1.53-1.48s-1.57.63-1.92,0.12-3-2.43-2.25-3.24,1.81-.88,1.44-1.67-0.42-1.14-1.18-1.16-2.64-.6-2.66-1.25,0.93-1.46,0-1.89A3.5,3.5,0,0,1,179,150.6c-0.53-.93-1.09-1.25-0.21-1.89s2.08-.46,1.94-1.27a11,11,0,0,0,0-1.42s1.54-1.43,1.92-1,0.61,0.69.89,0.33,0.16-.79,1.06-0.71,3,0.05,3.57-.49,0.42-1.4,1.18-1,2.42,1.07,3.35.71a1.6,1.6,0,0,1,1.08-.21,1.8,1.8,0,0,0,1.57-.24c0.61-.54,2.06-2.51,2.75-2.37s1.31,0,1.16.59-0.42,2,.58,2.22a45.17,45.17,0,0,0,5,.62c1,0,3.5-.32,4.87.15s3.67,0.62,3.49,1.34-1.12,3.42-.66,3.55,1.33,0,1.56,1.08,0.5,4.25,1.1,4.39,0.93-1.36,1.63-1,2,0.07,2.17.71,0.11,1.86.93,1.63,0.66-.59,1.1-0.61a0.79,0.79,0,0,0,.86-0.78,1.13,1.13,0,0,1,1.26-1.21c0.86,0.18,1.7.86,3.36,0.32s5.25-.79,5.11-1.53,0-1.94.44-2.14,2-1,1.6-1.49-0.7-.82-0.45-1.2,0.42-.94.81-0.63,1.52,0.91,1.62.32a6.18,6.18,0,0,1,1.13-1.77l1.93,1.44a3,3,0,0,0,.12,1.79c0.16,0.48.16,0.42,0.9,0.65s0.18,1.92,0,2.63,0.16,1.09,1.18,2.24-1.48,1.69-2.36,2.1-0.28,1.57-.07,2.47,2,1,2.7,1.22a0.48,0.48,0,0,1,.2.14c0.49,0.53.5,2.23,1,3.88,0.6,1.85-.3,3.42-0.25,4.18s0.51,0.6,1.15,1.11S242.81,171.55,242,172.29Z"/><path class="cls-16" d="M198.48,180.55c0-.25-0.26-1.77-0.71-1.76h-0.1a2.2,2.2,0,0,0,.18,1.2,6.84,6.84,0,0,1,.13,1.23,3.31,3.31,0,0,0,.59,2.25,1,1,0,0,1,.5.81c-0.13.26-.73,0.19-0.63,0.63s1.46-.09,1.74.68a4.6,4.6,0,0,0,.41,1.47,9.42,9.42,0,0,0,.77.6c0.52,0.55.42,1.55,0.55,2.26s0.23,1.74.32,2.6a2.5,2.5,0,0,1-.63,2,2.87,2.87,0,0,1-1.1.36c-0.38.13-.71,0.31-1.08,0.45-0.59.22-1.29,0-1.84,0.26s-2.86,2.38-3.41,1.07a14.41,14.41,0,0,1-.28-2.6,3.79,3.79,0,0,0-1-2.12,2.89,2.89,0,0,0-.67-0.45,1.78,1.78,0,0,1-.77-0.75,2.29,2.29,0,0,0-.54-0.94c-0.45-.12-0.39.84-0.39,1.08a1.23,1.23,0,0,0,1.06,1.45,1.59,1.59,0,0,1,1.12,1.44,18.28,18.28,0,0,0,.25,2.36,5.26,5.26,0,0,0,1.12,1.66c0.55,0.56,1.42.12,1.49,1.16a3.31,3.31,0,0,1-.18.92,3,3,0,0,0,0,.85,3.6,3.6,0,0,1-.76,1.83,11.59,11.59,0,0,1-1.15,1.8,11.29,11.29,0,0,0-1.3,2c-0.22.39-.56,0.74-0.74,1.15s-0.32.79-.52,1.18a6.68,6.68,0,0,1-1.69,2.29,6,6,0,0,0-1.23,1.16c-0.38.54-.65,1.15-1.06,1.66-0.62.78-1.24,1.54-1.9,2.29a19.94,19.94,0,0,0-1.62,2,4.34,4.34,0,0,0-.36,1,2.11,2.11,0,0,1-.78.81,4.7,4.7,0,0,0-.81.91,0.81,0.81,0,0,1-.62.53c-0.23-.56.46-1.13,0.41-1.68-0.9-.13-1.15,1.2-1.41,1.75-0.12.26-.37,0.62-0.67,0.36s-0.22-.62-0.41-0.85a2.28,2.28,0,0,1-.63-0.72c-0.09-.27-0.08-0.6-0.15-0.89s-0.13-1.43-.65-1c-0.78.68,0.23,1.78,0.19,2.53a1.67,1.67,0,0,0,.15.54,1.27,1.27,0,0,1-.25.79c-0.17.29-.36,0.73-0.69,0.41a4.16,4.16,0,0,0,0-1.54c-0.06-.24-0.13-0.35-0.38-0.14a3.53,3.53,0,0,0-.42,1.69c-0.12.48,0.09,0.46,0.38,0.75a0.53,0.53,0,0,1,.18.73,1.16,1.16,0,0,1-1,0c-0.5-.1-1.72.08-1.92,0.63s0.16,0.58.46,0.74a2,2,0,0,0,1.46.33,3.13,3.13,0,0,1,.46,0c0.42,0-.58,1.39-0.62,1.43a6.34,6.34,0,0,1-1.42,1.28,6.46,6.46,0,0,1-.94.83c-0.21-.34.52-0.57,0.3-0.91s-0.53,0-.66-0.35a4.57,4.57,0,0,1,0-1.2,1.49,1.49,0,0,0-1-1.33,2.9,2.9,0,0,1-.5-0.63,6.73,6.73,0,0,0-.56-0.46,1,1,0,0,1-.16-1.23c0.18-.26,1-0.43.94-0.85s-0.67-.34-0.88-0.18a2.23,2.23,0,0,0-.21.39,3.12,3.12,0,0,1-.64.38c-0.46.33-.14,0.51,0.14,0.84s0.11,0.48-.26.85a1.15,1.15,0,0,0-.49,1.06,3.84,3.84,0,0,0,.64.85,1.36,1.36,0,0,1,.31,1.08,5.21,5.21,0,0,0-.43,1.13c0,0.62-.12,1.74.68,1.81a3.45,3.45,0,0,0,1.58-.57c0.12,0,.37-0.13.42,0a0.94,0.94,0,0,1-.6.56c-0.56.31-1.7,0.93-1.82,1.66s0.41,0.1.66,0c0.52-.12.32,0.44,0.52,0.73,0.44,0.61,1.33-1.09,1.9,0a2.1,2.1,0,0,1,.25,1.09c0,0.47-.4.78-0.39,1.27s0.8,0.88.46,1.48a2.55,2.55,0,0,0-.7,1.72c0,0.38.33,1.41-.19,1.65-0.29.14-.37-0.35-0.77-0.24s-0.64.67-.77,0.11a2.85,2.85,0,0,1,.18-1.05,4.18,4.18,0,0,0,.21-1.46c-0.12-.84-1.35-1.25-2-1.72-1.13-.85-2.6-1.12-3.85-1.77a9.86,9.86,0,0,0-1.6-.56,1.17,1.17,0,0,0-1.22.35,2.58,2.58,0,0,1-1.16.46,2.73,2.73,0,0,0-1.19.94,5.15,5.15,0,0,1-2.5,1.53,5.78,5.78,0,0,0-.61.11c-0.17.05-.29,0.18-0.46,0.23a5.24,5.24,0,0,0-.92,0,2.81,2.81,0,0,0-.41,1.12c-0.16.49-.34,0.54-0.85,0.25a3.55,3.55,0,0,1-.85-0.92,1.65,1.65,0,0,0-1.05-.35,1.44,1.44,0,0,0-.9.25,1,1,0,0,0-.26.82,1.21,1.21,0,0,0-.15.24,0.93,0.93,0,0,0,.15.39c0.19,0.28.47,0.21,0.64,0.46,0.55,0.83-1,1-1.43,1a5.79,5.79,0,0,1-1.36-.21,5.88,5.88,0,0,0-1.27,0,4.83,4.83,0,0,1-2-.22,2.87,2.87,0,0,1-1.3-1.46,1.92,1.92,0,0,0-.91-0.89c-0.31-.11-0.67,0-1-0.18a1.79,1.79,0,0,1-.8-0.7c-0.43-.62-0.88-1.22-1.27-1.87s-0.66-1.3-1-1.94-0.67-.72-0.5-1.33a4.63,4.63,0,0,1,.6-1.06,0.85,0.85,0,0,1,.83-0.64,4.73,4.73,0,0,1,2.38.36,5.75,5.75,0,0,0,1.3.59,1.15,1.15,0,0,0,1.37-1.4c-0.05-.28-0.5-0.58-0.33-0.88a1.74,1.74,0,0,1,.93-0.24,1,1,0,0,0,.14-1.16,5.38,5.38,0,0,1-.29-0.78,1.27,1.27,0,0,0-.07-0.63c-0.27-.36-0.9-0.14-1.19-0.5a1,1,0,0,1,.07-1.08,1.8,1.8,0,0,1,.8-0.89c0.46-.14,1,0.59,1.31.82,0.53,0.38.52,0,.52-0.46a1.48,1.48,0,0,1,.25-1.16,1.69,1.69,0,0,1,1.15-.46,1.26,1.26,0,0,0,1.07-.6c0.17-.33-0.07-0.82.08-1.09,0.23-.45.94,0,1.3-0.11s0.24-.53,0-0.81a2.35,2.35,0,0,1-.53-1.09,3.46,3.46,0,0,1,0-1.63,1.33,1.33,0,0,1,.91-0.92,10.58,10.58,0,0,1,2.11-.28,5.59,5.59,0,0,0,1.72-.26,2.09,2.09,0,0,0,.87-1.69c0-.51-0.46-0.57-0.63-1a1.77,1.77,0,0,1,0-1.18c0.32-.89,1.5-1.78,1.34-2.8a2.64,2.64,0,0,0-1.31-1.33,1.38,1.38,0,0,1-.7-1.24c0-.51.09-1,0.11-1.53a4.12,4.12,0,0,0-.34-1.56,12.6,12.6,0,0,1-.33-1.32c-0.09-.34-0.26-0.68-0.33-1a1.77,1.77,0,0,1,1.46.1c0.47,0.12.74,0.09,0.6-.45a1.54,1.54,0,0,1-.05-1.34c0.23-.29.39,0,0.69-0.06a1.75,1.75,0,0,0,.32-0.19,1.14,1.14,0,0,1,.53-0.1c0.45,0,1.11.38,1.4-.11a3.62,3.62,0,0,1,.69-1c0.23-.2.56-0.29,0.71,0a6,6,0,0,1,.27,1.87,12.14,12.14,0,0,1,0,1.55,4.27,4.27,0,0,0,.11,1.79c0.25,0.51.92,0.18,1-.29a1.36,1.36,0,0,1,.21-0.76,2,2,0,0,0,.37-0.33,4.32,4.32,0,0,0,0-1.48c0-.38.27-1.07,0.72-0.71s0.25,1.21.89,1.4c0.46,0.14.39-.8,0.73-1.07a1.13,1.13,0,0,1,.81-0.21,1.35,1.35,0,0,1,.53.64c0.38,0.4.79,0.29,0.64,0.9s0,0.43.37,0.58a1,1,0,0,1,.53.37c0.14,0.25.05,0.58,0.18,0.85a1.68,1.68,0,0,0,1.38.71c0.21,0,.43,0,0.64.06a2,2,0,0,0,.52.05c0.33-.16-0.19-1.05-0.24-1.32a0.89,0.89,0,0,1,.32-1c0.47-.14.8,0.24,1.21-0.21A5.93,5.93,0,0,1,172,200c0.5-.44.88,0.37,1.1,0.74a4.14,4.14,0,0,1,.56.93,1.76,1.76,0,0,1,0,.61,0.54,0.54,0,0,0,.48.65,1.35,1.35,0,0,0,.89,0c0.25-.17.2-0.55,0.46-0.74a1,1,0,0,1,1-.05,8.91,8.91,0,0,0,1.48.16,6,6,0,0,0,1.76-.42c0.31-.09.61-0.27,0.92-0.33s0.43,0,.61,0,0.31-.26.5-0.31a0.94,0.94,0,0,1,.59.16c0.33-.27-0.26-0.65-0.46-0.77a0.92,0.92,0,0,1-.58-0.76,8.43,8.43,0,0,0-1.32.39,2.15,2.15,0,0,1-1.39-.43,3.26,3.26,0,0,1-1.27-1.66,2.62,2.62,0,0,1,.1-1.37c0.29-.57-0.16-0.61-0.41-1.1a4.87,4.87,0,0,1-.67-2.34c0-.39,0-0.76,0-1.15s0.18-.67.21-1a7,7,0,0,0,0-1,2.38,2.38,0,0,0-.46-0.89,0.75,0.75,0,0,1-.1-0.4,3.06,3.06,0,0,0,.19-0.42,1.2,1.2,0,0,0-.45-0.74c-0.35-.31-0.41.08-0.77,0.08s0.21-2-.84-1.56a11.44,11.44,0,0,1-1.35.9,1.71,1.71,0,0,1-.92-0.11,2,2,0,0,1-.35-1.3,0.45,0.45,0,0,0-.57-0.44c-0.4.05-.79,0.17-1.19,0.23s-0.61,0-.56-0.58a0.39,0.39,0,0,0,0-.36,1.2,1.2,0,0,0-.61,0c-0.3.07-.72,0.32-0.77-0.12a1.49,1.49,0,0,1,.46-1,3.29,3.29,0,0,0,.12-1.41,2.33,2.33,0,0,1,.48-0.63,1.75,1.75,0,0,0-.11-1.23,0.64,0.64,0,0,0-.23-0.42,1.56,1.56,0,0,0-.66-0.05c-0.38.09-.43,0.68-0.74,0.9a0.49,0.49,0,0,1-.72-0.42,7.52,7.52,0,0,1-.11-1,0.56,0.56,0,0,1,.34-0.71c0.38,0,.67.27,0.87-0.24a3.12,3.12,0,0,0,0-1.31c0-.5-0.08-1-0.15-1.49a0.7,0.7,0,0,1,0-.32,0.65,0.65,0,0,1,.27-0.14,1.81,1.81,0,0,0,0-1.21,8.53,8.53,0,0,0-.38-1.85c-0.22-.62-1.24-1.06-1.55-0.24-0.16.43,0.19,0.85-.18,1.17a0.78,0.78,0,0,1-.75.38,1,1,0,0,1-.65-0.65,3.57,3.57,0,0,1-.13-1c0-.94-0.89-0.37-1.41-0.72-0.68-.45-0.37-1.67-1-2.16-0.43-.33-1.28-0.56-1.34.2,0,0.19.12,0.39-.11,0.5s-0.34-.26-0.39-0.44c-0.19-.65-0.74.21-0.93-0.24-0.31-.71.4-1.37-0.12-2.06a0.48,0.48,0,0,0-.5-0.24c-0.4,0-.38-0.26-0.37-0.63a0.77,0.77,0,0,1,.42-0.67,2.58,2.58,0,0,0,.82-0.41,0.76,0.76,0,0,0,.16-0.88,1.13,1.13,0,0,1,0-.55,1,1,0,0,1,.37-0.26,1.17,1.17,0,0,0,.37-1,2.73,2.73,0,0,1-.15-1c0.12-.34.48-0.22,0.54-0.66a3.82,3.82,0,0,0-.23-1.16,0.7,0.7,0,0,1,.24-0.72,1.07,1.07,0,0,0,.42-1c-0.26-.7-1.49,0-1.43-1a1.16,1.16,0,0,1,.58-0.84,0.69,0.69,0,0,0,.39-0.82,6.55,6.55,0,0,0-1.07-.59,3.19,3.19,0,0,1-.43-1.69,1.73,1.73,0,0,0-.6-0.93,1.7,1.7,0,0,0-1.25-.32,1.91,1.91,0,0,0-.71,1,2.51,2.51,0,0,0-.43,1.11,7.77,7.77,0,0,1-1.18-1.17,1.94,1.94,0,0,0-1.32.09,1.1,1.1,0,0,1-1.21-.64,6.2,6.2,0,0,1-.25-1c0.06,0,1-.53,1.65-0.8s0.32-1.06.12-2.34,2.84-2.43,2.84-2.43,1.57,2.64,1.85,3.4,3.89-1.57,4.31-1.87,0.79,0.46,1.34,1,1.13-.6,1.44-0.78a1.83,1.83,0,0,1,1.66-.51c1,0.21,2.22-1.18,2.5-1.71a0.47,0.47,0,0,1,.32-0.25,5.14,5.14,0,0,1,1.48.23c0.7,0.11.28-.81,0.24-1.25s1.59-.93,2.11-1.07,0.48,0,1,.37,0,1.78,1.09,2.75,3.79,0.48,4.69.46a0.48,0.48,0,0,1,.44.15,11,11,0,0,1,0,1.42c0.14,0.81-1.06.63-1.94,1.27s-0.32,1,.21,1.89a3.5,3.5,0,0,0,1.74,1.87c0.93,0.42,0,1.23,0,1.89s1.9,1.23,2.66,1.25,0.81,0.37,1.18,1.16-0.7.86-1.44,1.67,1.9,2.73,2.25,3.24,1,0.11,1.92-.12,1.16,1.11,1.53,1.48a1.45,1.45,0,0,0,1.11.33c0.49,0.07.37-.63,0.56-1.18s0.34-.51,1.09-0.51,0.58,1.78.65,2.31,1.15,0.74,2.1,1.09-0.58,1.37-.86,2a3.5,3.5,0,0,0-.28,2.22c0.19,0.79-1.36.53-2,.41s-0.58.74-.76,1.57,0,0.79.6,1.22a3,3,0,0,0,2.24.07c0.86-.14.93-0.67,1.81-1.32s1.16,0.72,1.25,1.55,1.06,0.86,1.59,1.13,1.25-.72,1.48-1,0.67,0.3,1.07.58-0.46.86-1,1.3,0.39,1,.69,1.4,1.06,0.17,1.64,0,0.63,1.13,1.25,2-0.6,2.43-.77,3.12-1.32.6-2.27,0.63a1.06,1.06,0,0,0-1.11.56l-0.13-.11C198.24,181.79,198.53,181.26,198.48,180.55Z"/><path class="cls-16" d="M177.22,225.17c-0.17.05-.47,0.08-0.42-0.16a1.34,1.34,0,0,1,.33-0.46c0.17-.2.31-0.42,0.49-0.61s0.57-.64.87-0.93a4.58,4.58,0,0,1,.88-0.62,4.51,4.51,0,0,0,.55-0.55,0.61,0.61,0,0,1,.35-0.19,0.69,0.69,0,0,1-.3.68,7.17,7.17,0,0,1-.64.64,6.2,6.2,0,0,0-.78.66c-0.26.27-.48,0.58-0.72,0.86A1.57,1.57,0,0,1,177.22,225.17Z"/><path class="cls-17" d="M326.54,224.13a1,1,0,0,1-.3.33c-0.15.15-.26,0.3-0.42,0.44s-0.48.31-.7,0.48a0.84,0.84,0,0,1-1.15-.06c-0.21-.17-0.4,0-0.53.18a1.73,1.73,0,0,0-.13.89,0.59,0.59,0,0,1-.23.49,2.83,2.83,0,0,1-.58.15c-0.23.11-.09,0.31,0,0.48s0.41,0.22.35,0.52-0.72.89-.45,1.33a1.16,1.16,0,0,1,.16.82,2.5,2.5,0,0,0,.14,1.13,2.08,2.08,0,0,0,.41,1c0.25,0.21.46,0.3,0.35,0.7a2.43,2.43,0,0,1-.32.67,1.61,1.61,0,0,1-1.14.69c-0.24,0-.45.06-0.69,0.07a2,2,0,0,0-.62.08,3.82,3.82,0,0,0-.68.32,5.83,5.83,0,0,0-.65.65c-0.3.27-.66,1-1.13,0.92a4.72,4.72,0,0,1-.51-0.17l-0.65-.13c-0.46-.09-0.89-0.28-1.36-0.33a4.27,4.27,0,0,0-1.59.14,6.7,6.7,0,0,0-1.11.42,12.9,12.9,0,0,0-1.29.61,1.73,1.73,0,0,1-.91.52,1.18,1.18,0,0,1-.5-0.35c-0.2-.17-0.4-0.35-0.6-0.51a5.25,5.25,0,0,1-.62-0.74,3,3,0,0,0-1.78-1.13c-0.68-.11-1.43.12-2.09,0-0.25-.06-0.49-0.2-0.74-0.25a1.89,1.89,0,0,0-1,.21,0.92,0.92,0,0,1-.63,0,1.17,1.17,0,0,0-.86.52,2.16,2.16,0,0,0-.35.34,4.14,4.14,0,0,1-.28.46,1.53,1.53,0,0,0-.24.23c-0.07.11-.06,0.27-0.12,0.39a2.51,2.51,0,0,0-.35.6,2.36,2.36,0,0,0,.1.61,1.09,1.09,0,0,1,.08.48,1.12,1.12,0,0,1-.44.14,0.48,0.48,0,0,0-.27.18,1.92,1.92,0,0,0-.23.53,0.4,0.4,0,0,0,.11.49,0.66,0.66,0,0,1,.33.47,0.49,0.49,0,0,1-.38.44,1.67,1.67,0,0,1-.77.25,1,1,0,0,1-.44-0.33,1.53,1.53,0,0,0-1-.29,0.5,0.5,0,0,0-.53.41c-0.07.14-.2,0.25-0.27,0.39s-0.1.37-.19,0.54a3.27,3.27,0,0,1-.75.88,6.46,6.46,0,0,0-.74.69c-0.16.21-.36,0.42-0.51,0.63a4.88,4.88,0,0,0-.27,1.43,0.89,0.89,0,0,1-1.21.72c-0.56-.31-0.84-0.91-1.52-1a2.3,2.3,0,0,0-1.5.89,0.83,0.83,0,0,1-.36.2,3.54,3.54,0,0,0-.64.31,4.47,4.47,0,0,1-1.69.26,10.63,10.63,0,0,0-1.17.25,4.82,4.82,0,0,0-1.61.62,23.17,23.17,0,0,1-2,1.25,6.56,6.56,0,0,0-1.17.7,2.3,2.3,0,0,1-1.27.46,0.5,0.5,0,0,0-.51.28,12.06,12.06,0,0,0-1,1.75,17.73,17.73,0,0,0-.68,2.2,2.49,2.49,0,0,1-.26.87,5.35,5.35,0,0,1-.92,1,3.33,3.33,0,0,0-.29.38,1.31,1.31,0,0,1-.4.29,0.92,0.92,0,0,0-.34.32,2.08,2.08,0,0,1-.45.55,1.46,1.46,0,0,1-.49.3,2.39,2.39,0,0,0-.66.1,1.32,1.32,0,0,0-.64.61,8,8,0,0,1-.23.86,2.52,2.52,0,0,1-1.69.79,1.66,1.66,0,0,0-1,.41,5.74,5.74,0,0,1-.94.75,1.09,1.09,0,0,1-1.27.16,1.94,1.94,0,0,0-.54-0.45,0.94,0.94,0,0,0-.85.2l-1,.65a0.83,0.83,0,0,1-.67.12,3.33,3.33,0,0,0-1,0,0.52,0.52,0,0,1-.59-0.21,1.48,1.48,0,0,0-.3-0.45,1,1,0,0,0-.72-0.17,0.88,0.88,0,0,1-.75-0.1,2.24,2.24,0,0,1-.34-0.74,3.77,3.77,0,0,0-.72-1.06,2.43,2.43,0,0,0-.7-0.59,1.89,1.89,0,0,0-1.25-.19,2.64,2.64,0,0,1-.6.19,2.33,2.33,0,0,1-.95-0.13,2.88,2.88,0,0,1-.71-0.56c-0.33-.26-0.65-0.54-1-0.79a0.87,0.87,0,0,1-.45-0.61,1.47,1.47,0,0,1,.79-0.36,0.82,0.82,0,0,0,.21-0.56,1.8,1.8,0,0,1,.38-0.52c0.33-.36.9,0,1.31-0.22a1,1,0,0,0,.38-0.29,1.69,1.69,0,0,0,.18-0.62,4.74,4.74,0,0,0,0-.93c0-.34,0-0.68-0.09-1-0.08-.71-0.28-1.41-0.33-2.12a2.64,2.64,0,0,1,.26-1.72,5.51,5.51,0,0,1,.53-0.48,1.31,1.31,0,0,0,.35-0.72,6.4,6.4,0,0,0,.06-1.83c-0.08-.63-0.22-1.29-0.25-1.93a5.41,5.41,0,0,0-.13-1.29,4.44,4.44,0,0,0-.8-1.11c-0.1-.15-0.25-0.25-0.35-0.4s-0.16-.38-0.26-0.57a3.43,3.43,0,0,0-.53-0.74,10,10,0,0,0-2.2-1.45c-0.42-.26-0.79-0.78-1.34-0.6a2.1,2.1,0,0,0-.51.53,1.18,1.18,0,0,1-.62.05,0.7,0.7,0,0,0-.37.3,2.45,2.45,0,0,1-.56.43,0.81,0.81,0,0,1-.5.11,0.29,0.29,0,0,1-.29-0.29,1.19,1.19,0,0,0-.54-0.69c-0.39-.17-0.83.12-1.16-0.26s-0.82-.91-1.25-1.35a7.45,7.45,0,0,1-.87-0.72,4.13,4.13,0,0,0-.61-0.85,5.33,5.33,0,0,0-1-.72c-0.37-.18-0.75-0.34-1.11-0.54a3.51,3.51,0,0,0-1.74-.64c-1.21,0-2.68-.31-3.74.35a3.39,3.39,0,0,0-.81.88,1.8,1.8,0,0,1-.34.43,0.62,0.62,0,0,1-.47,0,1,1,0,0,1-.56-0.24,0.74,0.74,0,0,0-.71-0.32c-0.38-.05-0.75-0.18-1.14-0.22a2.71,2.71,0,0,1-.87-0.11,1.11,1.11,0,0,1-.61-0.8c-0.08-.5.42-0.42,0.49-0.85a5.79,5.79,0,0,0-.32-0.8,1.62,1.62,0,0,1,.63-1c0.7-.77,1.74-1,2.43-1.77a1.66,1.66,0,0,1,.66-0.63,2.88,2.88,0,0,0,.92-0.17c0.66-.44.87-1.37,1.77-1.45a3.26,3.26,0,0,0,1,0c0.44-.24,0-0.43-0.17-0.58-0.73-.53.64-1.18,1.06-1.48,0.73-.52,1.26-1.38,2-1.85s1.88-.61,2.53-1.38c0.2-.24.33-0.52,0.55-0.73a1.28,1.28,0,0,0,.59-0.64c0.1-.46-0.24-1.81.6-1.3,0.55,0.33,1.19,1.17,1.94,1a2.54,2.54,0,0,0,1.22-1c0.37-.42.83-0.74,1.22-1.15a2.9,2.9,0,0,1,.74-0.58,2.36,2.36,0,0,1,.84-0.11c0.38-.08.16-0.31,0.38-0.54a1.14,1.14,0,0,1,.88-0.1,0.69,0.69,0,0,0,.68-0.43,1.43,1.43,0,0,1,1.64-.67,3.57,3.57,0,0,1,.92.48,1.83,1.83,0,0,0,.63.53c0.46,0,0-1.56,0-1.9a0.68,0.68,0,0,1,.41-0.71c0.27-.23.45-0.47,0.15-0.73a1.85,1.85,0,0,0-1.66-.39,0.74,0.74,0,0,1-.67,0,1,1,0,0,1,.17-0.65c0.25-.93-1.13-1.46-0.6-2.46,0.22-.4.59-0.19,0.7-0.7s-0.13-.52-0.46-0.85a2.25,2.25,0,0,1-.41-0.85,0.49,0.49,0,0,0-.33-0.42c0-.11.74-4.14,1.33-3.6s1.59,1.33,1.59,1.33a0.29,0.29,0,0,1,0,0,1.47,1.47,0,0,1-.32.74,1.43,1.43,0,0,0-.39.37,0.78,0.78,0,0,0,0,.78,0.76,0.76,0,0,0,.58-0.05c0.35,0,.45,0,0.56.32s0.23,0.2.5,0.15a1,1,0,0,1,.69.11,5.37,5.37,0,0,1,.38.49,1.94,1.94,0,0,0,.62.41,1.33,1.33,0,0,1,.61.3,2.52,2.52,0,0,0,1.16,1.07,2,2,0,0,0,.62-0.07,1,1,0,0,0,.59-0.12c0.26-.3-0.12-1,0.19-1.2a2.55,2.55,0,0,1,.9,0,1.75,1.75,0,0,0,.63-0.28c0.21-.11.42-0.08,0.36,0.2s-0.37.5-.41,0.82c-0.09.74,1.19,0.8,1.64,1a1.77,1.77,0,0,1,.92,1.2c0.07,0.45-.67.86-0.34,1.32a0.78,0.78,0,0,0,.76.17,0.77,0.77,0,0,0,.9-0.53c0.16-.82-0.56-1.34-1.07-1.83a0.77,0.77,0,0,1-.35-0.62,0.7,0.7,0,0,1,.52-0.19,0.51,0.51,0,0,1,.61.25,2.55,2.55,0,0,0,.53,1.13,0.46,0.46,0,0,0,.64-0.42c0-.15-0.09-0.75.23-0.71a0.53,0.53,0,0,1,.23.46,0.69,0.69,0,0,0,.44.52,0.47,0.47,0,0,0,.46,0,1.49,1.49,0,0,0,.21-0.58,0.46,0.46,0,0,1,.51-0.42,0.54,0.54,0,0,1,.34.11,1.8,1.8,0,0,1,.4.32c0.16,0.25-.13.44-0.27,0.61a0.32,0.32,0,0,0,0,.5,2.33,2.33,0,0,1,.81.54,1,1,0,0,1,0,.81,1,1,0,0,0,0,.92,1.32,1.32,0,0,0,.78,0c0.24-.14,0-0.82.33-0.83a2.37,2.37,0,0,1,.6,1,1.06,1.06,0,0,0,.67.3c0.35,0,.22-0.47.37-0.68a1.22,1.22,0,0,1,.17-0.11,0.7,0.7,0,0,0,.14-0.28,2.93,2.93,0,0,0,.06-0.9,0.59,0.59,0,0,1,.07-0.53,1.49,1.49,0,0,1,1.21-.28,1.19,1.19,0,0,1,.79.9,1.69,1.69,0,0,1,0,.57,2.88,2.88,0,0,1-.1.71,1.1,1.1,0,0,1-.57.38,2,2,0,0,0-.51.42,1.79,1.79,0,0,0-.32.85,3.49,3.49,0,0,1-.13.94,1,1,0,0,1-.58.41,2.72,2.72,0,0,0-.67.38,4.79,4.79,0,0,0-.68.5c-0.15.14-.37,0.23-0.11,0.39a1.26,1.26,0,0,0,1,0,5.16,5.16,0,0,0,1.55-1.59c0.39-.6,1.06-1,1.42-1.6a2,2,0,0,1,.5-0.63,3.6,3.6,0,0,1,1-.3,4.1,4.1,0,0,1,.81-0.27c0.29,0,.68.09,0.46,0.43a1.63,1.63,0,0,1-.5.41c-0.23.14-.44,0.28-0.66,0.43a2.2,2.2,0,0,0-.74.55,1.17,1.17,0,0,0-.36.86c0.21,0.41.85,0.2,1.1,0a1.51,1.51,0,0,1,.92-0.53,1.64,1.64,0,0,1,.48.55,0.67,0.67,0,0,1,.48.4,0.87,0.87,0,0,1-.69.66,1.34,1.34,0,0,0-.93.69,0.7,0.7,0,0,1-.48.59,0.38,0.38,0,0,0-.14.59,1.15,1.15,0,0,0,1,0,12.92,12.92,0,0,0,1.46-.71,3.12,3.12,0,0,1,.41-0.18,2.15,2.15,0,0,0,.45-0.1,1.57,1.57,0,0,1,1-.24c0.52,0.11.23,0.39,0,.64s-0.51.33-.74,0.53a0.35,0.35,0,0,0-.18.29c0,0.36.63,0.19,0.81,0.05s0.48-.48.72-0.09a0.91,0.91,0,0,0,.29.62,2.29,2.29,0,0,0,1.05.09,1.85,1.85,0,0,1,1.09.46c0.28,0.24.47,0.55,0.76,0.79s0.43,0.35.66,0.51a1.86,1.86,0,0,1,.44.36,2.59,2.59,0,0,1,.28.67,4.76,4.76,0,0,0,.39.78,3.55,3.55,0,0,1,.37,1,2.72,2.72,0,0,1,.12.64,0.93,0.93,0,0,1-.15.44,1.06,1.06,0,0,1-.31.67,3.12,3.12,0,0,0-.5.35,3,3,0,0,1-.57.53,1,1,0,0,0-.65,1c0,0.1.15,0.17,0.19,0.27a0.47,0.47,0,0,1,0,.37c-0.11.25-.27,0.49-0.37,0.74s-0.16.37,0,.45a2.48,2.48,0,0,0,.51.05,2.3,2.3,0,0,0,.48,0,0.89,0.89,0,0,0,.6-0.28,0.53,0.53,0,0,1,.78-0.09,2.22,2.22,0,0,0,.88.6,2.85,2.85,0,0,0,1-.09,3.94,3.94,0,0,1,1.13-.08,1.71,1.71,0,0,1,.86.52,2,2,0,0,0,1,.58,2.24,2.24,0,0,1,1.07.15,1.87,1.87,0,0,0,1.67.55,0.75,0.75,0,0,0,.58-0.45,0.88,0.88,0,0,0-.67-0.69l-0.68-.42a1.69,1.69,0,0,1-.65-0.49,2.88,2.88,0,0,1-.25-0.78,1.32,1.32,0,0,0-.49-0.69,9.09,9.09,0,0,0-.92-0.69,3.63,3.63,0,0,1-.87-1c-0.52-.73-1.32-1.21-1.82-2a13.08,13.08,0,0,0-1.07-1.4c-0.32-.36-0.65-0.71-1-1.06a3.6,3.6,0,0,1-.74-0.84,10.48,10.48,0,0,0-1.55-1.94c-0.21-.24-0.41-0.49-0.59-0.76s-0.22-.27-0.3-0.42a3.27,3.27,0,0,0-.3-0.54,1.54,1.54,0,0,1-.35-0.39,5.63,5.63,0,0,0-.53-1.15,1.9,1.9,0,0,1-.25-0.49,4,4,0,0,0-.48-0.79c-0.22-.33-0.72-1.31-1.12-0.6-0.2.34-.06,0.81-0.28,1.15a0.28,0.28,0,0,1-.46,0,2.19,2.19,0,0,1,.05-1.2,8.44,8.44,0,0,0,0-1.18,8.66,8.66,0,0,0-.05-2.05l0.77-.22a14.06,14.06,0,0,1,.79,1.54c0.16,0.37.27,0.76,0.42,1.12s0.25,0.49.35,0.74a4.3,4.3,0,0,0,.84,1.55,2.84,2.84,0,0,1,.6.87c0.16,0.33.35,0.67,0.53,1a15.14,15.14,0,0,0,1.28,1.59,14.57,14.57,0,0,1,1.22,1.76,4.23,4.23,0,0,0,1,1.14,3.86,3.86,0,0,1,.71.59,3.62,3.62,0,0,0,.51.71,4.28,4.28,0,0,0,.81.66,1.5,1.5,0,0,1,.63.77,6.13,6.13,0,0,0,1.16,1.53c0.53,0.55,1.2,1,1.74,1.49a14.71,14.71,0,0,0,1.55,1.33c0.49,0.37.92,0.82,1.42,1.17a1.46,1.46,0,0,0,.52.21,0.61,0.61,0,0,0,.48-0.08,6.35,6.35,0,0,0,1.08-.88,6.75,6.75,0,0,1,1.72-.68,8.78,8.78,0,0,1,1.26-.26,0.55,0.55,0,0,0,.45-0.28,2.67,2.67,0,0,0,.05-0.59,2.28,2.28,0,0,1,.41-1.21c0.12-.09.29-0.11,0.4-0.21a2,2,0,0,0,.28-0.48c0.2-.33.46-0.63,0.66-1a1.25,1.25,0,0,1,.49-0.82c0.24-.09.36,0.17,0.41,0.37,0.09,0.35.17,0.71,0.26,1.06a1.67,1.67,0,0,0,.27.73,2.61,2.61,0,0,0,.43.34,1.34,1.34,0,0,0,.92.14,4,4,0,0,1,1.07.37,2.15,2.15,0,0,0,.93-0.2,1,1,0,0,0,.5-0.58,0.84,0.84,0,0,1,.06-0.3,1.52,1.52,0,0,0,.44-0.48c0.08-.33-0.26-0.58-0.19-0.9a1.65,1.65,0,0,1,.81-0.79,2,2,0,0,1,1.13-.09,3,3,0,0,0,1,0,0.47,0.47,0,0,0,.21-0.23,1.69,1.69,0,0,1,1.76-.29,2.58,2.58,0,0,0,.55.08,0.71,0.71,0,0,0,.35-0.14,1.82,1.82,0,0,1,1.25,0c0.31,0.09.55,0.28,0.85,0.4a2.44,2.44,0,0,0,1.11.15,4.1,4.1,0,0,0,1.2-.11,2,2,0,0,1,.67-0.3c0.56,0,.74.71,1.08,1A1.16,1.16,0,0,1,326.54,224.13Z"/><path class="cls-17" d="M261.53,205.71a0.44,0.44,0,0,1,0-.47,0.93,0.93,0,0,0-.21-0.55,0.31,0.31,0,0,1,.22-0.37,0.34,0.34,0,0,1,.29.19,0.69,0.69,0,0,0,.67.35c0.2,0,.28,0,0.27.23s0.07,0.78-.3.81A1.22,1.22,0,0,1,261.53,205.71Z"/><path class="cls-17" d="M263.84,207.38a0.71,0.71,0,0,1-.14-0.55c0-.27.45-0.54,0.63-0.31a0.86,0.86,0,0,1,.22.87A0.62,0.62,0,0,1,263.84,207.38Z"/><path class="cls-18" d="M331.25,159a2.94,2.94,0,0,0-1.62.49c-0.32.39-.6,1.27-1.13,1.06s-2.11-.25-2,0.53,0.53,1.59-.21,2.26-1.55,1.83-.92,2,2.89,0.81,3,1.55a3.19,3.19,0,0,0,1.13,1.94c0.46,0.21,1.34.7,1.3,1.3s0.46,1.51-.25,2a2.93,2.93,0,0,0-1.37,3.47c-0.1.08-.19,0.17-0.3,0.25a1.51,1.51,0,0,0-.48.5,1,1,0,0,1-.3.49,10.13,10.13,0,0,0-1.07,1,0.83,0.83,0,0,0-.34.44,0.54,0.54,0,0,0,.18.33,0.8,0.8,0,0,1,0,.9,7.12,7.12,0,0,1-.8,1.4,2.16,2.16,0,0,1-.31.56,0.39,0.39,0,0,1-.54-0.05c-0.13-.17-0.16-0.41-0.28-0.59a2.15,2.15,0,0,0-.54-0.59c-0.23-.17-0.5-0.27-0.72-0.44-0.75-.59-1.89-0.31-2.73-0.09s-1.52.43-2.28,0.67a3.09,3.09,0,0,0-1.53.55,2.48,2.48,0,0,0-.55.91,3.73,3.73,0,0,1-.56,1,4.44,4.44,0,0,0-.61,1,3.52,3.52,0,0,1-.37.68A1.33,1.33,0,0,1,314,185a0.58,0.58,0,0,0-.39,0,0.61,0.61,0,0,1-.28.14,1,1,0,0,1-.26-0.72,2.37,2.37,0,0,0-.33-0.32,1.22,1.22,0,0,0-.3-0.25c-0.58-.31-1.27.18-1.87,0.18a6,6,0,0,0-.78,0c-0.49.07-1,.2-1.47,0.27a3.86,3.86,0,0,0-1.14.41c-0.32.16-.7,0.24-1,0.43a10.56,10.56,0,0,0-.89.73c-0.14.11-.29,0.19-0.44,0.29s-0.27.24-.41,0.35c-0.5.39-1,.72-1.52,1.13a6,6,0,0,0-1.74,1.64,7.64,7.64,0,0,1-.54.93,10.43,10.43,0,0,1-.8.94,8.84,8.84,0,0,1-.85.86,1.73,1.73,0,0,1-.68.32c-0.31.1-.39,0.19-0.62-0.09a0.55,0.55,0,0,1-.09-0.49c0-.19.18-0.46,0-0.57a0.53,0.53,0,0,0-.59.3,2.31,2.31,0,0,1-.19.48c-0.38.47-1,0-1.35-.29a3.72,3.72,0,0,1-.51-0.42,0.88,0.88,0,0,1-.2-0.51,5.62,5.62,0,0,0-.37-1.22,3.09,3.09,0,0,1-.23-0.72,4,4,0,0,1-.14-1.18,1.74,1.74,0,0,1,.18-0.45,1.05,1.05,0,0,0-.1-0.69,7,7,0,0,0-.47-1.1,5.77,5.77,0,0,0-.34-0.64c-0.15-.19-0.35-0.27-0.45,0a2.27,2.27,0,0,0,.11,1,7.14,7.14,0,0,1,.51,1.92c0,0.36-.07.71-0.09,1.07s0.07,0.74.07,1.11a5,5,0,0,0,.41,1.74,5.63,5.63,0,0,0,.4.76c0.13,0.22.22,0.47,0.33,0.7s0.19,0.45.3,0.65a1.9,1.9,0,0,0,.32.5c0.21,0.15.28-.15,0.37-0.3a5.3,5.3,0,0,1,.44-0.54c0.16-.2.52-0.72,0.85-0.55s-0.56,1.13-.67,1.35-0.24.58-.35,0.88a2.75,2.75,0,0,1-.53.76,3.59,3.59,0,0,0-.53.67c-0.13.25-.24,0.5-0.35,0.75s-0.29.9-.69,0.81,0.16-1,.28-1.2a3.37,3.37,0,0,1,.32-0.67,0.63,0.63,0,0,0,.24-0.3,3.71,3.71,0,0,0-1.26.1,0.72,0.72,0,0,1-.47-0.31,0.58,0.58,0,0,1-.29-0.44,6.44,6.44,0,0,1,.25-1.31,0.72,0.72,0,0,0-.12-0.56,1.15,1.15,0,0,0-.55-0.28,3,3,0,0,1-.74-0.56,2.35,2.35,0,0,0-.56-0.59,0.31,0.31,0,0,0-.44.16,0.9,0.9,0,0,0,.4.56,1.56,1.56,0,0,1,.49,2.35,1.46,1.46,0,0,1-.84.87,0.33,0.33,0,0,1-.4-0.07,1.2,1.2,0,0,1-.16-0.62c0-.32,0-0.66,0-1s-0.13-.32-0.28-0.14a1,1,0,0,0-.11.72,0.85,0.85,0,0,1,0,.36s-1.62.48-1.87-.49-0.33-2.75-2.5-3.1-2.22-.28-2.89-1-0.86-1.22-1.39-1.36-1.29-.21-1.11-0.9,1.57-1.45,1-1.78-0.79-.85-1.2-0.62-1.37,1.8-1.9,1-0.6-1.83,0-2,2.29-.93,2.62-1.78,0.65-1.39.85-1.89,0.78-1.55.12-1.9-2-.63-2.2-1.39-0.33-2.11-.85-1.85-1.06,1-1.5.23-0.21-3.81-1.55-4.18-2.09-.3-2-1,0.81-3.89.23-4.16-2.11-1.28-2.34-.9-0.53,1.92-1.41,1.74-1.67.05-1.81-.88a16,16,0,0,0-.83-2.62c-0.09-.27-1-1.08-0.6-1.7h0a1.6,1.6,0,0,1,1-.56c2.15-.54,4.07-3.17,6.37-2.78s10.17,2.78,9.41.85-2.51-4.38-2.25-5.47,0.58-2.33-.05-2.93-1.24-.63-1.08-1.35-0.42-1.53-.47-2.51-0.85-2-.11-2.91,1.27-1.51.26-2.06-1.81-.71-1.56-1.37,0.35-2.14,1-1.82a8.3,8.3,0,0,0,3.49.34c0.93-.16,5.45-1.45,6.13-1.29s3.36,1.06,4,.58,3.78-2.62,4.6-2,2.33,2.46,2.88,1.9,1-1.11,1.67-1,3.46,0.69,3.17,1.21-0.54,1.43,0,1.56,1.09,0.11,1.25.85a1.81,1.81,0,0,1-.29,1.74c-0.42.5-1.21,0.85-.55,1.22s1.19,1.35,1.69.9,1.24-1.24,1.77-.9,1.61,1.27,2.64,1.16a42.24,42.24,0,0,0,4.9-1.52,0.16,0.16,0,0,0,.13.07,1,1,0,0,1,1.16.88c0.18,1,.49,2.22,1,2.47s1.83,0.32,1.94,1.16,0.46,1.73,1,1.8a2.51,2.51,0,0,1,2,.67c0.6,0.77.74,1.41,1.3,0.88s1.2-1.13,1.9-.85,1.13,0.28,1.34,1.16,0.32,1.8,1.06,2.11,2.54,0.74,2.5,1.48S331.88,158.81,331.25,159Z"/><path class="cls-18" d="M312.92,186.79a0.8,0.8,0,0,1,.17-0.51,0.92,0.92,0,0,1,.46-0.19c0.21,0,.38,0,0.28.29a4.36,4.36,0,0,0-.51.71,1.07,1.07,0,0,0,.21.35,0.9,0.9,0,0,1-.94,1,0.56,0.56,0,0,0-.24,0,0.83,0.83,0,0,0-.17.16,0.55,0.55,0,0,1-.33.23,0.81,0.81,0,0,0-.46.2c-0.11.11-.25,0.18-0.37,0.28a0.38,0.38,0,0,1-.3.15,2.43,2.43,0,0,1-.24-0.17,0.29,0.29,0,0,1-.23-0.12,0.23,0.23,0,0,1,.12-0.19,1.54,1.54,0,0,0,.24-0.21c0.1-.13.25-0.2,0.36-0.34a0.72,0.72,0,0,0,.16-0.36,0.49,0.49,0,0,1,.2-0.39,0.28,0.28,0,0,1,.39,0,0.52,0.52,0,0,1,0,.27c0,0.16,0,.33.17,0.2a2.5,2.5,0,0,0,.5-0.32,1.86,1.86,0,0,0,.11-0.15,3.6,3.6,0,0,0,.28-0.44A1.37,1.37,0,0,0,312.92,186.79Z"/><path class="cls-18" d="M324.34,183.4a0.61,0.61,0,0,1-.24-0.33,0.59,0.59,0,0,1,.43-0.82c0.11,0,.24,0,0.35,0a0.21,0.21,0,0,0,.12-0.09,0.28,0.28,0,0,1,.28-0.11,0.41,0.41,0,0,1,.21.69C325.25,183,324.85,183.78,324.34,183.4Z"/><path class="cls-7" d="M237.8,210.75c-0.11,0-.23,0-0.35-0.05s-0.2-.08-0.32-0.1a0.58,0.58,0,0,1-.48-0.24c-0.27-.66.89-0.21,1.14-0.14a10.93,10.93,0,0,0,1.21.19,1.48,1.48,0,0,0,.85-0.11,5.73,5.73,0,0,1,.75-0.36c0.27-.09.32,0,0.5,0.21a1.91,1.91,0,0,0,.75.36,1.76,1.76,0,0,0,.79.08l0.74-.13a0.89,0.89,0,0,1,.64,0c0.16,0.1.3,0.31,0.13,0.45a2.45,2.45,0,0,1-.71.23c-0.19.06-.34,0.19-0.52,0.25a1,1,0,0,1-.51,0,1.16,1.16,0,0,0-.42,0,1.89,1.89,0,0,1-.66,0,2.79,2.79,0,0,1-.65-0.14,3.51,3.51,0,0,0-.7-0.11,5.26,5.26,0,0,1-1.08-.12C238.55,210.93,238.17,210.86,237.8,210.75Z"/><path class="cls-19" d="M283.19,209.8a0.36,0.36,0,0,1,.14.11,0.57,0.57,0,0,1,.12.45c-0.1.3-.43,0.1-0.56-0.06S282.8,209.64,283.19,209.8Z"/><path class="cls-7" d="M285.62,209.17l-0.77.22,0-.09a7.45,7.45,0,0,0-.89-1.69,1.7,1.7,0,0,0-.37-0.48c-0.18-.15-0.25-0.13-0.36.08a1.46,1.46,0,0,0-.13.33,0.59,0.59,0,0,1-.09.35c-0.17.13-.36-0.13-0.41-0.26a0.91,0.91,0,0,0-.37-0.58,1.82,1.82,0,0,1-.58-0.52,1.54,1.54,0,0,1-.42-0.64,0.5,0.5,0,0,1,.09-0.55,0.49,0.49,0,0,1,.32-0.19c0.15,0,.28.1,0.42,0.07a3.76,3.76,0,0,1,.42-0.32c0.4,0,.77,1.12,1,0.25a2.44,2.44,0,0,0-.06-1.08,0.39,0.39,0,0,1,.06-0.49,0.77,0.77,0,0,1,.6-0.06,1.26,1.26,0,0,1,.14,1,3.77,3.77,0,0,0,.19,1.34,6.55,6.55,0,0,1,.3,1.13,6.18,6.18,0,0,0,.81,2Z"/><path class="cls-7" d="M289.58,197.37c-0.26.33-.46,0.69-0.7,1a1.4,1.4,0,0,1-.66.45c-0.24.09-.51,0.07-0.74,0.15a3.06,3.06,0,0,0-.81.58,8.83,8.83,0,0,0-.75.69c-0.42.44-1,.74-1.4,1.15a13.58,13.58,0,0,0-.94,1.15,2.13,2.13,0,0,1-1.4.41c-0.59,0-1.66-.33-2,0.34a1.68,1.68,0,0,0,0,1.28,1.89,1.89,0,0,1,.1.74,4.15,4.15,0,0,1-.39.92,5.44,5.44,0,0,1-.68,1.62,11.34,11.34,0,0,0-.94,1.06,1.32,1.32,0,0,1-.51.48,0.64,0.64,0,0,0-.3.22,0.71,0.71,0,0,1-.71.3,1.92,1.92,0,0,1-.56-0.63,1.24,1.24,0,0,1-.37-0.3,1.67,1.67,0,0,0-.13-0.52,2.88,2.88,0,0,0-.46-0.29,1,1,0,0,1-.32-0.85c0.14-.37.79,0,0.83-0.51a2.57,2.57,0,0,1,.23-1.16,0.75,0.75,0,0,1,.48-0.24,2.54,2.54,0,0,1,.61-0.32,0.87,0.87,0,0,1,.65,0,3.37,3.37,0,0,1,.26.65c0.25,0.36.7-.24,0.74-0.52a2,2,0,0,0-.21-1.28,4.18,4.18,0,0,1-.33-0.57,2.19,2.19,0,0,0-.3-0.67c-0.19-.22-0.82-0.33-0.65.14a4.19,4.19,0,0,1,.34.62,0.9,0.9,0,0,1-.17.63,1,1,0,0,1-1.2.54c-0.21-.09-0.36-0.27-0.56-0.36s-0.37,0-.49,0a1.92,1.92,0,0,1-.25-0.49,2.38,2.38,0,0,1-.24-0.35c-0.16-.33-0.14-0.51-0.57-0.53a1,1,0,0,0-.65.2,0.61,0.61,0,0,1-.55.17,1.61,1.61,0,0,1-.25-0.26,0.87,0.87,0,0,0-.39-0.23c-0.47-.05-0.27.5-0.07,0.69a1.42,1.42,0,0,1,.73.87,3.35,3.35,0,0,1-.09.59,2.28,2.28,0,0,1-.07.65,0.78,0.78,0,0,1-.39.42c-0.34.17-.38-0.15-0.39-0.44s0-1.2-.53-0.78c-0.31.24,0,.87,0.11,1.18a0.94,0.94,0,0,1,0,.48,0.62,0.62,0,0,1-.37.41,4.93,4.93,0,0,0-.56-0.35,1.84,1.84,0,0,1-.74.05c-0.39-.14-0.26-0.51-0.1-0.78a1.65,1.65,0,0,0,.29-0.49,2,2,0,0,0,0-.46,0.61,0.61,0,0,1,.16-0.51,2.23,2.23,0,0,1,.48-0.26,0.7,0.7,0,0,0,.11-1,6.09,6.09,0,0,0-.7-0.66,1.38,1.38,0,0,1-.23-0.88,1.26,1.26,0,0,0-.22-0.86,0.5,0.5,0,0,0-.72-0.15,1.71,1.71,0,0,0-.39.35,0.72,0.72,0,0,0-.23.3,0.56,0.56,0,0,0,.21.46,2.9,2.9,0,0,1,.26.45,2,2,0,0,0,.64.74,1.87,1.87,0,0,1,.62.73,1,1,0,0,1-.23,1.08c-0.5.42-.35-0.67-0.53-0.88s-0.66-.25-0.7.08a1,1,0,0,0,.18.53,1.23,1.23,0,0,1,.12.55,0.7,0.7,0,0,1-.6.81,0.49,0.49,0,0,1-.67-0.33c-0.07-.2-0.22-0.57-0.49-0.43a1.54,1.54,0,0,0-.33.39c-0.39.36-.89-0.07-1.13-0.36-0.48-.59-1-1.13-1.45-1.75a2,2,0,0,0-.52-0.58,0.32,0.32,0,0,0-.52.07c-0.12.15-.09,0.55-0.37,0.53s-0.25-.57-0.48-0.64a0.88,0.88,0,0,0-.42.48c-0.07.07,0,.11-0.16,0.09a1.13,1.13,0,0,1-.35-0.25,3.61,3.61,0,0,0-.9-0.54,0.54,0.54,0,0,0-.37-0.05,1.67,1.67,0,0,0-.2.24,0.85,0.85,0,0,0-.33.39,2.3,2.3,0,0,0,0,.52s-1-.78-1.59-1.33-1.31,3.49-1.33,3.6a0.49,0.49,0,0,0-.21.06,7.75,7.75,0,0,0-.51.62,1.37,1.37,0,0,0-.72.34,0.58,0.58,0,0,0,.15.77,1.82,1.82,0,0,1,.38.49c0,0.31-.52.22-0.74,0.32-0.7.33-.06,0.72-0.11,1.23a2.89,2.89,0,0,1-.84-0.17c-0.31,0-.63,0-0.94,0a2.51,2.51,0,0,1-1.49-1c-0.54-.49-0.78-0.82-1.44-0.26-0.25.21-.5,0.54-0.49,0a1.64,1.64,0,0,1,.4-0.84c0.13-.22.17-0.31,0-0.44a2,2,0,0,0-.91-0.13,1.5,1.5,0,0,0-.71.28,1.06,1.06,0,0,1-.63.36c-0.47-.12.12-1,0.18-1.34a5.07,5.07,0,0,0,.31-1.51c-0.79-.18-1.32,1.54-1.82,1.9s-1,.9-1.48.39a0.45,0.45,0,0,0-.22-0.24,0.94,0.94,0,0,0-.52,0c-0.36.19-.1,0.6-0.21,0.88-0.3.78-1.37,0.63-2,.63-1.36,0-2.68.17-4,.17a4.7,4.7,0,0,0-1.84.39c-0.59.24-1.28,0.14-1.86,0.36a0.86,0.86,0,0,0-.53.41c0.19,0,.33.18,0.51,0.23a2.71,2.71,0,0,0,.69,0,3.58,3.58,0,0,1,1.43.16c0.12,0.5-2.32.6-2.69,0.63a3.93,3.93,0,0,1-2.34-.35,5.57,5.57,0,0,0-3.07-.92,3.11,3.11,0,0,1-2.15-.68c-0.17-.18-0.2-0.15-0.06-0.4a1.08,1.08,0,0,1,.33-0.3,3.11,3.11,0,0,0,.78-0.6c0.53-.71-0.31-0.74-0.81-0.55a2,2,0,0,1-1.69-.16,5.25,5.25,0,0,1-1.3-.7,2.23,2.23,0,0,1-.42-0.71c-0.25-.4-0.37-0.16-0.71,0a0.86,0.86,0,0,1-.77-0.2,6.83,6.83,0,0,1-1.77-.91,0.77,0.77,0,0,0-.66-0.47,1.17,1.17,0,0,0-.41.85,1.52,1.52,0,0,1-.92.74,2,2,0,0,1-1,.14,1.25,1.25,0,0,1-.14-1.66c0.62-.72,1.61-0.68,2.51-0.91a5.21,5.21,0,0,0,1.93-.78,1.68,1.68,0,0,1,.61-0.6c0.32-.09.6,0.22,0.7-0.25a1.83,1.83,0,0,0-.28-1,1.41,1.41,0,0,0-.5-0.75,6.48,6.48,0,0,0-.78-0.48c-0.42-.2-0.47,0-0.71.27-0.49.62-1-.18-1.41-0.53a3,3,0,0,0-1.83-.42,9.11,9.11,0,0,0-1.24.07,1.79,1.79,0,0,0-.94.18,1.73,1.73,0,0,1-.49.63,1.59,1.59,0,0,1-.63-0.6c-0.48-.42-0.91-0.91-1.41-1.29a5.4,5.4,0,0,0-.7-0.51,3,3,0,0,1-.78-0.41,0.35,0.35,0,0,1-.16-0.32c0.51,0.08,1,.35,1.52.42,0.81,0.09,1.59-.2,2.39-0.16s1.64-.15,2.47-0.08a4.64,4.64,0,0,1,1,.34c0.29,0.09.63,0.06,0.91,0.15a10.53,10.53,0,0,1,1.07.73,8,8,0,0,0,1.33.35,3,3,0,0,0,.91.11,3.41,3.41,0,0,0,.88-0.43,4.14,4.14,0,0,1,1.23,0,7.79,7.79,0,0,1,1.63.14,10,10,0,0,0,2,.28,13.49,13.49,0,0,0,2.07,0c0.85-.14.12-1,0-1.41a1.06,1.06,0,0,0-.4-0.82,1.65,1.65,0,0,0-1,0c-0.54,0-1-.68-1.51-0.91a2.42,2.42,0,0,0-1.87.07,2.51,2.51,0,0,0-.81.56c-0.14.17-.27,0.7-0.57,0.5s0-1.15-.3-1.48-1.2-.28-1.69-0.38a3.09,3.09,0,0,1-1.4-.87,3.86,3.86,0,0,1-.23-1.28,5.45,5.45,0,0,0-.18-0.53s2.1-.65,2.08-1.54-0.67-1.72.26-1.5,1.62,0.79,1.44-.14,0.28-1,1.11-1.2,2.24,0,2-.65-0.3-1.2.6-1.18,2.84,0.33,2.84-.21,1.37-1.67,1.59-1.13-0.09.93,0.44,0.88,2.27-.46,2.55,0,0.48,1.34,1.29.9,3.13-.63,3-1.11-0.69-.92-0.11-1.37-1,0-.35-0.56,1.13,0.14,1.41-1a6.55,6.55,0,0,1,.72-2.15c0.37-.55.51-0.74-0.14-1s-2.2-1.92-1.83-2.17,1.35-.88,1.35-1.57-0.55-1.36.09-1.39a2,2,0,0,0,1.67-.76c0.81-.74,2-2.27,1.32-2.78s-1.09-.35-1.15-1.11,0.85-2.33.25-4.18c-0.54-1.65-.55-3.35-1-3.88,0.09,0,2.69-.32,3.38.28s1.46,1.76,2.63.9a11.32,11.32,0,0,1,2.92-1.94c0.83-.21,1.69-0.92,2.1-0.32s1.09,2.87,2.46,2.71,9.18-2.6,11.35.71h0c-0.4.62,0.51,1.42,0.6,1.7a16,16,0,0,1,.83,2.62c0.14,0.93.93,0.71,1.81,0.88s1.18-1.36,1.41-1.74,1.76,0.63,2.34.9-0.11,3.47-.23,4.16,0.63,0.62,2,1,1.11,3.45,1.55,4.18,1,0,1.5-.23,0.65,1.09.85,1.85,1.55,1,2.2,1.39,0.07,1.41-.12,1.9-0.51,1-.85,1.89-2,1.57-2.62,1.78-0.53,1.25,0,2,1.5-.77,1.9-1,0.6,0.28,1.2.62-0.79,1.09-1,1.78,0.58,0.76,1.11.9,0.72,0.62,1.39,1.36,0.72,0.67,2.89,1,2.26,2.13,2.5,3.1,1.87,0.49,1.87.49-0.06.16-.1,0.25a1.07,1.07,0,0,0-.11.62,0.4,0.4,0,0,0,.32.34C289.89,196.7,289.88,197,289.58,197.37Z"/><path class="cls-7" d="M214,205.23a1.44,1.44,0,0,0-.9-0.16,1.4,1.4,0,0,1-.72-0.34c-0.19-.15-0.39-0.26-0.58-0.39a0.81,0.81,0,0,1-.44-0.58c0-.26,0-0.5-0.09-0.75a2.27,2.27,0,0,0-.44-1.31,1.56,1.56,0,0,0-.62.67,1.45,1.45,0,0,0,.08,1,4.91,4.91,0,0,0,.57,1,1.77,1.77,0,0,1,.42.37,0.83,0.83,0,0,0,.3.24,4.86,4.86,0,0,0,.92.52c0.46,0.16.86,0.44,1.3,0.64s0.67,0.21,1,.32a7,7,0,0,0,1.12.09c0.22,0,.43.11,0.65,0.13s0.61,0,.92.07,0.77,0.14,1.16.22a4.69,4.69,0,0,0,1.2.2,6,6,0,0,1,1.16.21,4.62,4.62,0,0,1,1.17.22,5.1,5.1,0,0,0,.92.28c0.3,0.06.61,0,.91,0a4.87,4.87,0,0,1,.54.21,1.15,1.15,0,0,0,.63.05c0.24-.13-0.1-0.31-0.24-0.36s-0.5-.05-0.74-0.13a10.4,10.4,0,0,1-1.8-.46,10.35,10.35,0,0,0-1.57-.4,6.83,6.83,0,0,0-1.51-.42l-1-.11-0.79-.07a7.18,7.18,0,0,0-1,0,2.8,2.8,0,0,1-.91-0.11,5.39,5.39,0,0,1-.83-0.18,1.41,1.41,0,0,1-.49-0.25A2.36,2.36,0,0,0,214,205.23Z"/><path class="cls-7" d="M274.73,206.57a0.32,0.32,0,0,1-.34-0.24,1,1,0,0,1,.15-0.67,0.92,0.92,0,0,1,.51-0.77,0.61,0.61,0,0,1,.66.16A1.73,1.73,0,0,1,274.73,206.57Z"/><path class="cls-7" d="M281.46,208a1,1,0,0,1,.64.19,1.42,1.42,0,0,0,.52.07,0.29,0.29,0,0,1,.35.23c0.22,0.59-.36,1.39-1,0.87C281.83,209.14,280.81,208.09,281.46,208Z"/><path class="cls-7" d="M290.07,204.07a2.3,2.3,0,0,0-.37.16,1.12,1.12,0,0,0-.32.23,3.11,3.11,0,0,1-.82.53c-0.3.14-1.38,0.36-1.39-.2a1,1,0,0,1,.71-0.66,2.33,2.33,0,0,0,1-.71,2.82,2.82,0,0,0,.3-0.4c0.08-.15.09-0.34,0.16-0.49a1.07,1.07,0,0,1,.44-0.59,2.63,2.63,0,0,1,1-.09,1.31,1.31,0,0,0,1-.38,4,4,0,0,0,.31-0.89,6.39,6.39,0,0,1,.39-1c0.11-.19.6-1.07,0.94-0.72s-0.27,1-.43,1.24a1.71,1.71,0,0,0-.53.91,1.51,1.51,0,0,1-.21,1c-0.24.32-.38,0.7-0.66,1a4.6,4.6,0,0,1-.69.69A2.77,2.77,0,0,1,290.07,204.07Z"/><path class="cls-20" d="M322.76,131.36a5.34,5.34,0,0,0-.78,3.28c0.25,0.53.85,1.51,0.21,1.69s-1.9,1.83-2.36,1.34a1.49,1.49,0,0,0-1.59-.56c-0.42.25-2.08,0.35-2,1s0.35,1,0,1.62-0.63,1.13-.18,1.45,1.13,0.56.63,1.3a2.9,2.9,0,0,0-.51,2.11,42.24,42.24,0,0,1-4.9,1.52c-1,.11-2.11-0.82-2.64-1.16s-1.27.45-1.77,0.9-1-.53-1.69-0.9,0.13-.71.55-1.22A1.81,1.81,0,0,0,306,142c-0.16-.74-0.69-0.71-1.25-0.85s-0.31-1,0-1.56-2.51-1.08-3.17-1.21-1.11.42-1.67,1-2.06-1.24-2.88-1.9-3.91,1.48-4.6,2-3.35-.42-4-0.58-5.21,1.14-6.13,1.29a8.3,8.3,0,0,1-3.49-.34c-0.69-.32-0.79,1.16-1,1.82s0.56,0.82,1.56,1.37,0.48,1.16-.26,2.06,0.05,1.93.11,2.91,0.63,1.8.47,2.51,0.45,0.74,1.08,1.35,0.32,1.85.05,2.93,1.48,3.54,2.25,5.47-7.11-.45-9.41-0.85-4.22,2.23-6.37,2.78a1.6,1.6,0,0,0-1,.56c-2.17-3.32-10-.87-11.35-0.71s-2.06-2.11-2.46-2.71-1.27.11-2.1,0.32a11.32,11.32,0,0,0-2.92,1.94c-1.16.86-1.92-.28-2.63-0.9s-3.29-.29-3.38-0.28a0.48,0.48,0,0,0-.2-0.14c-0.69-.26-2.48-0.32-2.7-1.22s-0.81-2.06.07-2.47,3.38-1,2.36-2.1-1.32-1.53-1.18-2.24,0.7-2.4,0-2.63-0.74-.18-0.9-0.65a3,3,0,0,1-.12-1.79,2.11,2.11,0,0,1,.44-0.8,45.81,45.81,0,0,1,3.51-3.67c0.56-.4,1.09-1.18,1.27-0.92s0.6,0.83,1.06.49a13.78,13.78,0,0,0,2.66-2.46,21.4,21.4,0,0,1,1.52-2.41c0.3-.33.69-0.54,0.07-1.5s-1.36-1.92-1.13-2.59,0.4-2-.18-2.43-0.83-.58-0.51-1.29,0-1.44.79-1.53a9,9,0,0,0,1.81-.44,1.64,1.64,0,0,0,1.23-.65,0.87,0.87,0,0,1,.79-0.86,2.68,2.68,0,0,0,2.15-1c0.49-.83.53-1.59-0.18-1.85s-4.12-1.3-3.8-1.9a1.62,1.62,0,0,1,1.69-.83c0.85,0,2.59.56,3,0s0.55-1.42,1.3-1.79a8.2,8.2,0,0,1,1.1-.59h0a1,1,0,0,1,1,.3c0.85,0.74,4.9,3.42,5.78,2.25s1.83-2.25,1.23-3.35a7.22,7.22,0,0,1-1-4.05c0.14-1.51.09-3.56,1.17-3.52s3.05,1,3.69,0,0.67-2,1.73-1.9,2,0.44,2.64,0,1.3-1.93,2.15-1.44a1.65,1.65,0,0,0,2,.14,2.52,2.52,0,0,1,1-.27c1.48-.22,4.12-0.23,5,0.56,1.23,1.06,3.81,3.52,5.36,3.91s3-.67,4.16,0,2,1.06,3.1.42,2.78-2,3.66-1.55,1.23,0.78,1.23,1.52-0.14,1.76.39,2.08,3.17,1.73,2.92,2.43a1.08,1.08,0,0,0,.28,1.44c0.46,0.32,2.61,1.41,2.46,2.54s-0.72,2.43,0,2.85,2.32,1.13,2.92-.39,0.67-3.56,1.44-3.1,3.06,2.15,4.51,1.55a3.2,3.2,0,0,0,.56-0.3c0.89-.59,1-1.28,1.94-0.86,1.13,0.49,2.78,1,2.18,2.22a6.84,6.84,0,0,0-.92,3.17c0,1.06-.07,3.91.74,4.23S323.29,130.69,322.76,131.36Z"/><path class="cls-21" d="M257.28,118.06h0a8.2,8.2,0,0,0-1.1.59c-0.76.37-.9,1.23-1.3,1.79s-2.15,0-3,0a1.62,1.62,0,0,0-1.69.83c-0.32.6,3.1,1.64,3.8,1.9s0.67,1,.18,1.85a2.68,2.68,0,0,1-2.15,1,0.87,0.87,0,0,0-.79.86,1.64,1.64,0,0,1-1.23.65,9,9,0,0,1-1.81.44c-0.83.09-.48,0.83-0.79,1.53s-0.07.87,0.51,1.29,0.41,1.76.18,2.43,0.51,1.64,1.13,2.59,0.23,1.16-.07,1.5a21.4,21.4,0,0,0-1.52,2.41,13.78,13.78,0,0,1-2.66,2.46c-0.46.34-.88-0.23-1.06-0.49s-0.71.51-1.27,0.92a45.81,45.81,0,0,0-3.51,3.67,2.11,2.11,0,0,0-.44.8l-1.93-1.44a6.18,6.18,0,0,0-1.13,1.77c-0.11.59-1.24,0-1.62-.32s-0.56.25-.81,0.63,0,0.71.45,1.2-1.15,1.29-1.6,1.49-0.57,1.4-.44,2.14-3.46,1-5.11,1.53-2.5-.13-3.36-0.32a1.13,1.13,0,0,0-1.26,1.21,0.79,0.79,0,0,1-.86.78c-0.44,0-.28.37-1.1,0.61s-0.75-1-.93-1.63-1.47-.32-2.17-0.71-1,1.1-1.63,1-0.87-3.28-1.1-4.39-1.1-1-1.56-1.08,0.48-2.83.66-3.55-2.11-.87-3.49-1.34-3.87-.16-4.87-0.15a45.17,45.17,0,0,1-5-.62c-1-.17-0.73-1.62-0.58-2.22s-0.48-.45-1.16-0.59-2.14,1.82-2.75,2.37a1.8,1.8,0,0,1-1.57.24,1.6,1.6,0,0,0-1.08.21c-0.94.36-2.6-.26-3.35-0.71s-0.6.41-1.18,1-2.67.57-3.57,0.49-0.78.36-1.06,0.71-0.5.11-.89-0.33-1.92,1-1.92,1a0.48,0.48,0,0,0-.44-0.15c-0.9,0-3.56.51-4.69-.46s-0.53-2.4-1.09-2.75-0.51-.51-1-0.37-2.15.63-2.11,1.07,0.46,1.36-.24,1.25a5.14,5.14,0,0,0-1.48-.23c0-.1-0.23-2.39-0.34-3a1,1,0,0,1,.71-1.16c0.56-.28,1.35-2.45,1.66-3.13s0.55,0.7,1.15,1,1-.65,1.09-1.39a0.68,0.68,0,0,1,.32-0.51,3.92,3.92,0,0,1,1.44-.19c1-.07.54-0.37,1-1s2.5-.44,3.7-0.88a2.07,2.07,0,0,0,1.52-1.52c0.3-.63,1.71-0.83,2.4-0.69s2.1-2.87,2.17-3.68,1.41-1.94,1.62-2.68,1.15-.53,2.06-0.6,1.27,0.39,2,.77,0.78-.11,1.66-0.46,2.52,0.32,3.47.67,1.74-.65,2.24-1.09,1,0.39,1.59.69,4.05-.76,5-0.72,1.39-1.71,1.78-2-0.55-1.85-.55-2.5,1.76-.86,2.24-0.88a3.13,3.13,0,0,0,1.46-.88c0.42-.35,0-0.58-0.3-0.93s0-1.13.18-2.36,1,1,1.41.55,0.33,1.2.25,2,1.11,1.16,1.78,1.59,0.67-.51,1-1.2,1.67,0.42,2.26.72,0.61-.12,1.09-0.46,0.35-.67-0.12-1.3,0.44-.44,1.18-0.74,0.58-1.39.46-2.41,2.78-.62,3.59-0.69,1.71,2.73,2.43,3.46a2.63,2.63,0,0,0,2.85.19,6.57,6.57,0,0,1,3-.23,1,1,0,0,0,1-1.29,6.88,6.88,0,0,1,3.45-3.7l0.32-.12c2.7-.93,5.31.86,6,0.89s0.72,1,.41,1.7,0.21,1.27.46,1.94,0.94,1.1,2.89,1.67,2.87-.73,3.66-1.23,2.25-.33,4.07-0.07A4.76,4.76,0,0,1,257.28,118.06Z"/><path class="cls-22" d="M287.45,92.37a8.12,8.12,0,0,0-.11,1.83c-0.07.72-1.22-.09-2.1-0.49s-1.32,1.08-1.46,1.9,0.72,1.6,1.41,2.26-0.49,1.62-.76,2.33-0.6.39-1.43,0.3a3,3,0,0,0-2.08,1.11c-0.65.55-2.06,0-3,0s-1,1.73-.4,2.25a7,7,0,0,1,1.08,2.35,2.52,2.52,0,0,0-1,.27,1.65,1.65,0,0,1-2-.14c-0.85-.49-1.48,1-2.15,1.44s-1.59.11-2.64,0-1.09.88-1.73,1.9-2.61,0-3.69,0-1,2-1.17,3.52a7.22,7.22,0,0,0,1,4.05c0.6,1.09-.35,2.18-1.23,3.35s-4.93-1.51-5.78-2.25a1,1,0,0,0-1-.3,4.76,4.76,0,0,0-2.83-1.52c-1.82-.26-3.28-0.44-4.07.07s-1.7,1.8-3.66,1.23-2.64-1-2.89-1.67-0.78-1.23-.46-1.94,0.28-1.66-.41-1.7-3.3-1.83-6-.89l-0.32.12s-5.13-8.77-5.88-10-1-6-1-7.4-2.75-2.57-3.54-3.22-0.42-1.13-.44-2-2.11-1.22-3.44-1.66-0.07-3.58.26-4.21-5.29-6.1-6.29-7,1.22-3.62,1.22-3.62c0.25,0.08.33-.27,1.58-0.58,1.72-.42,1.48-1.08,2-1.69s1.22,0.08,2,.26a1.46,1.46,0,0,1,1.09,1.08c0.24,0.5,1.48-.5,2.46-0.87a11.15,11.15,0,0,1,3.33-.4c1,0,5.51-5.06,5.51-5.06s1.19,0.71,1.73.29,1.18-2,2.08-1.27a5.18,5.18,0,0,0,3.51,1.67c1.81,0.05,9.58.78,9.34,0.19s-1.27-1.23-.62-1.78,0.88-1.6,1.48-.79,0.9,2.31,1.59,2.27a2.88,2.88,0,0,0,2.22-.71c0.51-.66.18-1.65,1.07-2s1.89-.85,1.94.3-0.05,2.39.69,2.73,3,0.25,2.71,1-0.48,2.06.25,2.2S267,71,267.12,71.87s0.48,0.7-.11,1.32-1.32,1.25-.83,1.67,1.09,1.22,1.62.49,1.92-2.41,2.87-2,2.78,1.31,2.86,1.36c0,0.67.89,1.53,1.4,2.31,0.67,1-1.18,2-1.67,2.71s0.34,0.58,1,1.07a3.26,3.26,0,0,0,2,.63c0.92,0.13.46,0.55,0.92,1.08s1.92,0.63,3.15.79,1,2,1.11,3.15,3.42,2.08,3.84,2.24a1.19,1.19,0,0,1,.62,1.14c0.11,0.63,1.15.72,1.8,1.16S287.64,91.88,287.45,92.37Z"/><path class="cls-23" d="M233.19,115.45a1,1,0,0,1-1,1.29,6.57,6.57,0,0,0-3,.23,2.63,2.63,0,0,1-2.85-.19c-0.72-.72-1.62-3.52-2.43-3.46s-3.72-.33-3.59.69,0.28,2.11-.46,2.41-1.66.11-1.18,0.74,0.6,1,.12,1.3-0.51.76-1.09,0.46-1.89-1.41-2.26-.72-0.37,1.62-1,1.2-1.87-.77-1.78-1.59,0.21-2.48-.25-2-1.2-1.78-1.41-.55-0.46,2-.18,2.36,0.72,0.58.3,0.93a3.13,3.13,0,0,1-1.46.88c-0.48,0-2.24.23-2.24,0.88s0.93,2.25.55,2.5-0.81,2-1.78,2-4.39,1-5,.72-1.09-1.13-1.59-.69-1.29,1.44-2.24,1.09-2.59-1-3.47-.67-0.91.84-1.66,0.46-1.09-.85-2-0.77-1.85-.14-2.06.6-1.55,1.87-1.62,2.68-1.48,3.82-2.17,3.68-2.09.05-2.4,0.69a2.07,2.07,0,0,1-1.52,1.52c-1.2.44-3.26,0.23-3.7,0.88s0,1-1,1a3.92,3.92,0,0,0-1.44.19c0-.1-1.14-2.45-0.82-3.24s0.53-1.87-.16-2.25-1.76-1-1.76-2,0.32-1.09-.35-2-1.79-1.64-1.86-2.55,0.23-2.08-.77-2.41-2-.65-1.8-1.69,0.41-1.14-.28-1.76-1.2-1-.58-1.83,2-1.48,2-2.25c0-.62-0.53-1.25-0.3-1.46a0.48,0.48,0,0,1,.33-0.07c0.85,0,2.17.74,2.94-.14s1.65-3.07,2.55-2.78,1.67,1,1.74.32,0-2.34,1.39-2.08,5.92,2.7,6.18,1.39-0.3-1.83,1.18-2.31,5.74-1.64,6.06-1.13,0.83,1.25,1.41.93,1.87-.23,1.78-1-0.51-2.33.54-2.59,3.17-.18,3.22-0.88a7.1,7.1,0,0,1,.85-2.7c0.41-.56.79-0.86,0.28-1.34s-1.46-.51-1-1.22,1.72-2.73,1.71-3.89-0.55-2.57.19-3.07,1.37-.58,1.39-1.07a1,1,0,0,1,.67-1c0.44-.23,2.5-0.88,3.43-1.22s1.46-.37,1.74.25,1.14,1.43,1.9.78,3-1.46,2.94-2.24-0.21-2.33.6-2.29a1.89,1.89,0,0,0,1.48-.23c0.46-.32,1.46-1,0.39-1.5s-1.59-.67-1.29-1.48,4-3.95,4-3.95c1,0.9,6.62,6.36,6.29,7s-1.59,3.77-.26,4.21,3.42,0.78,3.44,1.66-0.35,1.36.44,2,3.47,1.82,3.54,3.22,0.28,6.22,1,7.4,5.88,10,5.88,10A6.88,6.88,0,0,0,233.19,115.45Z"/><path class="cls-21" d="M129.26,113.06c-0.9,0-1.53-.26-1.85.32s-1,1.45-1.59.93-1.56-1.14-2.06-.77-0.79,1.21-1.4,1.06-1.8-.85-1.8.11,0.34,2-.26,2.09-1.19-.34-1.45.77-0.68,4.52-.13,5.2,1.53,2.22,1.19,3.22-0.76,4.9-2.36,5.86c-0.44-.27-1-0.45-0.91,0,0.13,0.63.29,2.11-.32,2s-1.8-1-2.64-.66a4.13,4.13,0,0,1-2,.51,3.47,3.47,0,0,0-2.06-.16c-0.45.29-1.32,1-1.69,0.52s-0.86-2.61-1.22-1.34-0.32,1.85-1.32,1.56-2.88-.61-2.43-0.07,2.07,2.22,1,1.84-1.63-.83-1.49-0.34,0.73,2.1,0,1.21-1.57-3.13-3-2.63-2.5,1.48-2.92.87a2.69,2.69,0,0,0-.59-0.91s1.18-1.08.63-1.56-2.33-2-2.14-3,1-1.06.29-1.88-0.29-1.06-.3-1.64,0.41-1.64.09-2.17a3.14,3.14,0,0,1-.63-1.77c0.08-.55.85-1.56,0.24-2.27s-0.37-.74-0.13-1.27a1.44,1.44,0,0,0,.11-1.67,1.38,1.38,0,0,1-.27-1.82c0.42-.85.32-3.25,0.66-3.52s1.14-.4,1-1,0.37-1.19-.09-1.93-1.2-1.19-.7-1.56,1-.79.46-1.32A5.26,5.26,0,0,1,94,103c0-.77-0.32-2.67.13-3.3s1.4-1,1.16-1.77a7.79,7.79,0,0,1-.53-2.85c0.18-.48.66-0.5,0.18-1.19s-1.35-1.53-1-2.27,0.85-.66.11-1.72-1.43-2.75-.52-3.25,1.59-1,1.34-1.85,0.48-1.45,0-2-0.56-.9.21-1.35l0.26-.14a3.61,3.61,0,0,0,1.51-1.12c0.45-.66.9-1.69,2.06-1.8s1.53-.58,1.48-1.14a3.24,3.24,0,0,1,1.14-2c0.47-.32,2.9-1.11,3.09-2s0.29-1.53.93-1.56a2.09,2.09,0,0,0,2-.69c0.48-.77.48-1.8,1.24-1.72s2.8,0.31,3,0,0.58-1.39,1.08-1.18a10.72,10.72,0,0,1,1.47.56,0.75,0.75,0,0,1,.48.71c-0.11.77-.32,1.14,0.42,1.3s1.67,0.05,1.9.77,1.24,1.29.71,1.9a1.8,1.8,0,0,0,0,2.35,7.73,7.73,0,0,1,1.45,1.51c0.42,0.77-.19,1.27,1.16,1.56s3.33,0,2.72,1-0.94,1.48-.39,2.43a4.35,4.35,0,0,1,.92,2.27c0,0.77.58,1,0,1.19s-2.33.11-1.43,1.24,0.69,1.51.37,1.88a0.67,0.67,0,0,0,.14,1.14c0.52,0.16.89,0,1,.82s-0.71,2.78,1.67,3.44c1.46,0.41,2.15.54,2.32,0.83a0.9,0.9,0,0,1-.21.83c-0.58,1.06-.53,1-0.11,1.82a1.66,1.66,0,0,1,.11,2.09c-0.55,1-.61,1.69-1.35,1.77a0.89,0.89,0,0,0-.58,1.51c0.58,0.48,2.22,2.35,2.06,2.78s-0.87.92-.24,1.72,1.24,1.48,1,2-0.71.9-.21,1.53S130.15,113.06,129.26,113.06Z"/><path class="cls-24" d="M95.91,134.21a1.2,1.2,0,0,0-.47-0.11c-0.82-.05-1.37.15-1.61-0.35s-1.15-3.07-1.28-2.11-0.07,2.31-.59,1.73S91,130.43,90,130.84s-2.17,1.51-2.81,1.06-1.37-2.15-2-1.81-0.92.93-1.41,0.5A1.09,1.09,0,0,0,82.9,130a1,1,0,0,1-.9-0.18,0.38,0.38,0,0,1,0-.19c0.13-.45.44-0.77,0-1.11a2.32,2.32,0,0,1-.71-1.37c0-.29.42-0.6-0.13-0.75a1.75,1.75,0,0,1-1.08-.73,10.28,10.28,0,0,0-1.22-.83c-0.16-.21-0.91-1.65-1-1.25s-0.15,1.11-.74.71-0.93-.77-0.94-0.32-0.29,2-.75,1.52-0.34-.82-0.69-0.5-0.5,1-.69.49-0.17-.75.34-0.78,1.26,0.2.94-.46-0.5-1.3-.85-1.07-0.86.74-.73,0.2a1.55,1.55,0,0,0,0-1.54c-0.41-.4-0.88-0.63-1-0.09s-0.12,1.4-.46.9-0.13-1.86-.53-2a1.75,1.75,0,0,1-1-.37c-0.07-.25-0.29-1-0.79-0.85s-1.19,1.09-1.31.59-0.12-2-.67-2.18a3.29,3.29,0,0,1-1.61-.87,0.71,0.71,0,0,1,0-1.08c0.32-.28,1.16-0.82.92-1.15s-1.33-1.06-1.24-1.88,0.5-1.8.28-2.26a2.14,2.14,0,0,1-.42-1.29,2.47,2.47,0,0,0-.57-1.63c-0.36-.49-0.22-1-0.59-1.26a5,5,0,0,1-1-1.88A9.1,9.1,0,0,1,63,101a1.65,1.65,0,0,1,.09-0.43c0.38-1,.3-1.68,1-1.67s1.33,0.48,2-.33,0.55-1.36,1.31-1.4,1.6,0.11,1.49-.56-0.37-2.44.61-2.37,1.55,0.42,1.77,0a3.33,3.33,0,0,0,.63-1.78c-0.11-.58-0.81-1.06-0.25-1.28s0.57-.65,1.31-0.28a3,3,0,0,0,1.39.58c0.46,0,1.51-.09,1.37-0.55a1.07,1.07,0,0,1,1-1.24c0.69,0,3.16-.21,2.3-1.22a31.31,31.31,0,0,1-2.3-3.13c0.08-.08,3.24-2.2,2.71-2.78s-1-.86-0.41-1.43,0.56-.93,1-0.6,0.44,0.93,1.65.62,0.88-1.43,1.66-.9,1.5,1.14,2.63.42,2.75-1.32,3-2.2,0.51-2.59,1.37-2.11,2.32,2.55,2.81,2.4,1.82-.79,2.1.12a8,8,0,0,1,.14,2.44l-0.26.14c-0.77.45-.69,0.77-0.21,1.35s-0.24,1.22,0,2-0.43,1.35-1.34,1.85-0.22,2.19.52,3.25,0.24,1-.11,1.72,0.53,1.59,1,2.27,0,0.71-.18,1.19A7.79,7.79,0,0,0,95.33,98c0.24,0.79-.71,1.14-1.16,1.77S94,102.28,94,103a5.26,5.26,0,0,0,1.1,2.75c0.52,0.53,0,1-.46,1.32s0.24,0.82.7,1.56,0,1.32.09,1.93-0.66.74-1,1-0.24,2.67-.66,3.52a1.38,1.38,0,0,0,.27,1.82,1.44,1.44,0,0,1-.11,1.67c-0.24.53-.48,0.55,0.13,1.27s-0.16,1.72-.24,2.27a3.14,3.14,0,0,0,.63,1.77c0.32,0.53-.11,1.59-0.09,2.17s-0.38.82,0.3,1.64-0.11.87-.29,1.88,1.59,2.56,2.14,3S95.91,134.21,95.91,134.21Z"/><polygon class="cls-25" points="183.64 68.07 184.92 70.66 187.77 71.07 185.71 73.08 186.19 75.93 183.64 74.58 181.09 75.93 181.58 73.08 179.51 71.07 182.37 70.66 183.64 68.07"/></svg>