<?xml version="1.0" encoding="utf-8"?>
<!-- Generator: Adobe Illustrator 19.0.0, SVG Export Plug-In . SVG Version: 6.00 Build 0)  -->
<svg version="1.1" id="Layer_1" xmlns="http://www.w3.org/2000/svg" xmlns:xlink="http://www.w3.org/1999/xlink" x="0px" y="0px"
	 viewBox="-161.7 333 243.1 113.1" style="enable-background:new -161.7 333 243.1 113.1;" xml:space="preserve">
<style type="text/css">
	.st0{fill:#937BAD;}
	.st1{fill:#AD4A6B;}
	.st2{fill:#7B5181;}
	.st3{fill:#A09CD6;}
	.st4{fill:#9C3140;}
	.st5{fill:#BF4C6C;}
	.st6{fill:#A44565;}
	.st7{fill:#F33737;}
	.st8{fill:#BF4C6D;}
	.st9{fill:#8F678C;}
	.st10{fill:#54365C;}
	.st11{fill:#666666;}
	.st12{fill:#D54253;}
	.st13{fill:#F25161;}
	.st14{fill:#DD2330;}
	.st15{fill:#F8725F;}
	.st16{fill:#F46C3A;}
	.st17{fill:#FEAA2E;}
	.st18{fill:#FD8A54;}
	.st19{fill:#FDE399;}
	.st20{fill:#FCBA64;}
	.st21{fill:#F9C348;}
	.st22{fill:#4FA9A9;}
	.st23{fill:#79D19F;}
	.st24{fill:#3EA38F;}
	.st25{fill:#68CA8B;}
	.st26{fill:#C4E1B3;}
	.st27{fill:#7AD6B1;}
	.st28{fill:#42B7A4;}
	.st29{fill:#5ACAB1;}
	.st30{fill:#1B9874;}
	.st31{fill:#279282;}
	.st32{fill:#8FD3BA;}
	.st33{fill:#4FC2A3;}
	.st34{fill:#7CCE9B;}
	.st35{fill:#21B688;}
	.st36{fill:#75CBAC;}
	.st37{fill:#B7D3A0;}
	.st38{fill:#DBE3A8;}
	.st39{fill:#EFD972;}
	.st40{fill:#EFCC3C;}
	.st41{fill:#45C19F;}
	.st42{fill:#D9DDA2;}
	.st43{fill:#C3E1A5;}
	.st44{fill:#EEF5C1;}
	.st45{fill:#FFF1B3;}
	.st46{fill:#EEE8AA;}
	.st47{fill:#E2EAC3;}
	.st48{fill:#F2AB37;}
	.st49{fill:#F8D84C;}
	.st50{fill:#F58C65;}
	.st51{fill:#F46B3A;}
	.st52{fill:#F56855;}
	.st53{fill:#FCBA27;}
	.st54{fill:#F8E05A;}
	.st55{fill:#F9871C;}
	.st56{fill:#EC3631;}
	.st57{fill:#C63D4F;}
	.st58{fill:#BA7081;}
</style>
<title>polygon</title>
<polygon class="st0" points="37.6,446.5 37.6,431.3 22.6,408.9 29.2,446.5 "/>
<polygon class="st0" points="22.6,387 -3.1,394.2 22.6,408.9 "/>
<polygon class="st1" points="22.6,387 22.6,408.9 37.6,431.3 78.2,394.2 "/>
<polygon class="st2" points="-3.1,394.2 22.6,408.9 29.2,446.5 18.2,446.5 "/>
<polygon class="st3" points="78.2,394.2 37.6,431.3 37.6,446.5 56.9,446.5 "/>
<polygon class="st4" points="-42.1,446.5 -44.6,432.4 -49.5,446.5 "/>
<polygon class="st5" points="-44.6,432.4 -16.1,446.5 -12.5,446.5 -23.9,431.3 "/>
<polygon class="st6" points="-52.2,422.4 -51.6,446.5 -49.5,446.5 -44.6,432.4 -23.9,431.3 "/>
<polygon class="st7" points="-23.9,431.3 -12.5,446.5 -9,446.5 3.4,421 "/>
<polygon class="st8" points="3.4,421 -9,446.5 9.6,446.5 "/>
<polygon class="st9" points="81.4,446.5 72,446.5 81.4,433.5 "/>
<polygon class="st10" points="-3.1,394.2 9.6,446.5 18.2,446.5 "/>
<polygon class="st0" points="78.2,394.2 81.4,398.1 81.4,433.5 72,446.5 56.9,446.5 "/>
<polygon class="st11" points="78.2,394.2 81.4,394.3 81.4,393.6 "/>
<polygon class="st12" points="78.2,394.2 81.4,394.3 81.4,398.1 "/>
<polygon class="st6" points="78.2,394.2 81.4,385.5 81.4,393.6 "/>
<polygon class="st10" points="63.6,392.3 78.2,394.2 81.4,385.5 81.4,374.9 "/>
<polygon class="st13" points="-3.1,394.2 -19.4,375.8 3.7,362.4 22.6,387 "/>
<polygon class="st14" points="-19.4,375.8 -3.1,394.2 3.4,421 "/>
<polygon class="st15" points="-19.4,375.8 3.7,362.4 -17.4,336.9 "/>
<polygon class="st16" points="-50.4,362.3 -17.4,336.9 -19.4,375.8 "/>
<polygon class="st17" points="-50.4,362.3 -68,354.6 -48.5,335.8 -27.8,344.9 "/>
<polygon class="st18" points="-19.4,375.8 -50.4,362.3 3.4,421 "/>
<polygon class="st19" points="-77.3,338.6 -96.8,357.3 -48.1,380.7 -68,354.6 -59.4,346.4 "/>
<polygon class="st20" points="-68,354.6 -48.1,380.7 -40.5,373 -50.4,362.3 "/>
<polygon class="st21" points="-96.8,357.3 -77.1,392.1 -60.4,400.4 -68.4,370.9 "/>
<polygon class="st13" points="-44.6,432.4 -42.1,446.5 -16.1,446.5 "/>
<polygon class="st22" points="-154.2,443.5 -152.5,446.5 -155.5,446.5 "/>
<polygon class="st23" points="-121.2,442 -124.2,446.5 -152.5,446.5 -154.2,443.5 "/>
<polygon class="st24" points="-154.2,443.5 -155.5,446.5 -157.6,446.5 "/>
<polygon class="st25" points="-124.2,446.5 -121.2,442 -121.5,446.5 "/>
<polygon class="st24" points="-121.2,442 -154.2,443.5 -137.3,434 "/>
<polygon class="st26" points="-111.7,436.6 -116.3,446.5 -121.5,446.5 -121.2,442 -137.3,434 "/>
<polygon class="st27" points="-137.3,434 -154.2,443.5 -155.4,414.8 "/>
<polygon class="st28" points="-155.4,414.8 -154.2,443.5 -157.6,446.5 -161.7,446.5 -161.7,423.5 "/>
<polygon class="st29" points="-161.7,407.1 -155.4,414.8 -161.7,423.5 "/>
<polygon class="st30" points="-155.4,414.8 -126.5,406.8 -143.4,427.5 "/>
<polygon class="st31" points="-161.7,394.6 -143.6,395.5 -140.5,387.9 -161.7,392.1 "/>
<polygon class="st32" points="-161.7,394.6 -143.6,395.5 -155.4,414.8 -161.7,407.1 "/>
<polygon class="st33" points="-126.5,406.8 -143.6,395.5 -155.4,414.8 "/>
<polygon class="st34" points="-140.5,387.9 -143.6,395.5 -126.5,406.8 "/>
<polygon class="st35" points="-161.7,354.3 -158.6,342.5 -140.5,387.9 -161.7,392.1 "/>
<polygon class="st36" points="-121.4,361.2 -140.5,387.9 -158.6,342.5 "/>
<polygon class="st30" points="-101.8,355.7 -121.4,361.2 -158.6,342.5 "/>
<polygon class="st26" points="-119.3,399.9 -140.5,387.9 -121.4,361.2 -105.5,382.9 "/>
<polygon class="st37" points="-101.8,355.7 -105.5,382.9 -121.4,361.2 "/>
<polygon class="st31" points="-161.7,354.3 -158.6,342.5 -161.7,346.1 "/>
<polygon class="st38" points="-119.3,399.9 -85.6,403.6 -80.4,374.5 -103.9,371.2 -105.5,382.9 "/>
<polygon class="st39" points="-107.6,416.4 -105,401.5 -85.6,403.6 "/>
<polygon class="st40" points="-107.6,416.4 -68.9,446.5 -68.6,446.5 -60.4,400.4 -83,389.1 -85.6,403.6 "/>
<polygon class="st41" points="-140.5,387.9 -119.3,399.9 -126.5,406.8 "/>
<polygon class="st37" points="-143.4,427.5 -126.5,406.8 -137.3,434 "/>
<polygon class="st42" points="-105,401.5 -126.5,406.8 -119.3,399.9 "/>
<polygon class="st43" points="-107.6,416.4 -126.5,406.8 -111.6,403.1 "/>
<polygon class="st44" points="-137.3,434 -107.6,416.4 -126.5,406.8 "/>
<polygon class="st45" points="-111.7,436.6 -107.6,416.4 -137.3,434 "/>
<polygon class="st46" points="-68.9,446.5 -107.6,416.4 -111.7,436.6 "/>
<polygon class="st42" points="-116.3,446.3 -69.3,446.3 -111.7,436.6 "/>
<polygon class="st47" points="-105,401.5 -107.6,416.4 -111.6,403.1 "/>
<polygon class="st48" points="-77.1,392.1 -82,383.5 -83,389.1 "/>
<polygon class="st49" points="-48.1,380.7 -60.4,400.4 -68.4,370.9 "/>
<polygon class="st16" points="-51.6,446.5 -69.3,446.3 -52.2,422.4 "/>
<polyline class="st50" points="-60.4,400.4 -52.2,422.4 -69.3,446.3 "/>
<polygon class="st51" points="3.4,421 -23.9,431.3 -10.2,406.1 "/>
<polygon class="st52" points="-40.5,373 -17.4,419.4 -10.2,406.1 "/>
<polygon class="st53" points="-60.4,400.4 -52.2,422.4 -40.5,373 "/>
<polygon class="st54" points="-48.1,380.7 -40.5,373 -60.4,400.4 "/>
<polygon class="st55" points="-52.2,422.4 -30.2,393.7 -40.5,373 "/>
<polygon class="st56" points="-23.9,431.3 -30.2,393.7 -17.4,419.4 "/>
<polygon class="st57" points="-52.2,422.4 -26.6,415.3 -23.9,431.3 "/>
<polygon class="st13" points="-30.2,393.7 -26.6,415.3 -52.2,422.4 "/>
<polygon class="st58" points="22.6,387 43.4,374.9 63.6,392.3 "/>
</svg>
