<svg xmlns="http://www.w3.org/2000/svg" viewBox="0 0 1061.79 1662.01"><defs><style>.cls-1{isolation:isolate;}.cls-2{fill:#ceb9a7;opacity:0.31;}.cls-3{fill:#353032;}.cls-4{fill:#f2ac7c;}.cls-5{fill:#b56248;}.cls-6{fill:#423a40;}.cls-7{fill:#bf6288;}.cls-8{fill:#cc7f9b;}.cls-9{fill:#f2f2f2;}.cls-10{fill:#c6c6c6;}.cls-11{fill:#511d1d;}.cls-12{fill:#381010;}.cls-13{opacity:0.3;}.cls-13,.cls-15{mix-blend-mode:screen;}.cls-14{fill:#bfd1d8;}.cls-15{opacity:0.5;}.cls-16{fill:#9e4970;}.cls-17{fill:#aa93c1;}.cls-18{fill:#eaded0;}.cls-19{fill:#d3c7ba;}.cls-20{fill:#cebae0;}.cls-21{fill:#816f96;}.cls-22{fill:#96602f;}</style></defs><title>02_teacher</title><g class="cls-1"><g id="_ÎÓÈ_2" data-name="‘ÎÓÈ_2"><path class="cls-2" d="M967.79,1516.34c-3.84-18.87-27.87-24.16-47.08-25.47-217.72-14.81-438-26.23-652.88,11.71-20.45,3.61-45.14,11.93-48.15,32.47-1.89,12.94,6.7,25.61,17.85,32.45s24.44,9,37.37,11A2193.41,2193.41,0,0,0,750.64,1598c64.58-4.39,130.71-12.14,188.12-42C954.4,1547.85,971.32,1533.62,967.79,1516.34Z"/><path class="cls-3" d="M537.45,445.88a4.57,4.57,0,0,1-4.34-6c2.27-6.94-.82-15.78-7.37-21-6-4.79-14.85-7-24.32-6.13-9.28.88-18.19,4.38-26.43,8A289.63,289.63,0,0,0,442,438a4.56,4.56,0,0,1-4.74-7.8,298.63,298.63,0,0,1,34-17.76c8.95-4,18.69-7.77,29.27-8.77,12-1.13,22.93,1.74,30.88,8.09,9.56,7.63,13.82,20.37,10.35,31A4.56,4.56,0,0,1,537.45,445.88Z"/><path class="cls-4" d="M214.75,722.16c-7.62-.4-15.15,2.76-21,7.66s-10.17,11.4-13.55,18.25c-3.51,7.12-6.13,15-5.23,22.91,1.53,13.34,12.73,23.65,24.75,29.62s25.37,8.9,37.39,14.9c3.55,1.77,7.1,3.85,11,4.28,6,0.66,11.84-2.69,16.23-6.88s7.83-9.3,12.24-13.48c-7.16-6.37-9.74-14.36-12.49-23.54s-0.49-24.3-5.64-32.38c-4.35-6.82-16.15-8.06-22.79-12.69C229.41,726.43,222.39,722.56,214.75,722.16Z"/><path class="cls-4" d="M513.25,232.2c-15.7,14.09-19.4,31.74-24.4,71-8.31,65.36-6.16,94.21-31.54,149.44-10,21.68-25.42,96.15,71,143.07,110.18,53.62,224.55,21.51,274-42.73S902,313.55,777.55,221.74C664.65,138.44,544,204.63,513.25,232.2Z"/><path class="cls-5" d="M602.32,449.16a3.14,3.14,0,0,1-2.4-5.16c9.32-11.08,23-37.87,9.85-92.83a3.14,3.14,0,0,1,6.1-1.46c5.92,24.74,12.33,70.41-11.16,98.33A3.13,3.13,0,0,1,602.32,449.16Z"/><path class="cls-4" d="M639.37,1148.95c0.09,0.49,42.05,270.45,47.73,277.62,6.55,8.28,33.66,15,31.57-3.53s-18.34-281.63-19-287.34S636.43,1130.48,639.37,1148.95Z"/><path class="cls-4" d="M516.51,1165.06c0,0.5-17.22,273.15-13.23,281.38,4.62,9.5,29.63,21.94,31.59,3.35s42.79-279,43.39-284.68S517.62,1146.4,516.51,1165.06Z"/><path class="cls-6" d="M498.53,1021.63s-18.88,82.76-26.14,127.29c30.25,31.5,78.81,42.8,128.43,46.59,69.66,5.32,139.83-23.84,139.83-23.84l-12.7-143.5Z"/><path class="cls-7" d="M578.31,682.86s-60.73,8.28-71.08,17.25c-6.64,5.75-77.77,116.34-118.69,181.18-2.44,3.87-91.64-89.16-116-103.86-6.46-3.9-45.61,38.64-41.85,43.57C239.43,832.4,386,967.27,403.09,967.38c26.42,0.18,99.59-132.13,99.59-132.13S488.94,905.52,462,1059.09c60.36,49.8,181.63,81.08,290,22.43-16.38-109.27-31.47-261.3-31.47-261.3s18.08,185.48,21,185.36c11.88-.49,56.44-11.09,70.1-27,17.46-20.32-60-257.25-64.38-264.88-11.71-20.34-68.11-25.38-68.11-25.38Z"/><path class="cls-7" d="M542.8,1449.9c-10.35,29.85-17.89,58.3-21.64,91.47a288.23,288.23,0,0,1-63.79,8c-1.29,0-2.56,0-3.85,0a286.84,286.84,0,0,1-81-11.52c-3.12-20.46-5.74-42.58,4.23-60.91s32.36-29.14,53.2-26.27c18.09,2.48,34.1,14.9,41.75,31.16,0.21,0.43.42,0.87,0.61,1.32-3.43-11.5-3.44-24-3.15-36.06,0.2-8.43.63-17.31,5.14-24.52s14.56-11.81,21.95-7.62c6.32,3.59,8.14,11.58,9.34,18.67,0.67,3.86,1.31,7.73,2,11.6l0.57,3.37c1-7,4.83-14.05,11.31-17.23a14.94,14.94,0,0,1,18.68,5.12C541,1441,542.8,1449.9,542.8,1449.9Z"/><path class="cls-8" d="M751,1465.51q-5.1,15.63-10.22,31.23c-1,3.06-2.05,6.23-4.21,8.58-2.87,3.14-7.19,4.34-11.3,5.23-2,.42-3.9.79-5.87,1.13a140.41,140.41,0,0,1-28.37,1.9c-2.73-.08-5.47-0.25-8.2-0.5-5.75-.52-11.85-1.57-16.14-5.51-3-2.73-4.73-6.51-6.41-10.18l-14.74-32.09c-1.21-2.66-2.47-5.51-2-8.4,0.71-4.8,5.54-7.62,9.83-9.74,2.7-1.33,5.51-2.69,8.52-2.74s6.25,1.65,7,4.59c-0.1-.85-0.19-1.72-0.27-2.6-0.9-8.91-1.16-18.36,3.78-25.63,5.41-8,15.45-10.93,24.7-13.32,8.26-2.13,17.64-4.12,24.81.57,4.56,3,7.33,8.22,8.51,13.59a58.94,58.94,0,0,1,.83,14.52c0,0.65,0,1.3-.07,2,8-4.52,19.49.32,22,9.24C754.87,1453.3,752.92,1459.62,751,1465.51Z"/><path class="cls-9" d="M750.27,1547.56c6.57-5,7.18-14.72,6.66-23.07-1.06-16.95-5.43-35.48-19.11-45.18-8.2-5.81-18.56-7.5-28.55-7.75-10.91-.27-22,1-32.06,5.32s-19.06,11.73-24,21.65c-7.29,14.73-4.78,32.29-2.09,48.55a244.86,244.86,0,0,0,86.71,4.47C742.21,1551,746.76,1550.25,750.27,1547.56Z"/><path class="cls-9" d="M474.14,1507.76c-2.12,15-6.41,30.85-16.76,41.6a287.4,287.4,0,0,1-84.88-11.5c-3.12-20.46-5.74-42.58,4.23-60.91s32.36-29.14,53.2-26.27c18.09,2.48,34.1,14.9,41.75,31.16C474.57,1492.19,474.92,1502.33,474.14,1507.76Z"/><path class="cls-10" d="M527.46,1543.94c0.23-2.72-.88-5.87-3.5-6.75-2.1-.7-4.37.28-6.45,1.07-7.37,2.82-15.37,3.51-23.23,4.11-41.66,3.18-83.94,4.74-123-9.5-2.62-1.66-2.71,6.52-2.7,10s1.14,7.14,3.78,9.46,6.06,3,9.42,3.6c41.12,7.78,93.42,9,138.07-.7C524.5,1554.26,527.07,1548.6,527.46,1543.94Z"/><path class="cls-9" d="M514.68,1503c-2.32-.5-4.68.87-6.3,2.59-2.76,2.93-4.12,6.86-5,10.75-0.79,3.55-1.2,7.37.27,10.68s5.39,5.78,8.87,4.56c3.21-1.13,4.75-4.71,5.52-8a55.33,55.33,0,0,0,1.34-11,15,15,0,0,0-.64-5.75A5.93,5.93,0,0,0,514.68,1503Z"/><path class="cls-10" d="M647.81,1545.24c-1.46,1.85-1.25,4.28-1.21,6.65,0.26,14.13,14,14,23.9,15.72a207.22,207.22,0,0,0,72.27-.31c3.52-.64,7.19-1.45,9.89-3.83,4.15-3.66,4.72-9.65,4.41-15.43a3.19,3.19,0,0,0-3.88-3,204.63,204.63,0,0,1-95.73-1.37C654.15,1542.87,650.39,1542,647.81,1545.24Z"/><path class="cls-4" d="M582.7,693.36c2.46,6.06,8.92,9.32,15.11,11.14a67.39,67.39,0,0,0,53.77-7.27Q647.17,650.77,647,604a113,113,0,0,0-55.49-5.19,309.61,309.61,0,0,1-8.25,77.7C582,682.09,580.55,688.08,582.7,693.36Z"/><path class="cls-11" d="M543,381.41a23.59,23.59,0,0,0-7.09,13.69,21.46,21.46,0,0,0,3.46,15c2.4,3.46,6.1,6.19,10.25,6.49,4.9,0.36,9.61-2.76,12.29-7s3.63-9.3,3.92-14.3a27.87,27.87,0,0,0-.86-9.85,13,13,0,0,0-5.8-7.69C554,374.94,547.33,377.31,543,381.41Z"/><path class="cls-11" d="M550,378a23.91,23.91,0,0,1-10.52-2.86,12.32,12.32,0,0,0-2.69-1.25,3.09,3.09,0,0,0-2.81.49c-1.18,1-.95,3.08.07,4.29a9,9,0,0,0,4,2.31c-1.61-.94-3.84.54-4.07,2.41a4.75,4.75,0,0,0,2.74,4.53,11.24,11.24,0,0,0,5.44.9"/><path class="cls-11" d="M692.18,404.9a27.51,27.51,0,0,0-7.64,16.25,25,25,0,0,0,4.69,17.29c2.94,3.92,7.38,6.92,12.22,7.08,5.72,0.19,11.05-3.66,14-8.66s3.81-11,3.93-16.82a32.44,32.44,0,0,0-1.44-11.41,15.14,15.14,0,0,0-7.09-8.67C704.66,396.86,697,399.93,692.18,404.9Z"/><path class="cls-11" d="M712.76,403.9c2.17,1.09,4.76.64,7.08,0s4.67-1.6,7.08-1.38c1.24,0.11,2.71.92,2.54,2.17a2.62,2.62,0,0,1-1.35,1.64,21.63,21.63,0,0,1-6,2.73c1.47-.16,3.28-0.15,4,1.15s-0.31,3.16-1.63,4.06a8.17,8.17,0,0,1-8.11.52"/><path class="cls-5" d="M609,547.44a44.73,44.73,0,0,1-4.85-.26c-19.49-2.12-36.54-17.08-41.46-36.38a3.14,3.14,0,0,1,6.08-1.55c4.22,16.55,19.38,29.87,36.06,31.69S639,533,646.6,517.76a3.14,3.14,0,1,1,5.62,2.79A49,49,0,0,1,609,547.44Z"/><path class="cls-5" d="M656.71,526.43a3.13,3.13,0,0,1-2.37-1.08,69,69,0,0,0-10.83-10.09,3.14,3.14,0,0,1,3.76-5,75.33,75.33,0,0,1,11.81,11A3.14,3.14,0,0,1,656.71,526.43Z"/><path class="cls-5" d="M555.94,515.93a3.14,3.14,0,0,1-2.56-4.95,20.54,20.54,0,0,1,14.88-8.55,3.14,3.14,0,1,1,.52,6.25,14.2,14.2,0,0,0-10.28,5.92A3.13,3.13,0,0,1,555.94,515.93Z"/><path class="cls-11" d="M573.34,366.42c-26.56,0-58.7-4.74-81-19.12s-32.4-37.8-36.33-64.07c-3.51-23.44,10.66-134,200-138.82,59.58-1.52,120.05,22.15,168.39,57,22.67,16.35,75.55,70.9,75.53,156.33,0,49.76-11.52,86.27-30.91,132.1-3.11,7.35-7.9,15.55-15.84,16.32-5.36.52-10.32-2.64-14.68-5.8-60.67-43.95-101-114.81-107.93-189.41A252.79,252.79,0,0,1,573.34,366.42Z"/><path class="cls-3" d="M772.09,512.91a4.56,4.56,0,0,1-2.81-8.16c21.32-16.7,47.86-37.47,78.73-41.56,10.62-1.41,19-.16,25.67,3.84,8.06,4.85,14.05,15.84,10.15,25.83a4.56,4.56,0,1,1-8.5-3.32c2.06-5.26-1.62-11.84-6.35-14.69s-11.27-3.74-19.77-2.61c-28.4,3.75-52.79,22.85-74.3,39.69A4.53,4.53,0,0,1,772.09,512.91Z"/><path class="cls-12" d="M732.65,365.32a42.25,42.25,0,0,0-22.72-8.47,32.91,32.91,0,0,0-11.49,1.52,4,4,0,0,0,.65,7.85,98,98,0,0,1,19.69,4.5,52.32,52.32,0,0,1,17.36,10.07c3.27,2.95,8.28-.77,6.26-4.72l-0.07-.13A31.53,31.53,0,0,0,732.65,365.32Z"/><path class="cls-12" d="M544.62,329.9a38.1,38.1,0,0,1,21.89-.78,29.92,29.92,0,0,1,10.23,5.18,3.47,3.47,0,0,1-2.76,6.12A90.41,90.41,0,0,0,555,338.5a46.49,46.49,0,0,0-18.58,4.07c-3.42,1.6-6.43-2.74-3.87-5.56q0.36-.39.74-0.77A28.21,28.21,0,0,1,544.62,329.9Z"/><path class="cls-11" d="M735.87,90.48c27.4-14.93,61.43-16.33,90.56-5.15s53.11,34.41,66.68,62.51c11.61,24,15,54.83-1.2,76-13.65,17.85-37.86,24.45-60.33,24.05-41.32-.74-81.24-22.07-107-54.41-8.82-11.09-16.18-23.61-19.53-37.38s-2.41-28.9,4.48-41.29C715.42,104.25,725.23,96.28,735.87,90.48Z"/><g class="cls-13"><path class="cls-14" d="M626.94,516.83c8.44,17.09,23.73,30.53,41.48,37.45,1.44,0.57,2.9,1.07,4.38,1.55A81.64,81.64,0,0,0,732.25,552a74.53,74.53,0,0,0,8.83-5,72.8,72.8,0,0,0,11-8.83,76.16,76.16,0,0,0,9.15-10.75,74.74,74.74,0,0,0,13.87-44.61c-0.68-25.28-15.88-49.81-38.5-61.11a77.19,77.19,0,0,0-28-7.58,93.33,93.33,0,0,0-11-.25l-0.84,0a89.72,89.72,0,0,0-48.42,16.7c-10.77,7.85-19.44,18.23-24.28,30.69C617.15,479.11,618.49,499.74,626.94,516.83Z"/></g><g class="cls-13"><path class="cls-14" d="M444.47,476.42a71.11,71.11,0,0,0,30.85,31.08,69.85,69.85,0,0,0,7.28,3.33,75.27,75.27,0,0,0,52.39.55,67.93,67.93,0,0,0,14.4-7.19,66.94,66.94,0,0,0,6-4.45,70.28,70.28,0,0,0,25.22-54.56C580,421.95,566,399.4,545.22,389a72.35,72.35,0,0,0-30.37-7.21c-2.08-.07-4.13-0.07-6.18,0-1.64.07-3.26,0.18-4.91,0.36a81.59,81.59,0,0,0-17.43,3.72,76.69,76.69,0,0,0-31.06,19,60.8,60.8,0,0,0-13.42,20.51C435.48,441.73,436.72,460.69,444.47,476.42Z"/></g><g class="cls-15"><path class="cls-14" d="M645.2,434Q661,495.77,676.83,557.55A81.64,81.64,0,0,0,736,550.32q-32.35-65.16-60.41-132.38A88.38,88.38,0,0,0,645.2,434Z"/></g><g class="cls-15"><path class="cls-14" d="M693.42,414.47c15.76,42.24,38.59,81.7,61.37,120.76,0,0.07.08,0.13,0.13,0.2a76.17,76.17,0,0,0,8.52-11.26q-32.06-53.62-59-110.08A93.37,93.37,0,0,0,693.42,414.47Z"/></g><g class="cls-15"><path class="cls-14" d="M457.42,402.34q7.58,51.73,15.16,103.43a69.76,69.76,0,0,0,7.11,3.67,75.26,75.26,0,0,0,52.31,3q-23.24-63.13-42.65-127.61A76.69,76.69,0,0,0,457.42,402.34Z"/></g><g class="cls-15"><path class="cls-14" d="M506.93,382c11,41.28,28.43,80.76,46,119.84a69.37,69.37,0,0,0,10.06-9.3c-17-34.2-31.81-72-45-110.4-2.07-.17-4.12-0.27-6.18-0.27C510.21,381.85,508.58,381.89,506.93,382Z"/></g><path class="cls-3" d="M697.67,564.27a84.67,84.67,0,0,1-30.9-5.74c-19.14-7.47-35.15-21.93-43.93-39.67-9.13-18.47-10.26-40.58-3-59.16,11.16-28.66,42-48.87,76.76-50.31q2.08-.08,4.17-0.09c13.75,0,26.84,2.9,37.84,8.38,23.81,11.86,40.3,38,41,65.05,0.72,26.55-13.42,53.29-36,68.13A84.48,84.48,0,0,1,697.67,564.27Zm3.08-145.83q-1.89,0-3.79.08c-30.7,1.27-58.92,19.56-68.63,44.5C622,479.24,623,498.6,631,514.81c7.78,15.73,22,28.56,39.06,35.21a76.55,76.55,0,0,0,68.5-6.79c20-13.15,32.55-36.8,31.92-60.25-0.65-23.77-15.11-46.73-36-57.13C724.77,421,713.09,418.43,700.74,418.43Z"/><path class="cls-3" d="M509.49,520.37a78.17,78.17,0,0,1-28.54-5.3c-17.68-6.9-32.47-20.25-40.57-36.64-8.44-17.06-9.48-37.5-2.79-54.67,10.31-26.47,38.79-45.15,70.88-46.47q1.92-.08,3.85-0.08A78.71,78.71,0,0,1,547.26,385c22,11,37.23,35.12,37.91,60.11,0.67,24.52-12.39,49.23-33.28,62.94A78,78,0,0,1,509.49,520.37Zm2.83-134q-1.74,0-3.47.07c-28.07,1.16-53.88,17.88-62.75,40.66-5.77,14.82-4.85,32.51,2.47,47.31,7.11,14.38,20.12,26.11,35.7,32.18a70,70,0,0,0,62.62-6.2c18.3-12,29.75-33.63,29.17-55.06-0.59-21.72-13.8-42.69-32.86-52.19A69.55,69.55,0,0,0,512.32,386.33Z"/><path class="cls-3" d="M622.74,465.16a4.57,4.57,0,0,1-4.41-5.76,17.4,17.4,0,0,0-32.69-11.63,4.56,4.56,0,1,1-8.34-3.7,26.53,26.53,0,0,1,49.84,17.73A4.57,4.57,0,0,1,622.74,465.16Z"/><path class="cls-4" d="M787.09,518.46c9-13.83,18.27-28,31.58-37.7s31.73-14.26,46.53-7c8.51,4.19,15,11.82,19.18,20.31A60.43,60.43,0,0,1,776.83,549.2"/><path class="cls-9" d="M679.56,758.26c-16.34,4.89-35-.44-48.8-10.42s-22.58-27.52-19.85-44.36c16.48,5.15,34.94-6.16,39.77-22.74,9.59,1.36,54.21,8,55.41,9.13C720,703,726.17,744.31,679.56,758.26Z"/><path class="cls-9" d="M610.32,702.69c0.86,16.63-10.62,32.76-26.16,38.76s-39.26,4.48-53-5c-17-11.7-17.7-35.81-12.14-47.28,21.9-4.33,41.39-7.95,63.29-12.28C581.6,691.37,596.45,701.53,610.32,702.69Z"/><path class="cls-16" d="M586.22,1106.29a2.28,2.28,0,0,1-2.28-2.28c0-115,8-262.5,20.31-375.65a2.28,2.28,0,1,1,4.54.5C596.47,841.85,588.5,989.1,588.5,1104A2.28,2.28,0,0,1,586.22,1106.29Z"/><path class="cls-16" d="M714.73,852.73a2.28,2.28,0,0,1-2.27-2.1,346.17,346.17,0,0,0-15.84-79.68,2.28,2.28,0,0,1,4.34-1.41A350.8,350.8,0,0,1,717,850.26a2.28,2.28,0,0,1-2.1,2.45h-0.18Z"/><path class="cls-5" d="M611.88,491.22c-9.1,0-17.6-3.24-23.39-8.94-6.82-6.72-9.55-16.91-6.79-25.37,3.11-9.52,13.09-15.63,22.21-13.64a3.14,3.14,0,0,1-1.34,6.13c-6-1.31-12.81,3-14.91,9.45-2,6.25.06,13.87,5.23,19,4.74,4.67,11.86,7.27,19.56,7.14a3.14,3.14,0,1,1,.11,6.27h-0.69Z"/><path class="cls-17" d="M544.48,830.2l13.3,232.89s170.37-6.43,178.75-8.22,14.85-7.57,13.36-12.13c-1-2.92-73.11-156.88-133.19-219.84Z"/><path class="cls-18" d="M564.34,1058c37.49-2.43,150-10.13,177.45-12a6.88,6.88,0,0,0,3.94-12.15c-3.23-2.65-8.68-4.41-17.86-3.29-22.51,2.74-129.29,11.15-146.56,12.45a6.87,6.87,0,0,0-4.42,2.08l-0.14.15Z"/><polygon class="cls-19" points="564.34 1058 550.82 828.87 561.58 809.74 584.46 1037.73 564.34 1058"/><path class="cls-17" d="M751,1038.5s-15.72-234.42-25.69-240.75-166,8.11-166,8.11,9.71,233.28,12.11,236C688.22,1032.64,747.69,1022.68,751,1038.5Z"/><path class="cls-20" d="M733.89,1056.21c0.71-.08,13.21-0.86,16.11-9.57a16,16,0,0,0,.68-9.23c-0.37-1.7-1.9-3.27-3.76-4.76-5.2-4.16-16.45-4.8-29.77-3.77-14.4,1.11-64.29,4.77-64.29,4.77l-81.47,8.21-2.86,4.48s160.58-17.52,171.83-12.77c8.3,3.51,8.68,9.44,7.35,13.47h0c-2.93,3.29-2.24,6.13-20.53,7-8.91.44-96.8,5.22-104.4,5.84s-65,3.17-65,3.17l-2.39,3.38S723.79,1057.41,733.89,1056.21Z"/><polygon class="cls-21" points="571.39 1041.86 559.27 805.86 556.86 811.19 568.52 1046.34 571.39 1041.86"/><polygon class="cls-21" points="557.77 1063.09 544.48 830.2 542.06 835.53 555.38 1066.47 557.77 1063.09"/><path class="cls-4" d="M619.21,956.55c-8,.37-13.76.51-16.29,0.35-5.64-.35-5.64-4.79-7.4-9.26a43.14,43.14,0,0,0-7.4-12.92c-6-6.76-14.66-10.34-23-13.69a97.61,97.61,0,0,0-15.95-5.35c-2.59-.55-5.62-0.77-7.58,1a5.92,5.92,0,0,0-1.41,5.81,12.42,12.42,0,0,0,3.29,5.28,28.47,28.47,0,0,0,10,6.71c3.28,1.3,4.17,1.47,6.87,3.15-1.67,2.71-8.6.44-11.62,0.31-5.27-.23-7.13,1.37-9.76,2.6-13.7,6.43-5.26,44.12-4.35,46.38s4.2,6.31,13.44,8.19,16.72,1.65,23.83,2c7.51,0.33,15.42-4.73,17.12-4.92,0.61-.07,9,1,21.29,2.66C632.19,997.71,657,954.81,619.21,956.55Z"/><path class="cls-7" d="M765.87,948.86c-0.76-6.91-2.91-15-9.49-17.25-3.15-1.06-6.59-.44-9.86.19-54.61,10.56-76.61,12.77-131.23,23.33,1,14.37.87,42-4.32,55.55,55.19,2,85.72-.6,139.12-6.19,6.18-.65,16.37-19.83,16.7-27A185.71,185.71,0,0,0,765.87,948.86Z"/><path class="cls-16" d="M615.26,779.31a22.49,22.49,0,0,1-2.92-8.66,13.23,13.23,0,0,1,6.73-12.26,5.33,5.33,0,0,1,4.14-.7,5.66,5.66,0,0,1,2.89,2.93,18.65,18.65,0,0,1-.88,18.67c-1.59,2.41-4.59,4.59-7.19,3.32A7,7,0,0,1,615.26,779.31Z"/><path class="cls-16" d="M502.68,837.53a2.31,2.31,0,0,1-.41,0,2.28,2.28,0,0,1-1.84-2.65c1.76-9.79,2.95-19,4.21-28.67,1.33-10.28,2.85-21.93,5.3-36.32a2.28,2.28,0,1,1,4.5.76c-2.43,14.31-3.94,25.91-5.27,36.15-1.27,9.76-2.46,19-4.24,28.89A2.28,2.28,0,0,1,502.68,837.53Z"/><path class="cls-22" d="M261.58,917.54c-28.95-191.59-86.84-702.1-86.84-574.76l45.11,496.43c1.43,15.73,2.93,31.75,9,46.34S246.35,913.35,261.58,917.54Z"/><path class="cls-4" d="M207.33,805.51c-9.15,1.94-17.91-4.51-24.21-11.44-7.9-8.69-14.35-19-16.65-30.57s0-24.29,7.75-33.12,21.3-12.72,31.92-7.69c6.63,3.14,11.51,9.26,14.41,16s4,14.11,4.64,21.42c0.87,9.81.94,19.94-2.29,29.24C220.33,796.75,215,803.89,207.33,805.51Z"/><path class="cls-4" d="M218.68,722.85a36.61,36.61,0,0,1,41,21.44c2.2,5.14,3,11.53-.32,16-4.16,5.5-12.55,5.39-19.07,3.13a43.26,43.26,0,0,1-27.3-30c-0.72-2.92-1-6.41,1.15-8.54A8.74,8.74,0,0,1,218.68,722.85Z"/></g></g></svg>