<svg xmlns="http://www.w3.org/2000/svg" viewBox="0 0 1061.79 1615.05"><defs><style>.cls-1{isolation:isolate;}.cls-2{fill:#ceb9a7;opacity:0.31;}.cls-3{fill:#f2ac7c;}.cls-4{fill:#4f2323;}.cls-5{fill:#633;}.cls-6{fill:#444949;}.cls-7{fill:#2d3030;}.cls-8{fill:#636b6b;}.cls-9{fill:#4f2601;}.cls-10{fill:#630;}.cls-11{fill:#7e7f83;}.cls-12{fill:#9b9ca0;}.cls-13{fill:#9cc;}.cls-14{mix-blend-mode:screen;}.cls-15{fill:#511d1d;}.cls-16{fill:#b56248;}.cls-17{fill:#e05b55;}.cls-18{fill:#fff;}.cls-19{fill:#96602f;}.cls-20{fill:#c1864c;}.cls-21{fill:#d3d3d5;}.cls-22{fill:#e5e5e5;}.cls-23{fill:#bcbcbc;}.cls-24{fill:#9a090e;}.cls-25{fill:#4a463d;}</style></defs><title>01_angel</title><g class="cls-1"><g id="_ÎÓÈ_2" data-name="‘ÎÓÈ_2"><path class="cls-2" d="M908.62,1469.1c-3.84-18.87-27.87-24.16-47.08-25.47-217.72-14.81-438-26.23-652.88,11.71-20.45,3.61-45.14,11.93-48.15,32.47-1.89,12.94,6.7,25.61,17.85,32.45s24.44,9,37.37,11a2193.41,2193.41,0,0,0,475.74,19.54c64.58-4.39,130.71-12.14,188.12-42C895.23,1500.61,912.14,1486.38,908.62,1469.1Z"/><path class="cls-3" d="M614.16,1460.85c0.27,3.05.78,6.52,3.34,8.21,1.86,1.23,4.28,1.13,6.5,1l20.37-1.4,2.2-52.66c0.13-3.06.2-6.32-1.4-8.93-1.85-3-5.49-4.39-9-5.1a40.59,40.59,0,0,0-27,3.89Z"/><path class="cls-3" d="M494.77,1451.59c-0.27,3.05-.78,6.52-3.34,8.21-1.86,1.23-4.28,1.13-6.5,1l-20.37-1.4-2.2-52.66c-0.13-3.06-.2-6.32,1.4-8.93,1.85-3,5.49-4.39,9-5.1a40.59,40.59,0,0,1,27,3.89Z"/><path class="cls-4" d="M607.63,1480.42c21.84,1.88,43.2,9.12,63.78,16.78l27.65,10.3c2,0.74,2.92,1.28,3.48,3.36,0.42,1.57.22,4.39-.94,5.51s-1.89,1.13-3.36,1.77c-6.07,2.6-12.36,5.17-19,5.24-6.31.07-12.4-2.15-18.33-4.34-13-4.78-50.66-25.57-53.68-29.42S606.21,1481.18,607.63,1480.42Z"/><path class="cls-5" d="M701.49,1509.28c-12.64,5.08-23.14,7.54-36.2,3.67s-27.81-11.65-39.69-18.32c-6.49-3.65-13.71-7.27-17.7-13.55-1.64-2.59-.22-18.95,6.26-20.22,2.67,6.52,9.41,8.38,16.44,8.73,10.88,0.55,15.24-6.77,14.16-10.46,10.7,19,23.2,23.46,45.37,32.11,3.92,1.53,6.78,5.1,9.3,8.48S702.38,1505.17,701.49,1509.28Z"/><path class="cls-4" d="M501.48,1469.59c-21.84,1.88-43.2,9.12-63.78,16.78l-27.65,10.3c-2,.74-2.92,1.28-3.48,3.36-0.42,1.57-.22,4.39.94,5.51s1.89,1.13,3.36,1.77c6.07,2.6,12.36,5.17,19,5.24,6.31,0.07,12.4-2.15,18.33-4.34,13-4.78,50.66-25.57,53.68-29.42S502.9,1470.34,501.48,1469.59Z"/><path class="cls-5" d="M407.63,1498.45c12.64,5.07,23.14,7.54,36.2,3.67s27.81-11.65,39.69-18.32c6.49-3.65,13.71-7.27,17.7-13.55,1.64-2.59.22-18.95-6.26-20.22-2.67,6.52-9.41,8.38-16.44,8.73-10.88.55-15.24-6.77-14.16-10.46-10.7,19-23.2,23.46-45.37,32.11-3.92,1.53-6.78,5.1-9.3,8.48S406.73,1494.34,407.63,1498.45Z"/><path class="cls-6" d="M691.9,990.2l-37.69,463.54c-0.5,11-41.2,20.4-55,3.88,0,0-22.49-325.21-24-333.75-1-5.76-35.29-18.23-35.76-15.8s-31.48,345.23-31.48,345.23c-10.46,7.42-55.5,4.32-55.36-9.51,0.11-11.07-6.48-470.61-.58-482.4S692.71,973.55,691.9,990.2Z"/><path class="cls-3" d="M551.39,162.47c-17.28,13.32-22.46,31.24-30.65,71.37-13.63,66.77-13.63,96.7-44.08,151.7-12,21.59-33.65,97.21,62.16,153.06,109.51,63.82,229.95,39.54,285.88-22.9s121.36-239.27.11-343.58C714.79,77.46,585.19,136.41,551.39,162.47Z"/><path class="cls-7" d="M559.93,1110.14a1.14,1.14,0,0,1-1.14-1.13c-0.14-25.68.41-51.73,1.64-77.41a1.16,1.16,0,0,1,1.19-1.09,1.14,1.14,0,0,1,1.09,1.19c-1.23,25.64-1.78,51.65-1.64,77.29a1.14,1.14,0,0,1-1.13,1.15h0Z"/><path class="cls-7" d="M557.57,1096.58a1.14,1.14,0,0,1-.81-0.34c-6-6-12.21-12.27-16.31-20-8.41-16-6.24-35.36-4.49-50.94a1.14,1.14,0,1,1,2.27.25c-1.72,15.27-3.85,34.28,4.24,49.62,3.93,7.46,10,13.58,15.91,19.49A1.14,1.14,0,0,1,557.57,1096.58Z"/><path class="cls-7" d="M683.52,1084.91a1.14,1.14,0,0,1-.57-0.15,197,197,0,0,1-37.76-28.17,1.14,1.14,0,1,1,1.57-1.65,194.71,194.71,0,0,0,37.32,27.85A1.14,1.14,0,0,1,683.52,1084.91Z"/><path class="cls-7" d="M451.22,1044a1.14,1.14,0,0,1-.4-2.21c9.46-3.56,19-7.34,28.32-11.24a1.14,1.14,0,0,1,.88,2.11c-9.36,3.91-18.91,7.7-28.4,11.27A1.13,1.13,0,0,1,451.22,1044Z"/><path class="cls-3" d="M578.43,635.55c2,6.47,8.31,10.44,14.51,12.9A69.7,69.7,0,0,0,649,646.08q-0.13-48.26,4.17-96.41A116.87,116.87,0,0,0,596.53,539a320.25,320.25,0,0,1-15.87,79.24C578.78,623.88,576.73,629.91,578.43,635.55Z"/><path class="cls-8" d="M299.84,635.12c2.44,16.84,70.24,241.11,116.92,232.62,19.33-3.51,79.94-113.59,81.72-116.79-0.84,2.94-28,98.28-58.55,258.5,0,0,88.89,56.8,99.24,38.61,3.39-6,7.87-12.47,9.33-19.29-0.68,5.07.32,10.17,0.8,15.26,0.55,5.57,4.4,11.79,8.92,15.05,15.93,11.55,120.17-1.35,146.13-8.58l-4.93-249.37s14.74,113,38.18,119c26.15,6.73,40.73-10.31,68-82.83,28.66-76.28,60.95-184,60.95-184-18.73-16-34.78-19.92-59.79-20.81L755.12,796.61s-14.47-107.84-17.55-127.26c-1.78-11.16-36-23.12-56.89-29.41-9.31-2.78-16-4.47-16-4.47l-93.58-8.1s-5.43-.41-13-0.71c-15.72-.57-40.71-0.59-45.93,4.93-17.89,18.85-62.52,91.55-100,151-2.44,3.86-56-159.8-69.05-169.14C329.64,603.83,298.19,623.85,299.84,635.12Z"/><path class="cls-9" d="M743.15,317.33c-4.75-7.06-11.28-13-19.1-16.25a34,34,0,0,0-11.71-2.57,4.19,4.19,0,0,0-2.14,7.86,101.38,101.38,0,0,1,17.56,11.32,54.13,54.13,0,0,1,13.33,15.91c2.14,4,8.32,2.17,7.76-2.38l0-.15A32.61,32.61,0,0,0,743.15,317.33Z"/><path class="cls-10" d="M821.53,277.06s-80.95,34.26-183.89,9.61-124.76-11.43-125.12-9.51-5,25.58-5,25.58-26.52-30-20.08-66.49S526.82,75.42,694.08,87.58,890.65,208.38,879.21,222c0,0,23.75-9.12,36.78,16.93,16.55,33.1,38.27,106.06-18.91,198.91-47.38,76.95-85,16.82-85,16.82L817,404.24s-18.7-21.76-12.87-72.56C808.59,293,821.53,277.06,821.53,277.06Z"/><path class="cls-11" d="M900,439.76c2.25-3.34,12.82-.46,14.67.81l72.53,50.7c3.51,2.9,4.1,12.68,1,17L873.91,669.71c-5.11,6.62-13.18,6.77-18.83.64l-65.64-51.07c-3.51-2.85-3.29-14.62-.32-19Z"/><path class="cls-12" d="M790.34,598L899.59,437.72c3.28-4.82,9.21-6.32,12.88-3.25L981.84,487c3.34,2.79,3.56,8.36.51,12.7L871.55,656.51c-3.29,4.68-10.46,8.32-14.09,5.35L791,610.6C787.67,607.87,787.38,602.36,790.34,598Z"/><path class="cls-13" d="M969.94,497.75c-0.17.22-8.64,12.48-20.41,29.5l-5.26,7.63C940.72,540,937,545.41,933.15,551c-24.91,36-51.37,73.22-54.47,75.61-1.91,1.48-61.93-46.29-63.38-48.11,0,0,1.48-3.3,2.31-4.73,1.7-2.91,4.9-8.32,9.54-15.31,1.89-2.84,4-5.94,6.22-9.25,9.44-14,21.61-31.7,33.31-48.56C887,471.35,903.6,448,904.52,447.1c0,0,37.74,25.41,55.5,41C966.22,493.52,970.27,497.33,969.94,497.75Z"/><path class="cls-11" d="M841.35,622.58c2.32-2.77,2.56-6.94.9-9.49a9,9,0,0,0-3.16-2.79,7.55,7.55,0,0,0-5.4-1.12c-3.1.68-5.76,4.14-6.15,7.48a8,8,0,0,0,3.71,7.82,7.54,7.54,0,0,0,5.07,1A8.41,8.41,0,0,0,841.35,622.58Z"/><g class="cls-14"><path class="cls-13" d="M969.94,497.75c-0.17.22-1.83,2.63-13.6,19.65,0,0-46.44,13.94-66.25,18.45-18.59,4.22-37.82,9.69-56.72,13.32,9.44-14,21.61-31.7,33.31-48.56,31.25-6.16,62.62-11.74,93.34-12.51C966.22,493.52,970.27,497.33,969.94,497.75Z"/></g><g class="cls-14"><path class="cls-13" d="M947.87,529.65c-3.54,5.11-5.47,7.9-9.29,13.44,0,0-100.29,27.21-122.39,33,1.7-2.91,6.32-10.73,11-17.72,19.52-4.54,39.15-8.89,58.57-13.43C904.89,540.48,947.87,529.65,947.87,529.65Z"/></g><path class="cls-3" d="M808,459.23c9.82-11.29,20-22.86,33.29-29.69s30.72-7.88,42.45,1.42c6.66,5.28,10.75,13.28,12.72,21.54,5.72,24.05-7.26,51.24-29.57,61.89s-51.62,3.68-66.73-15.88"/><path class="cls-15" d="M673.61,347.61c-4.44,10.91-7.06,23.7-1.92,34.28,6,12.32,22.07,17.78,34.69,12.89s17.22-16.53,21.42-30.36c1.39-4.58.33-7.47-1.61-8.92s-6-2-8.11,3.17a153.16,153.16,0,0,1-6.79,14.95c-1.76,3.24-3.4,6.76-6.3,9-5.44,4.19-12.5,2.33-15.94,1.12-5.5-1.93-9.58-8.54-8.08-17,1-5.82,4.19-11.19,4.53-17.1,0.16-2.73.23-4.77-1.4-6.94s-3-2.36-5.5-1.42S674.65,345,673.61,347.61Z"/><path class="cls-15" d="M540.67,301.39c-4.57,8.5-7.83,18.68-4.58,27.74,3.79,10.56,16.41,16.4,27.11,13.53s15.47-12,20.12-22.84c1.54-3.61.92-6.05-.53-7.41s-4.73-2.17-6.88,1.87a125.62,125.62,0,0,1-6.84,11.58c-1.71,2.49-3.37,5.2-5.92,6.77-4.8,2.94-10.38.81-13.07-.48-4.31-2-7.05-7.79-5.09-14.52,1.36-4.65,4.4-8.75,5.2-13.53,0.37-2.21.61-3.86-.53-5.77s-2.22-2.18-4.35-1.64S541.75,299.39,540.67,301.39Z"/><path class="cls-16" d="M604.86,380.88a3.42,3.42,0,0,1-2.78-5.42c18.47-25.71,25-58.58,17.52-87.93a3.42,3.42,0,1,1,6.63-1.7c8,31.29,1.05,66.29-18.59,93.62A3.42,3.42,0,0,1,604.86,380.88Z"/><path class="cls-16" d="M599.85,426.52H599.6c-4.84-.35-14.45-5.3-19.89-13.71-4.62-7.13-5.43-15.38-2.33-23.85,2.69-7.36,6.9-12.26,12.52-14.57a20.52,20.52,0,0,1,16,.5,3.42,3.42,0,1,1-2.92,6.19,13.66,13.66,0,0,0-10.51-.36c-3.77,1.55-6.69,5.11-8.69,10.59-2.36,6.46-1.81,12.44,1.65,17.78,4.49,6.93,12.39,10.44,14.64,10.6A3.42,3.42,0,0,1,599.85,426.52Z"/><path class="cls-9" d="M567.4,247a39.4,39.4,0,0,1,22.64.89,31,31,0,0,1,10.15,6.13,3.59,3.59,0,0,1-3.32,6.1,93.53,93.53,0,0,0-19.39-3.44A48.09,48.09,0,0,0,558,259.48c-3.65,1.39-6.42-3.33-3.56-6q0.4-.38.82-0.73A29.18,29.18,0,0,1,567.4,247Z"/><path class="cls-15" d="M528.2,473.84a25.5,25.5,0,0,0,3.79,7.9c3.77,5.27,9.17,9.15,14.76,12.39a105,105,0,0,0,27.31,11.11c5.82,1.46,12.28,2.31,17.89.75a17.28,17.28,0,0,0,6-2.92c6-4.54,8-12.6,8.37-20.08a52.47,52.47,0,0,0-4.72-25.28,39.28,39.28,0,0,0-3.65-6.18c-6.48-9-19.08-14.95-30.14-14.74a52.22,52.22,0,0,0-16.93,2.9,36.19,36.19,0,0,0-22.82,23.66A19.3,19.3,0,0,0,528.2,473.84Z"/><path class="cls-17" d="M528.2,473.84a25.5,25.5,0,0,0,3.79,7.9c3.77,5.27,9.17,9.15,14.76,12.39a105,105,0,0,0,27.31,11.11c5.82,1.46,12.28,2.31,17.89.75a26.73,26.73,0,0,0,0-7.39c-1.67-11.93-10.41-22.27-21.4-27.2s-23.87-4.77-35.28-.94A27.52,27.52,0,0,0,528.2,473.84Z"/><path class="cls-18" d="M550.93,439.68c0.57,2.12,2.56,3.95,4.45,5.32,9.11,6.57,19.53,11,29.87,15.38a43.17,43.17,0,0,0,8,2.83,16.79,16.79,0,0,0,10.41-.53c-1-3.79-4.27-9.19-5.68-11.15-6.48-9-19.08-14.95-30.14-14.74A52.22,52.22,0,0,0,550.93,439.68Z"/><path class="cls-19" d="M127.61,593.34l4,30.48c11.38,87.49,20.68,174.36,31.89,263.07,80-2.94,155.54-14.48,232.47-27l7.3-10.17L135.5,586.2Z"/><path class="cls-20" d="M172.15,876.27c75.17-2,155-16.69,231.09-26.56q-11.24-97-22.45-194.06-5.75-49.53-11.46-99l-62.76,7.67-141.5,17.3c-7.57.94-24.07,1.79-29.58,4.63,0,0,2.64,21.52,4,31.29C151,702.07,160.6,791.68,172.15,876.27Z"/><path class="cls-18" d="M184.35,800.69q4.62,26.89,10.23,53.59c59.42-8,126.48-15.55,185.9-23.5-1.2-8.56-2.39-17.12-3.53-25.66-8.77-64.29-16.2-128-21.22-191.9-0.65-8.12-2.33-27-3.56-31.88,0,0-24,2.81-34.7,4.41q-76.67,11.4-153.33,22.84A1475.47,1475.47,0,0,0,184.35,800.69Z"/><path class="cls-21" d="M191.19,612.16l15.29-2.07,0.86-.11L318.6,595a45.07,45.07,0,0,0-49.15-38.62c5.44-11.89,5.92-26.59-1.11-37.6-8.45-13.23-27.4-17.61-40.15-8a29.38,29.38,0,0,0-7.68,8.79,22.4,22.4,0,0,0-1.1,2.09,34.29,34.29,0,0,0-2.32,21.17,40.08,40.08,0,0,0,3.48,9.93c1.63,3.27,4,5.89,5.84,9-0.72.74-2.62,0.88-3.64,1.2q-2,.65-3.92,1.46a47,47,0,0,0-7.55,4.09A45.62,45.62,0,0,0,191.19,612.16Z"/><path class="cls-22" d="M291.68,582.31c0.68-5.43-2.71-10.6-6.83-14.2s-9.06-6.17-13.11-9.85a42.2,42.2,0,0,1,40.75,33.48l-37.67,5.61c-4.29-.44,7.21-3.62,10.39-6S291.18,586.24,291.68,582.31Z"/><path class="cls-22" d="M240.88,508.71c-3.73.37-7.75,1.84-9.44,5.18-2.45,5.5,18,5.41,25.07,11.37s11.83,15.47,9.84,24.51A26.9,26.9,0,0,0,240.88,508.71Z"/><path class="cls-23" d="M191.19,612.16l15.29-2.07,0.86-.11a23.55,23.55,0,0,1-2.87-5.46c-3.21-8.73-1.34-18.89,3.91-26.56S222,565,230.91,562.5c-9.43-6.88-13.16-27.51-10.4-42.92a22.4,22.4,0,0,0-1.1,2.09,34.29,34.29,0,0,0-2.32,21.17,40.08,40.08,0,0,0,3.48,9.93c1.63,3.27,3,6.36,5.84,9-0.83.19-2.62,0.88-3.64,1.2q-2,.65-3.92,1.46a47,47,0,0,0-7.55,4.09A45.62,45.62,0,0,0,191.19,612.16Z"/><path class="cls-23" d="M232.05,538.42a13.54,13.54,0,1,1,26.67,4.47,11.94,11.94,0,0,1-5.23,7.57c-3.06,1.86-6.89,2-10.41,1.35a14.56,14.56,0,0,1-8.59-4.6A11.87,11.87,0,0,1,232.05,538.42Z"/><path class="cls-18" d="M558.13,626.65c2.92,20.24,8.67,49,14.38,75.58,7.9,36.83,15.7,69.46,15.7,69.46q15.88-21.15,31.29-42.67,31.32-43.54,60.72-88.38l0.48-.71c-9.31-2.78-16-4.47-16-4.47l-93.58-8.1S565.7,626.95,558.13,626.65Z"/><path class="cls-18" d="M651.19,608.78l-36.43,23.08c-0.33,1.87,24.61,37.11,35.47,52.73a370.24,370.24,0,0,0,32.83-45C674.82,629.85,653.72,608.86,651.19,608.78Z"/><path class="cls-18" d="M556,625.68s8.23,37.11,12.07,52.19c17.86-17.62,31.48-32.9,46.67-46-9.25-10.69-20.12-21.89-29.37-32.58C577.79,605.07,556,625.68,556,625.68Z"/><path class="cls-24" d="M587.78,649.38c1.23-2.77,3.67-4.79,6-6.69q5.68-4.53,11.52-8.86c1.8-1.33,3.79-2.71,6-2.65,2.68,0.08,4.82,2.18,6.57,4.22a92.39,92.39,0,0,1,16.63,28.45c-6.46,3.72-11.91,9.07-18.54,12.47s-15.4,4.41-21.07-.44c-3.9-3.34-5.41-8.62-6.73-13.58C587.1,658.06,586,653.4,587.78,649.38Z"/><path class="cls-24" d="M572.5,702.23c7.9,36.83,15.7,69.46,15.7,69.46q15.88-21.15,31.29-42.67-4.55-25.64-9.13-51.32L598,671.77C588.39,684.58,572.5,702.23,572.5,702.23Z"/><path class="cls-6" d="M592.21,772.83a1.14,1.14,0,0,1-.5-2.17l56.11-27.11c6-2.92,11.65-6,13.73-11.45,1.34-3.52.92-7.55,0.5-11.44l-0.19-1.87a34,34,0,0,1-.14-5.3,5.34,5.34,0,0,1,3.13-4.59,5.72,5.72,0,0,1,5.85.65c1.69,1.27,3.25,1.45,4.79.57a5.5,5.5,0,0,0,2.56-4.07l8.33-60.9a1.14,1.14,0,0,1,2.26.31l-8.33,60.89a7.79,7.79,0,0,1-3.69,5.74c-2.34,1.35-4.87,1.1-7.29-.73a3.44,3.44,0,0,0-3.52-.4,3.06,3.06,0,0,0-1.81,2.66,31.77,31.77,0,0,0,.13,4.94l0.19,1.84c0.44,4.16.9,8.47-.64,12.5-2.38,6.23-8.65,9.68-14.87,12.69L592.7,772.72A1.14,1.14,0,0,1,592.21,772.83Z"/><path class="cls-6" d="M585,773a1.14,1.14,0,0,1-.87-0.4l-38.91-45.28c-4.33-5-8.51-10.48-8-16.71,0.36-4,2.63-7.47,4.84-10.8l1-1.46a28.48,28.48,0,0,0,2.25-4.08,2.54,2.54,0,0,0-.36-2.69,3.57,3.57,0,0,0-3.5-1.2c-3.74.69-5.79-.88-6.86-2.32a7,7,0,0,1-.86-6.42l18.78-54.42a1.14,1.14,0,1,1,2.16.74l-18.78,54.42a4.68,4.68,0,0,0,.54,4.32c1,1.36,2.51,1.83,4.6,1.44a5.86,5.86,0,0,1,5.7,2,4.84,4.84,0,0,1,.67,5,30.88,30.88,0,0,1-2.42,4.4l-1,1.49c-2,3.09-4.16,6.29-4.47,9.74-0.47,5.35,3.24,10.16,7.42,15l38.91,45.28A1.14,1.14,0,0,1,585,773Z"/><path class="cls-6" d="M551.21,1020h-0.12a1.14,1.14,0,0,1-1-1.26C558.84,937.3,571.38,855.3,587.37,775a1.14,1.14,0,0,1,2.24.45c-16,80.24-28.51,162.18-37.26,243.53A1.14,1.14,0,0,1,551.21,1020Z"/><path class="cls-6" d="M551.26,826a19.65,19.65,0,0,1,7.9-19.55c1.46-1,3.34-1.78,4.94-1a5.41,5.41,0,0,1,2.37,3,26.47,26.47,0,0,1,.23,19.82c-1.11,2.79-3,5.63-5.93,6.32a7.08,7.08,0,0,1-6.49-2.17A12.4,12.4,0,0,1,551.26,826Z"/><path class="cls-6" d="M554,893a25.42,25.42,0,0,1-1.48,14.34,12.92,12.92,0,0,1-4.19,5.78,6.62,6.62,0,0,1-6.83.7c-2.72-1.5-3.51-5-4-8.06-0.53-3.59-1-7.31,0-10.82s3.54-6.81,7.1-7.51C547,886.94,553.55,890.59,554,893Z"/><path class="cls-6" d="M699.51,804.79a1.14,1.14,0,0,1-1.14-1l-5.54-68.67a1.14,1.14,0,0,1,2.28-.18l5.54,68.67a1.14,1.14,0,0,1-1,1.23h-0.09Z"/><path class="cls-6" d="M498.8,751.6l-0.25,0a1.14,1.14,0,0,1-.86-1.36c1.65-7.37,3.44-14.87,5.22-22.36,2.86-12,5.83-24.51,8.11-36a1.13,1.13,0,0,1,1.34-.9,1.14,1.14,0,0,1,.9,1.34c-2.29,11.53-5.26,24-8.13,36.08-1.78,7.48-3.56,15-5.21,22.33A1.14,1.14,0,0,1,498.8,751.6Z"/><path class="cls-24" d="M291.87,647.24a282.78,282.78,0,0,0,39.56-23.17l4,32.47L317,655.86a819.87,819.87,0,0,1-30.26,78.08c-0.89,2-1.89,4.1-3.72,5.3-2.88,1.88-6.93.79-9.43-1.56s-3.83-5.67-5.07-8.87a677,677,0,0,1-29.56,69.54l28.92-88.82a24.28,24.28,0,0,0,10.08,14.68,341,341,0,0,0,27.5-73.62A29.6,29.6,0,0,1,291.87,647.24Z"/><path class="cls-25" d="M212,741.31c-3-24.6-4.79-49.35-7.76-74q-2.89-24-7.33-47.69c1,74.22,11.39,148.15,28.08,220.47l6.47-.26A700.57,700.57,0,0,1,212,741.31Z"/><path class="cls-25" d="M345.51,809.17c2.13-.39,4.37-0.84,6-2.29s2.19-4.25.62-5.74l-75.67,8.59-70,7.94C252.88,821.14,299.7,817.53,345.51,809.17Z"/><path class="cls-25" d="M290.71,806.12l0.81,7.22-4.36,0a91.72,91.72,0,0,0-.83-11.92,2.71,2.71,0,0,1,3.34,1.08A7.89,7.89,0,0,1,290.71,806.12Z"/><path class="cls-25" d="M328.63,805.68a2.45,2.45,0,0,1-.27,1.89c-0.64.78-1.88,0.48-2.82,0.11a26.73,26.73,0,0,1-2.11-10.2l4.21,0.61Z"/><path class="cls-25" d="M205.59,645a6.3,6.3,0,0,1-3.14,1,2.71,2.71,0,0,1-1.86-4.46,80.94,80.94,0,0,1,14.49-3.41l0.54,4.79A20.43,20.43,0,0,0,205.59,645Z"/><path class="cls-25" d="M205.46,683.42c-0.11-2.91-.7-3.88-1.67-6.62,4.68,0.07,9.38-1.8,14.06-1.73a6.48,6.48,0,0,1,1.07,4.42A85.7,85.7,0,0,0,205.46,683.42Z"/><path class="cls-25" d="M223.13,719L209.2,723.3l0-7.13a34.67,34.67,0,0,0,13.24-1.78A9.36,9.36,0,0,0,223.13,719Z"/><path class="cls-25" d="M224.5,763.45l-10.76.68a9.67,9.67,0,0,1-.4-4.93,65.35,65.35,0,0,0,10.66-.55A14.19,14.19,0,0,1,224.5,763.45Z"/><path class="cls-25" d="M229.72,798.52a54.51,54.51,0,0,0-9.13.63,9.41,9.41,0,0,0-.77-5.32l9.06-.05A15.8,15.8,0,0,0,229.72,798.52Z"/><path class="cls-25" d="M257.39,813.3a3.74,3.74,0,0,1-.13,2.06c-0.65,1.4-2.59,1.43-4.13,1.25l-1.28-9.88,4.52-1.42Z"/><path class="cls-3" d="M818.55,572.12c-4,2-8.67.21-10.9-4.17-4-7.8-5.69-17.22-3.82-26,1.75-8.2,7-15.4,13.53-18.52,3.59-1.7,7.6.44,8.94,4.72a66.87,66.87,0,0,1,3,18.3c0.16,6.65-.76,13.58-4,19.06A17.14,17.14,0,0,1,818.55,572.12Z"/><path class="cls-10" d="M882.87,215a114.39,114.39,0,0,1,67.82-5c3.19,0.75,6.45,1.68,9,3.72s4.3,5.45,3.48,8.62c-1.34,5.21-8.1,6.66-13.45,6.09-9.77-1-18.83-5.37-28.06-8.74S892.28,212.14,882.87,215Z"/><path class="cls-10" d="M892.46,210.26a75.78,75.78,0,0,0,27.88-59.36c-0.05-3.21-.83-7.13-3.89-8.12-2.6-.84-5.3,1-7,3.16-6.26,7.66-6.24,18.47-6.38,28.36S900,203.91,892.46,210.26Z"/><path class="cls-3" d="M937.89,560.54c-5.12-3.23-11.61-3.15-17.64-2.56-9.5.93-19.33,3-26.67,9.14-8.6,7.15-12.42,19-11.72,30.13s5.46,21.73,11.55,31.11c2.8,4.31,6.65,8.84,11.79,8.93,5.54,0.09,9.62-5,12.78-9.51l16.34-23.52c4.69-6.75,9.49-13.75,11.15-21.8S944.84,564.93,937.89,560.54Z"/><path class="cls-3" d="M287.4,564.29c-0.11,6.05,3.32,11.56,6.94,16.42,5.71,7.65,12.61,15,21.63,18.08,10.57,3.66,22.66.8,31.84-5.58s15.76-15.92,20.63-26c2.24-4.63,4.12-10.27,1.53-14.71-2.79-4.79-9.22-5.66-14.76-6l-28.58-1.79c-8.21-.51-16.68-1-24.43,1.76S287.56,556.07,287.4,564.29Z"/></g></g></svg>